<svg id="Layer_1" data-name="Layer 1" xmlns="http://www.w3.org/2000/svg" viewBox="0 0 100 100"><defs><style>.cls-1{fill:#1d1d1b;}</style></defs><path class="cls-1" d="M41.18,19.62a.74.74,0,0,0,.18.93l4.22,3.69a.49.49,0,0,0,.64,0l3.46-3a.49.49,0,0,1,.64,0l3.46,3a.49.49,0,0,0,.64,0l4.25-3.72a.72.72,0,0,0-.94-1.08l-3.24,2.84a.59.59,0,0,1-.77,0l-3.32-2.9a.61.61,0,0,0-.8,0l-3.32,2.9a.59.59,0,0,1-.77,0l-3.24-2.84A.72.72,0,0,0,41.18,19.62Z"/><path class="cls-1" d="M57.73,24.28l-3.24,2.83a.59.59,0,0,1-.77,0l-3.32-2.9a.61.61,0,0,0-.8,0l-3.32,2.9a.59.59,0,0,1-.77,0l-3.24-2.83a.72.72,0,0,0-1.09.17.74.74,0,0,0,.18.93l4.22,3.69a.49.49,0,0,0,.64,0l3.46-3a.49.49,0,0,1,.64,0l3.46,3a.49.49,0,0,0,.64,0l4.25-3.71a.72.72,0,1,0-.94-1.08Z"/><path class="cls-1" d="M77.17,76.89l.35-.36a.76.76,0,0,0,.09-.09A38.12,38.12,0,0,0,88.27,53.2v0c.1-1.14.16-2.3.16-3.46a38.42,38.42,0,0,0-65.6-27.17A38.16,38.16,0,0,0,11.57,49.72c0,1.16.06,2.32.16,3.46v0A38.13,38.13,0,0,0,22.4,76.45l.07.08.36.36A38.16,38.16,0,0,0,48.64,88.12h.08l1.28,0A38.17,38.17,0,0,0,77.17,76.89Zm-27.7,9.26a30.69,30.69,0,0,1,2.21-9.33,10.1,10.1,0,0,1,4.6,2.08,11.49,11.49,0,0,0,14.21,0,14.3,14.3,0,0,1,2.4-1.45.52.52,0,0,1,.54.87A36.84,36.84,0,0,1,50,86.71h0A.53.53,0,0,1,49.47,86.15Zm-3.09-5.57a.73.73,0,0,0-.85.5,27.85,27.85,0,0,0-1.13,4.49.71.71,0,0,1-.83.58c-1.12-.2-2.23-.45-3.31-.74a.72.72,0,0,1-.51-.87c0-.17.09-.33.14-.49a.76.76,0,0,0-.42-.93.73.73,0,0,0-.94.47c0,.15-.09.3-.13.46a.71.71,0,0,1-.93.48l-.92-.35a.6.6,0,0,1-.34-.74A20.6,20.6,0,0,1,37.15,81s0,0,0,0c3.44-7.67,10.68-13.07,15.53-16,0,0,0,.1,0,.15L52,65.6a.76.76,0,0,0-.15,1,.74.74,0,0,0,.57.27.73.73,0,0,0,.44-.15l.69-.53a3.42,3.42,0,0,0,.88.41h0a.73.73,0,0,1,.38,1.09c-3,4.57-6.33,11.17-6.8,18.33a.62.62,0,0,1-.65.56l-.93-.08a.71.71,0,0,1-.63-.83,27.79,27.79,0,0,1,1.06-4.2A.72.72,0,0,0,46.38,80.58Zm-19.8-2.25a.52.52,0,0,1,.54-.87,14.58,14.58,0,0,1,2.39,1.44,11,11,0,0,0,5.93,2.4c-.2.5-.38,1-.55,1.53a.54.54,0,0,1-.73.32A37.32,37.32,0,0,1,26.58,78.33ZM13.27,54.11a.51.51,0,0,1,.34-.55,13.36,13.36,0,0,0,3.33-1.85,9.65,9.65,0,0,1,6.29-2.2,9.64,9.64,0,0,1,6.28,2.2,11,11,0,0,0,7.1,2.45,11,11,0,0,0,7.1-2.45,10.08,10.08,0,0,1,12.57,0c.46.32.93.65,1.45.95a.41.41,0,0,1,.13.55A4.69,4.69,0,0,1,55.77,55c-1.41.75-1.82.39-2.49-.21a3,3,0,0,0-2.45-1,2.81,2.81,0,0,0-1.54.76,3.43,3.43,0,0,0-.86,2.74.91.91,0,0,0,.73.66,1.84,1.84,0,0,1,.48.13c1.42.75,1.34,1,1.18,1.62a2.57,2.57,0,0,0,0,1.62.22.22,0,0,1-.22.3H50a10.93,10.93,0,0,0-7.1,2.46,10.08,10.08,0,0,1-12.57,0,11,11,0,0,0-7.1-2.46,10.25,10.25,0,0,0-5.62,1.48l-2.41-.88A36.37,36.37,0,0,1,13.27,54.11Zm49-8.79a.52.52,0,0,1,.88.4,5.51,5.51,0,0,1-.34,1.39A4.12,4.12,0,0,0,65.9,53a2.74,2.74,0,0,1,2.17,4.09,4.13,4.13,0,0,0,3.13,5.94,2.94,2.94,0,0,1,2.21,1.45l0,0a.52.52,0,0,1-.35.73,3.93,3.93,0,0,1-2.14.06c-1.43-.45-2.54-.87-3.51-1.25-2.7-1-4.19-1.6-7-.15-2.3,1.21-2.12,2.61-2,3.63.09.67.12,1-.24,1.45a1.42,1.42,0,0,1-.68.38,1.58,1.58,0,0,1-.56,0,.61.61,0,0,1-.46-.67h0a6.74,6.74,0,0,0,.05-1.23s0-.07,0-.1a2.11,2.11,0,0,0-1.67-2.08,1.22,1.22,0,0,1-.71-.42h0a1.66,1.66,0,0,1-.2-.62c-.09-.5-.16-1-.2-1.35,0,0,0,0,0,0s0-.06,0-.08a.25.25,0,0,1,0-.07l0-.06,0-.06,0-.06-.06-.06,0,0c-.31-.27-.65-.58-1-.93a1.06,1.06,0,0,1-.35-1.34c.29-1,.36-2.08-1.89-3.28h0a.59.59,0,0,1-.29-.76,1.52,1.52,0,0,1,.28-.48,1.37,1.37,0,0,1,.7-.35c.54-.06.83.17,1.33.62.77.68,1.83,1.62,4.12.4,2.76-1.46,3.12-3,3.79-5.82.24-1,.51-2.17,1-3.61A3.66,3.66,0,0,1,62.23,45.32ZM84.86,62.09l-2.63,1a9.54,9.54,0,0,0-1.82-.83,20.35,20.35,0,0,0,2.52-3.06,7.87,7.87,0,0,0,.84-7,11.94,11.94,0,0,0,2.62,1.37.5.5,0,0,1,.34.54A36.4,36.4,0,0,1,84.86,62.09Zm-8,13a.52.52,0,0,1-.37.16,11,11,0,0,0-6.84,2.45,10.08,10.08,0,0,1-12.57,0,11.64,11.64,0,0,0-4.85-2.26,45.55,45.55,0,0,1,2.57-5,.48.48,0,0,1,.66-.17,3.89,3.89,0,0,0,2,.54,1.87,1.87,0,0,0,.42,0A2.82,2.82,0,0,0,59.34,70a2.7,2.7,0,0,0,.63-2l.57-.47a11.48,11.48,0,0,0,2.84.32,10.37,10.37,0,0,0,5.52-1.42.46.46,0,0,1,.38,0c.39.14.79.27,1.23.41a6.2,6.2,0,0,0,4-.41.64.64,0,0,0,.27-.11,17.07,17.07,0,0,0,4.38-2.83,10.9,10.9,0,0,1,3.85,1.94h0a.52.52,0,0,1,.17.65A37.08,37.08,0,0,1,76.88,75.11Zm-15.72-9a.45.45,0,0,1-.13-.84l.12-.06c2.18-1.15,3.16-.78,5.76.22l.36.14a9.21,9.21,0,0,1-3.89.76A10.25,10.25,0,0,1,61.16,66.11Zm19-18h0L82,51.8a6.44,6.44,0,0,1-.3,6.58,19.22,19.22,0,0,1-1.41,1.85.51.51,0,0,1-.78,0A4.8,4.8,0,0,0,77,58.84a3,3,0,0,1-2.21-1.45,2.92,2.92,0,0,1,0-2.64,4.13,4.13,0,0,0-3.14-5.93,2.74,2.74,0,0,1-2.16-4.1,5.78,5.78,0,0,0,.41-2.14.52.52,0,0,1,.46-.54A16.59,16.59,0,0,1,73,41.88a6.44,6.44,0,0,1,5.61,3.45ZM67.82,42.54a.53.53,0,0,1,.65.57,7.16,7.16,0,0,1-.32,1.15,4.14,4.14,0,0,0,3.14,5.94,2.92,2.92,0,0,1,2.2,1.45,3,3,0,0,1,0,2.64,4.13,4.13,0,0,0,3.13,5.93,3.21,3.21,0,0,1,2,1.15l-.08.68h0l0,0a18,18,0,0,1-3,2.18.52.52,0,0,1-.73-.25l-.08-.17a4.33,4.33,0,0,0-3.09-2.16,2.75,2.75,0,0,1-2.17-4.1,4.12,4.12,0,0,0-3.13-5.93,2.74,2.74,0,0,1-2.17-4.09,4.6,4.6,0,0,0,.21-3.2.5.5,0,0,1,.26-.63A17.05,17.05,0,0,1,67.82,42.54ZM16.94,65.3a9.65,9.65,0,0,1,6.29-2.2,9.64,9.64,0,0,1,6.28,2.2,10.93,10.93,0,0,0,7.1,2.46,10.93,10.93,0,0,0,7.1-2.46A9.67,9.67,0,0,1,50,63.1a10.51,10.51,0,0,1,1.83.15l.09.45C47,66.67,39.7,72.12,36,79.91a9.64,9.64,0,0,1-5.71-2.19,11,11,0,0,0-6.84-2.45.52.52,0,0,1-.37-.16A37.08,37.08,0,0,1,16.77,66a.52.52,0,0,1,.17-.65ZM61.15,24.19A11.15,11.15,0,1,1,50,13,11.16,11.16,0,0,1,61.15,24.19ZM41.34,15.07a12.59,12.59,0,1,0,17.32,0,.69.69,0,0,1,.65-1.17A37.06,37.06,0,0,1,87,49.72v.37a1.36,1.36,0,0,1-2.1,1.13q-.51-.33-1-.69c-.43-.3-.88-.61-1.36-.9l-.7-1.32h0l-1.93-3.65A7.88,7.88,0,0,0,73,40.44a20.21,20.21,0,0,0-4.19.4l-.07,0A18.34,18.34,0,0,0,62.92,43a.91.91,0,0,0-.17.09l-.06,0a6.43,6.43,0,0,0-2.88,3.29c-.45,1.48-.74,2.71-1,3.7q-.09.42-.18.78a.4.4,0,0,1-.61.24c-.31-.2-.62-.42-.94-.64a11.48,11.48,0,0,0-14.2,0,10.08,10.08,0,0,1-12.57,0,11,11,0,0,0-7.1-2.46,11,11,0,0,0-7.11,2.46c-.33.24-.67.47-1,.69A1.37,1.37,0,0,1,13,50.08v-.36A37.05,37.05,0,0,1,40.69,13.91.69.69,0,0,1,41.34,15.07Z"/><path class="cls-1" d="M17.14,87.05l-.62.21,1.22,1,.15-.59.69-.58,1.23,1-.43.8-.53.27,1.23,1,.08-.64,3-5.72-1.05-.86Zm3.06.37-1.05-.86L22.07,84Z"/><path class="cls-1" d="M30.68,88.54l-1.47-.77a.83.83,0,0,0-1.29.42l-2.3,4.4a.83.83,0,0,0,.39,1.3l2.72,1.42.48-.93h-.5l2.37-4.54A.83.83,0,0,0,30.68,88.54Zm-.59,1.1-2,3.9a.43.43,0,0,1-.64.22l-.62-.33a.42.42,0,0,1-.18-.64l2-3.9c.15-.27.35-.37.63-.22l.63.32A.43.43,0,0,1,30.09,89.64Z"/><path class="cls-1" d="M38.91,92.21l-1.37,4.91a.44.44,0,0,1-.58.35l-.64-.18a.43.43,0,0,1-.31-.6l1.37-4.9.44-.46-1.51-.42.14.62L35,96.7c-.18.64,0,1,.65,1.19l1.54.43a.83.83,0,0,0,1.18-.67l1.45-5.18.43-.45-1.48-.42Z"/><path class="cls-1" d="M47.57,93l-1.35-.1L44.5,99.15l-.38.53,1.56.11-.21-.57.22-.87,1.59.11.11.89-.29.54,1.59.11-.3-.57ZM45.86,97.6l1-3.75.41,3.84Z"/><path class="cls-1" d="M57.36,96.3c.46-.17.62-.53.54-1.12l-.23-1.77c-.09-.65-.39-.92-1.07-.83L53.75,93l.37.5.76,5.75-.22.58,1.55-.2-.36-.51-.33-2.5.36,0c.43-.06.62.1.79.5l.79,1.83-.06.57L59,99.21l-.51-.49Zm-1-.61-1,.13-.3-2.28,1-.13c.41,0,.61.16.67.55l.13,1A.55.55,0,0,1,56.4,95.69Z"/><polygon class="cls-1" points="63.71 91.44 63.83 90.82 62.33 91.3 62.78 91.73 64.53 97.26 64.41 97.87 65.91 97.4 65.46 96.96 63.71 91.44"/><path class="cls-1" d="M71.76,87.9v-.63L70.41,88l.51.35,2.35,4.52a.43.43,0,0,1-.19.65l-.58.31a.44.44,0,0,1-.64-.23l-2.34-4.52v-.62l-1.39.72.53.35,2.48,4.77a.81.81,0,0,0,1.28.42L73.84,94a.83.83,0,0,0,.4-1.3Z"/><path class="cls-1" d="M81.44,85.69a.9.9,0,0,0-1-.34l-1.82.33a.66.66,0,0,1-.79-.3l-.41-.51a.43.43,0,0,1,0-.68L78,83.8a.42.42,0,0,1,.66.1l.47.57,1.05-.2-1-1.19a.83.83,0,0,0-1.35-.14l-1.2,1a.81.81,0,0,0-.13,1.34l.88,1.09a.92.92,0,0,0,.94.37l1.82-.35a.69.69,0,0,1,.8.3l.5.62a.43.43,0,0,1,0,.67l-.57.46a.42.42,0,0,1-.66-.1l-.59-.72-1,.21,1.08,1.33a.83.83,0,0,0,1.35.15l1.29-1a.83.83,0,0,0,.13-1.36Z"/><polygon class="cls-1" points="22.82 15.15 22.9 15.71 24.05 14.88 23.54 14.63 22.19 12.78 23.36 11.93 24.71 13.77 24.79 14.34 25.94 13.5 25.42 13.26 22.32 9 22.24 8.43 21.09 9.27 21.61 9.52 22.96 11.37 21.79 12.23 20.43 10.37 20.36 9.81 19.2 10.65 19.72 10.9 22.82 15.15"/><path class="cls-1" d="M28.56,10.89a.75.75,0,0,0,1.16.4l1.35-.69a.75.75,0,0,0,.38-1.17l-2-4A.75.75,0,0,0,28.24,5l-1.35.68a.75.75,0,0,0-.37,1.17Zm-1-4.78.58-.29a.39.39,0,0,1,.58.21l1.8,3.56a.39.39,0,0,1-.17.59l-.58.3c-.25.13-.44,0-.57-.22L27.42,6.7A.39.39,0,0,1,27.58,6.11Z"/><path class="cls-1" d="M35.2,8.3l-.11.56,1.36-.43L36,8l-.69-2.18.32-.1c.37-.12.57,0,.79.32l1,1.52,0,.51,1.41-.44-.52-.36L37,5.31c.39-.22.47-.57.31-1.09l-.49-1.55a.75.75,0,0,0-1.09-.57l-2.49.79.41.39Zm.17-5.38a.5.5,0,0,1,.69.38l.28.9a.49.49,0,0,1-.34.71l-.86.27-.63-2Z"/><path class="cls-1" d="M41.83,6.12c.09.6.37.83,1,.74l1.5-.22a.75.75,0,0,0,.73-1l-.67-4.47a.74.74,0,0,0-1-.74l-1.5.22c-.61.09-.81.4-.72,1Zm.59-4.84.63-.09a.39.39,0,0,1,.49.38l.58,3.95a.38.38,0,0,1-.35.5l-.63.1a.39.39,0,0,1-.48-.38l-.59-3.95C42,1.51,42.13,1.32,42.42,1.28Z"/><path class="cls-1" d="M49.63,6.27l1.51,0c.62,0,.87-.26.88-.86l0-1.4a.84.84,0,0,0-.47-.79l-1.46-.83a.61.61,0,0,1-.37-.67v-.6c0-.28.15-.45.43-.44h.57c.28,0,.41.17.4.45v.67L52,2.3,52,.91c0-.6-.24-.88-.86-.89l-1.4,0c-.62,0-.87.26-.88.86l0,1.28a.86.86,0,0,0,.44.8l1.48.82a.62.62,0,0,1,.37.68v.71a.4.4,0,0,1-.43.45l-.66,0c-.28,0-.41-.17-.4-.45V4.29l-.85-.47,0,1.56C48.77,6,49,6.26,49.63,6.27Z"/><path class="cls-1" d="M56.32,6.73,57.78,7a.75.75,0,0,0,1-.73l.31-1.88-.92.32L58,5.85a.39.39,0,0,1-.49.37l-.64-.1a.38.38,0,0,1-.33-.51l.64-3.94c0-.28.19-.43.48-.38l.63.1a.4.4,0,0,1,.35.51l-.23,1.42L59.31,3l.2-1.21c.09-.6-.11-.91-.72-1L57.32.54c-.61-.1-.89.14-1,.73l-.72,4.45C55.51,6.32,55.71,6.63,56.32,6.73Z"/><path class="cls-1" d="M63,8.24l1.43.47a.75.75,0,0,0,1.1-.56l1.42-4.28a.75.75,0,0,0-.54-1.11l-1.44-.47c-.59-.2-.9,0-1.09.56L62.42,7.13A.75.75,0,0,0,63,8.24Zm.37-1.08,1.26-3.79a.38.38,0,0,1,.53-.29l.61.2a.39.39,0,0,1,.26.56L64.73,7.63a.39.39,0,0,1-.54.29l-.61-.2A.39.39,0,0,1,63.33,7.16Z"/><path class="cls-1" d="M69.7,10.43l1-2L72,9.11a.74.74,0,0,0,1.16-.38L74,7.14A.75.75,0,0,0,73.63,6l-2.3-1.19v.57L68.91,10l-.47.32,1.27.66ZM72,5.92l.78.4a.5.5,0,0,1,.21.76L72.56,8a.49.49,0,0,1-.74.26L71,7.85Z"/><polygon class="cls-1" points="77.56 14.62 76.57 14.47 75.63 13.79 76.87 12.1 77.71 12.71 77.99 13.2 78.68 12.26 78.12 12.14 77.28 11.53 78.52 9.84 79.46 10.53 79.9 11.43 80.58 10.49 77.99 8.6 77.91 9.16 74.81 13.42 74.29 13.66 76.88 15.55 77.56 14.62"/><path class="cls-1" d="M83.55,16.23a.72.72,0,0,0-1,0,.71.71,0,0,0,0,1,46,46,0,0,1,1.63,63.24.71.71,0,0,0,0,1,.7.7,0,0,0,1,0,47.4,47.4,0,0,0-1.67-65.21Z"/><path class="cls-1" d="M4,49.72A45.65,45.65,0,0,1,17.47,17.24a.71.71,0,0,0,0-1,.72.72,0,0,0-1,0,47.4,47.4,0,0,0-1.67,65.21.7.7,0,0,0,1,0,.71.71,0,0,0,.05-1A45.89,45.89,0,0,1,4,49.72Z"/><path class="cls-1" d="M19,37.28a.75.75,0,0,1,.62.61c0,.07,0,.14,0,.21a4.5,4.5,0,0,0,.57,1.43,4.47,4.47,0,0,0,.56-1.43,1.55,1.55,0,0,0,0-.21.79.79,0,0,1,.62-.62l.21,0a4.47,4.47,0,0,0,1.43-.56,4.47,4.47,0,0,0-1.43-.56l-.21,0a.79.79,0,0,1-.62-.62c0-.07,0-.14,0-.21a4.38,4.38,0,0,0-.56-1.43,4.38,4.38,0,0,0-.56,1.43l-.05.2a.75.75,0,0,1-.61.62l-.21,0a4.52,4.52,0,0,0-1.44.56,4.52,4.52,0,0,0,1.44.56Z"/><path class="cls-1" d="M31.34,37.28a.74.74,0,0,1,.61.61c0,.07,0,.14.05.21a4.47,4.47,0,0,0,.56,1.43,4.47,4.47,0,0,0,.56-1.43,1.6,1.6,0,0,0,.05-.21.78.78,0,0,1,.62-.62l.2,0a4.38,4.38,0,0,0,1.43-.56A4.38,4.38,0,0,0,34,36.11l-.21,0a.79.79,0,0,1-.62-.62,1.55,1.55,0,0,0,0-.21,4.38,4.38,0,0,0-.56-1.43A4.38,4.38,0,0,0,32,35.24a1.42,1.42,0,0,0,0,.2.78.78,0,0,1-.62.62l-.21,0a4.47,4.47,0,0,0-1.43.56,4.47,4.47,0,0,0,1.43.56Z"/><path class="cls-1" d="M31.34,23.14a.77.77,0,0,1,.61.62c0,.07,0,.14.05.21a4.56,4.56,0,0,0,.56,1.43A4.56,4.56,0,0,0,33.12,24a1.6,1.6,0,0,0,.05-.21.77.77,0,0,1,.62-.62l.2,0a4.88,4.88,0,0,0,1.43-.56A4.65,4.65,0,0,0,34,22l-.21,0a.78.78,0,0,1-.62-.62,1.55,1.55,0,0,0,0-.21,4.56,4.56,0,0,0-.56-1.43A4.56,4.56,0,0,0,32,21.1a1.55,1.55,0,0,0,0,.21.79.79,0,0,1-.62.62l-.21,0a4.28,4.28,0,0,0-1.43.57,4.47,4.47,0,0,0,1.43.56Z"/><path class="cls-1" d="M78,37.27a.79.79,0,0,1,.62.62c0,.07,0,.14,0,.21a4.75,4.75,0,0,0,.57,1.43,4.47,4.47,0,0,0,.56-1.43,1.55,1.55,0,0,0,0-.21.77.77,0,0,1,.62-.61l.21-.05A4.47,4.47,0,0,0,82,36.67a4.47,4.47,0,0,0-1.43-.56l-.21,0a.77.77,0,0,1-.62-.62c0-.07,0-.13,0-.2a4.38,4.38,0,0,0-.56-1.43,4.38,4.38,0,0,0-.56,1.43c0,.07,0,.14-.05.21a.77.77,0,0,1-.62.62l-.2,0a4.52,4.52,0,0,0-1.44.56,4.52,4.52,0,0,0,1.44.56Z"/><path class="cls-1" d="M65.63,37.27a.79.79,0,0,1,.62.62,1.55,1.55,0,0,0,0,.21,4.47,4.47,0,0,0,.56,1.43,4.75,4.75,0,0,0,.57-1.43c0-.07,0-.14,0-.21a.75.75,0,0,1,.62-.61l.2-.05a4.52,4.52,0,0,0,1.44-.56,4.52,4.52,0,0,0-1.44-.56l-.21,0a.75.75,0,0,1-.61-.62c0-.07,0-.13,0-.2a4.38,4.38,0,0,0-.56-1.43,4.38,4.38,0,0,0-.56,1.43c0,.07,0,.14,0,.21a.79.79,0,0,1-.62.62l-.21,0a4.47,4.47,0,0,0-1.43.56,4.47,4.47,0,0,0,1.43.56Z"/><path class="cls-1" d="M65.63,23.14a.78.78,0,0,1,.62.62,1.55,1.55,0,0,0,0,.21,4.56,4.56,0,0,0,.56,1.43A4.86,4.86,0,0,0,67.42,24c0-.07,0-.14,0-.21a.78.78,0,0,1,.62-.62l.2,0a4.52,4.52,0,0,0,1.44-.56A4.33,4.33,0,0,0,68.28,22l-.21,0a.77.77,0,0,1-.61-.62c0-.07,0-.14,0-.21a4.56,4.56,0,0,0-.56-1.43,4.56,4.56,0,0,0-.56,1.43c0,.07,0,.14,0,.21a.78.78,0,0,1-.62.62l-.21,0a4.75,4.75,0,0,0-1.43.57,5,5,0,0,0,1.43.56Z"/><path class="cls-1" d="M51,68.35A.72.72,0,0,0,50,67.27a50.09,50.09,0,0,0-4,3.91.72.72,0,0,0,.05,1,.7.7,0,0,0,.48.19.72.72,0,0,0,.53-.23A47.21,47.21,0,0,1,51,68.35Z"/><path class="cls-1" d="M43.46,75.39a.72.72,0,0,0-1,.19,31.92,31.92,0,0,0-2.37,4.06.71.71,0,0,0,.33,1,.7.7,0,0,0,.31.07.73.73,0,0,0,.65-.4,30.94,30.94,0,0,1,2.26-3.88A.72.72,0,0,0,43.46,75.39Z"/><path class="cls-1" d="M50.78,72.25a.69.69,0,0,0,.41.13.73.73,0,0,0,.59-.31c.53-.77,1.11-1.55,1.7-2.31a.71.71,0,0,0-1.12-.88c-.62.78-1.21,1.58-1.76,2.37A.71.71,0,0,0,50.78,72.25Z"/><path class="cls-1" d="M47.31,79.19a.72.72,0,0,0,.66-.43,39.06,39.06,0,0,1,1.89-3.69.71.71,0,1,0-1.23-.72,36.62,36.62,0,0,0-2,3.83.71.71,0,0,0,.36.94A.65.65,0,0,0,47.31,79.19Z"/></svg>