<svg id="Layer_1" data-name="Layer 1" xmlns="http://www.w3.org/2000/svg" viewBox="0 0 100 100"><path d="M43.67,18.75a11.18,11.18,0,0,1,.57-1.15,3.85,3.85,0,0,1,.35-.49.86.86,0,0,1,.39-.27.29.29,0,0,1,.13,0l.15.09a1.85,1.85,0,0,1,.32.42,7.24,7.24,0,0,1,.48,1.13c.13.4.25.81.35,1.23.06.21.11.42.16.63l.15.64q.6,2.57,1.26,5.13l.66,2.56.67,2.55a.71.71,0,0,0,.68.52h0a.69.69,0,0,0,.66-.49c.07-.24.13-.44.19-.66l.18-.64.35-1.28c.22-.85.45-1.7.66-2.56q.64-2.57,1.23-5.14l.14-.64.15-.63c.11-.42.22-.83.35-1.23a5.82,5.82,0,0,1,.48-1.14,1.54,1.54,0,0,1,.32-.41.46.46,0,0,1,.14-.09.22.22,0,0,1,.14,0,.9.9,0,0,1,.38.27,3.36,3.36,0,0,1,.35.49,8.92,8.92,0,0,1,.57,1.16c.17.4.33.81.47,1.22s.28.84.4,1.26a16.69,16.69,0,0,0-.5-2.61,7.85,7.85,0,0,0-.46-1.28,3,3,0,0,0-.35-.62,1.48,1.48,0,0,0-.63-.54.92.92,0,0,0-.52-.05,1.18,1.18,0,0,0-.44.19,2.49,2.49,0,0,0-.55.58,6.75,6.75,0,0,0-.66,1.24,21.78,21.78,0,0,0-.85,2.55c-.5,1.69-1,3.38-1.46,5.08l-.71,2.53,0,.11,0-.12-.72-2.54c-.48-1.69-1-3.37-1.48-5.06a21.18,21.18,0,0,0-.87-2.54,6.25,6.25,0,0,0-.67-1.24,2.42,2.42,0,0,0-.54-.58,1.18,1.18,0,0,0-.44-.19.92.92,0,0,0-.52,0,1.45,1.45,0,0,0-.64.54,4.26,4.26,0,0,0-.35.62,7.49,7.49,0,0,0-.45,1.28,15.58,15.58,0,0,0-.49,2.61q.18-.63.39-1.26C43.36,19.57,43.51,19.15,43.67,18.75Z"/><path d="M50,11.15A38.09,38.09,0,0,0,22.53,75.63a.12.12,0,0,0,0,.05l.48.5a38.1,38.1,0,0,0,53.88,0l.48-.5a.12.12,0,0,0,0-.05A38.09,38.09,0,0,0,50,11.15Zm11,12.78a11,11,0,1,1-11-11A11.07,11.07,0,0,1,61.05,23.93Zm-24.73,30s-.06-.73,2.25-2.37A28.22,28.22,0,0,0,41.71,49h0l.25-.24a7.4,7.4,0,0,0,1.13,1.52h0a15.65,15.65,0,0,0,5.13,3.27h.11l.12,0h.14l.07,0h0l.06,0a.05.05,0,0,1,0,0l0,0,0,0,0,0,0,0s0,0,0,0l0,0,0-.05,0,0,0,0a14.32,14.32,0,0,1,.93-1.88.67.67,0,0,0,.36.12c.07,0,6.46.49,10.44,9.8a38.34,38.34,0,0,0,2.67,5.21s0,0,0,0a21.22,21.22,0,0,0,4.14,5,.55.55,0,0,1-.17.94l-2.34.79a4.86,4.86,0,0,0-2.24,1.6l0,.07-.12.16c-2.26,3.3-4.68,4.75-7,4.2-2.93-.7-5.52-4.65-6.17-9.39,0,0,0-.06,0-.09-2.45-9.3-9.43-8.6-12.32-7.87h0l-.07,0-.06,0-.06,0-.06,0-.05,0,0,.06a.1.1,0,0,0,0,.05l0,.06s0,0,0,0a2.33,2.33,0,0,1-2.64,1.32c-1.23-.61-1.92-1.28-2-2-.21-1.33,1.46-2.92,2.45-3.87l.18-.17.21-.2h0a6.84,6.84,0,0,0,.77-.9A3.46,3.46,0,0,0,36.32,53.93Zm22.19-7.64h0a.72.72,0,0,0,.71-.69V45a9.87,9.87,0,0,1,1.66,3.32.32.32,0,0,1-.52.33,8.47,8.47,0,0,0-5.55-2.08c-2.65,0-4.86,1.61-6.44,4.67a.71.71,0,0,1-1,.32,15.38,15.38,0,0,1-3-2.12,9.67,9.67,0,0,1,1.22-3.17L47,47.66a.71.71,0,0,0,1-1l-1.54-1.55A10.42,10.42,0,0,1,48,43.64l1.18,1.76a.7.7,0,0,0,.59.31.72.72,0,0,0,.59-1.11l-1.18-1.75a9.15,9.15,0,0,1,1.41-.68l0,0,1.21,1.88a.69.69,0,0,0,.59.32.74.74,0,0,0,.45-.15.73.73,0,0,0,.14-1l-1-1.55A9.54,9.54,0,0,1,54,41.51h.06a1.11,1.11,0,0,0,0,.17l.52,2.17a.7.7,0,0,0,.69.55l.16,0a.72.72,0,0,0,.53-.86l-.34-1.42a9.78,9.78,0,0,1,2.2,1.43l0,2A.72.72,0,0,0,58.51,46.29ZM46.68,42.83a11.16,11.16,0,0,0-3.32,5,.13.13,0,0,1-.24,0c-.09-.19-.18-.39-.25-.58v0a4.37,4.37,0,0,1-.17-.62.14.14,0,0,1,0-.09A9.94,9.94,0,0,1,47,42.23a.13.13,0,0,1,.14.22C47,42.57,46.83,42.7,46.68,42.83ZM81.79,65.25h-17a.4.4,0,0,1-.34-.19,41.76,41.76,0,0,1-2.25-4.5,25.35,25.35,0,0,0-1.22-2.5.39.39,0,0,1,.34-.59h22a1.88,1.88,0,0,1,1.8,2.42,36.89,36.89,0,0,1-1.6,4.26A1.87,1.87,0,0,1,81.79,65.25Zm-6,9.2H68.05a.4.4,0,0,1-.13-.77h0a2,2,0,0,0,1.34-1.45,2,2,0,0,0-.65-1.94,17.18,17.18,0,0,1-2.72-3,.39.39,0,0,1,.31-.63H78.93a1.88,1.88,0,0,1,1.57,2.91,37.82,37.82,0,0,1-3.31,4.25A1.92,1.92,0,0,1,75.79,74.45Zm-53-.62a37.82,37.82,0,0,1-3.31-4.25,1.88,1.88,0,0,1,1.57-2.91H42.58a.4.4,0,0,1,.37.53c-.75,2.1-1.71,4.78-2.39,6.73a5,5,0,0,0-.14.52H24.21A1.92,1.92,0,0,1,22.81,73.83ZM41.74,75.2a.06.06,0,0,0,0,0h0a3.13,3.13,0,0,1,.16-.76c1.1-3.17,3-8.32,3.44-9.67A10.75,10.75,0,0,1,48.2,70a17.3,17.3,0,0,0,1.3,4.65,2.72,2.72,0,0,0-.11.25h0c-1.53,3.4-3.91,3.92-5.51,3.31A3.16,3.16,0,0,1,41.74,75.2Zm-11-13.47c.19,1.22,1.16,2.26,2.89,3.09l.14.05a3.68,3.68,0,0,0,.88.1,3.63,3.63,0,0,0,3.29-1.88,8.51,8.51,0,0,1,6.24.73l0,.08s-.16.42-.4,1.09a.39.39,0,0,1-.37.26H18.21a1.87,1.87,0,0,1-1.71-1.1,36.89,36.89,0,0,1-1.6-4.26,1.88,1.88,0,0,1,1.8-2.42H31.83a.39.39,0,0,1,.3.65A4.67,4.67,0,0,0,30.73,61.73Zm-.66,14.14H40a.38.38,0,0,1,.38.31,4.79,4.79,0,0,0,3,3.35,4.93,4.93,0,0,0,1.71.31A5.89,5.89,0,0,0,50,76.76a.39.39,0,0,1,.66,0,8.33,8.33,0,0,0,4.79,3.76,4.91,4.91,0,0,0,1.31.15c1.91,0,4.39-1,7-4.63a.4.4,0,0,1,.33-.17h5.87A1.88,1.88,0,0,1,71,79.28a36.59,36.59,0,0,1-42,0A1.88,1.88,0,0,1,30.07,75.87ZM84.44,56.05H59.87a.42.42,0,0,1-.32-.16c-3.43-4.72-7.31-5.72-8.61-5.93a5,5,0,0,1,3.9-2,7.06,7.06,0,0,1,6.45,4.22s0,0,0,0a.25.25,0,0,0,0,.07l0,0a.1.1,0,0,0,0,.05l0,0,.05,0,.06,0,.06,0,.06,0,.07,0h.31l.05,0,.08,0h0l0,0,.07,0,.05,0,0,0,0-.05.05-.06,0-.05,0-.06,0-.06a.25.25,0,0,1,0-.07s0,0,0-.06v0a8.67,8.67,0,0,0,0-1,11.25,11.25,0,0,0-8.33-10.86h0a11.24,11.24,0,0,0-13,6h0A11.26,11.26,0,0,0,40.6,48a25,25,0,0,1-2.85,2.36c-2,1.45-3,2.66-2.84,3.7a2.09,2.09,0,0,1-.32,1.43c-.09.13-.19.25-.3.38a.41.41,0,0,1-.31.14H15.56a1.88,1.88,0,0,1-1.86-1.61,35.66,35.66,0,0,1-.37-5.2A36.73,36.73,0,0,1,41,13.7a.63.63,0,0,1,.58,1.08,12.47,12.47,0,1,0,16.93,0,.64.64,0,0,1,.58-1.09A36.73,36.73,0,0,1,86.67,49.24a35.66,35.66,0,0,1-.37,5.2A1.88,1.88,0,0,1,84.44,56.05Z"/><path d="M18.1,87.78l-.82.32L19,89.36l.18-.8.88-.83L21.77,89l-.53,1.1-.71.4,1.72,1.28.08-.87L26.07,83l-1.48-1.1Zm4.16.32L20.78,87l3.81-3.58Z"/><path d="M39.39,89.26l-3.73-1.09.18.83-2.21,7.51-.6.6,2,.6-.17-.83,1-3.27.47.14c.57.16.72.46.71,1l0,2.7-.39.66,2.11.62-.36-.88-.08-3.62c.67,0,1.06-.31,1.29-1.09l.68-2.31A1.12,1.12,0,0,0,39.39,89.26Zm-.55,1.8-.4,1.34a.73.73,0,0,1-1,.59l-1.29-.38.87-3,1.29.38A.73.73,0,0,1,38.84,91.06Z"/><polygon points="51.42 91.35 51.81 90.6 49.69 90.63 50.1 91.37 50.25 99.2 49.86 99.95 51.98 99.92 51.56 99.18 51.42 91.35"/><polygon points="66.23 96.21 64.58 96.75 63.63 93.78 65.1 93.31 65.94 93.4 65.41 91.75 64.78 92.32 63.31 92.79 62.35 89.82 64 89.29 65.47 89.55 64.94 87.91 60.4 89.38 61.01 89.96 63.41 97.42 63.26 98.25 67.8 96.79 67.27 95.15 66.23 96.21"/><path d="M80.6,85.41a1.23,1.23,0,0,0-1.27-.5l-2.47.38a.89.89,0,0,1-1-.44l-.55-.71a.58.58,0,0,1,.1-.91l.67-.51a.58.58,0,0,1,.89.16l.6.8L79,83.44,77.7,81.8a1.12,1.12,0,0,0-1.82-.25l-1.66,1.26A1.12,1.12,0,0,0,74,84.63l1.15,1.5a1.25,1.25,0,0,0,1.26.53l2.47-.4a1,1,0,0,1,1.07.45l.64.85a.58.58,0,0,1-.09.91l-.79.59a.58.58,0,0,1-.89-.15l-.76-1-1.42.24L78,90a1.11,1.11,0,0,0,1.81.26l1.79-1.36a1.12,1.12,0,0,0,.23-1.82Z"/><polygon points="23.06 14.97 23.13 15.53 24.27 14.7 23.77 14.46 22.43 12.63 23.59 11.78 24.93 13.61 25 14.17 26.15 13.33 25.63 13.1 22.55 8.88 22.48 8.31 21.34 9.15 21.85 9.39 23.19 11.23 22.03 12.07 20.69 10.24 20.61 9.68 19.47 10.51 19.98 10.76 23.06 14.97"/><path d="M28.74,10.75a.74.74,0,0,0,1.16.39l1.33-.68a.74.74,0,0,0,.38-1.16l-2-4a.74.74,0,0,0-1.16-.39l-1.34.68a.74.74,0,0,0-.37,1.16ZM27.78,6l.57-.28a.39.39,0,0,1,.57.2l1.79,3.54a.39.39,0,0,1-.17.58l-.57.29a.39.39,0,0,1-.57-.21L27.61,6.6A.39.39,0,0,1,27.78,6Z"/><path d="M35.33,8.18l-.11.56,1.35-.43-.41-.39-.68-2.17.31-.1a.59.59,0,0,1,.78.32l1,1.51,0,.51L39,7.55l-.52-.36-1.4-2c.38-.22.47-.57.31-1.09L36.89,2.6A.74.74,0,0,0,35.82,2l-2.47.78.4.4Zm.17-5.33a.49.49,0,0,1,.68.38l.28.89a.48.48,0,0,1-.34.7l-.85.27-.63-2Z"/><path d="M41.9,6c.09.59.37.83,1,.74l1.49-.22a.75.75,0,0,0,.72-1l-.66-4.43a.74.74,0,0,0-1-.73L42,.61c-.61.09-.8.4-.72,1Zm.58-4.8.63-.09a.39.39,0,0,1,.48.38l.58,3.91a.39.39,0,0,1-.34.51L43.19,6c-.28,0-.42-.11-.46-.38l-.59-3.92A.39.39,0,0,1,42.48,1.22Z"/><path d="M49.63,6.17l1.5,0c.61,0,.87-.26.88-.85L52,4a.84.84,0,0,0-.46-.79l-1.45-.82a.59.59,0,0,1-.37-.66v-.6a.39.39,0,0,1,.42-.44h.56a.38.38,0,0,1,.4.45v.67l.85.47L52,.86c0-.59-.24-.87-.85-.88L49.76,0c-.62,0-.86.27-.87.86l0,1.26a.83.83,0,0,0,.44.8l1.46.81a.61.61,0,0,1,.37.67v.71c0,.28-.14.45-.42.44h-.66c-.28,0-.41-.18-.4-.45V4.21l-.84-.47,0,1.54C48.78,5.88,49,6.16,49.63,6.17Z"/><path d="M56.26,6.62l1.46.24c.6.1.89-.13,1-.72L59,4.27l-.91.32-.19,1.16a.39.39,0,0,1-.49.37L56.79,6c-.28,0-.37-.23-.33-.51l.64-3.9c0-.28.19-.42.47-.38l.63.11a.38.38,0,0,1,.34.5l-.22,1.4.91-.32.2-1.2a.75.75,0,0,0-.71-1L57.26.49c-.6-.1-.88.14-1,.72l-.72,4.42C55.47,6.22,55.66,6.53,56.26,6.62Z"/><path d="M62.84,8.12l1.43.47A.75.75,0,0,0,65.36,8l1.41-4.25a.75.75,0,0,0-.55-1.1L64.8,2.22a.74.74,0,0,0-1.08.56L62.31,7A.73.73,0,0,0,62.84,8.12Zm.38-1.06L64.46,3.3c.09-.26.26-.39.53-.3l.61.21a.38.38,0,0,1,.25.55L64.61,7.52a.39.39,0,0,1-.54.29l-.61-.2A.38.38,0,0,1,63.22,7.06Z"/><path d="M69.53,10.29l1-1.95L71.81,9A.73.73,0,0,0,73,8.61L73.78,7a.73.73,0,0,0-.36-1.16L71.14,4.69v.56l-2.4,4.64-.46.32,1.25.64Zm2.32-4.47.77.4a.49.49,0,0,1,.21.75l-.47.91a.49.49,0,0,1-.73.26l-.78-.4Z"/><polygon points="77.32 14.45 76.34 14.3 75.41 13.62 76.64 11.95 77.47 12.55 77.75 13.04 78.43 12.11 77.88 11.99 77.04 11.39 78.27 9.71 79.2 10.39 79.64 11.28 80.31 10.36 77.75 8.48 77.67 9.04 74.59 13.26 74.08 13.5 76.65 15.37 77.32 14.45"/><path d="M83.26,16a.71.71,0,0,0-1,0,.73.73,0,0,0,0,1,45.57,45.57,0,0,1,0,64.39.72.72,0,0,0,0,1,.71.71,0,0,0,1,0,47,47,0,0,0,0-66.4Z"/><path d="M17.75,81.44a45.57,45.57,0,0,1,0-64.39.73.73,0,0,0,0-1,.71.71,0,0,0-1,0,47,47,0,0,0,0,66.4.71.71,0,0,0,1,0A.72.72,0,0,0,17.75,81.44Z"/><path d="M21.17,35.63a6,6,0,0,0-.12-.74,4.33,4.33,0,0,0-.56-1.42,5.46,5.46,0,0,0-.67,2.16,4.88,4.88,0,0,0-.75.12,4.37,4.37,0,0,0-1.41.56,4.58,4.58,0,0,0,1.41.55,4.88,4.88,0,0,0,.75.12,5.46,5.46,0,0,0,.67,2.16,4.33,4.33,0,0,0,.56-1.42,4.57,4.57,0,0,0,.12-.74,5.46,5.46,0,0,0,2.16-.67,4.33,4.33,0,0,0-1.42-.56A6.33,6.33,0,0,0,21.17,35.63Z"/><path d="M33.39,35.63c0-.25-.07-.5-.12-.74a4.33,4.33,0,0,0-.56-1.42A5.46,5.46,0,0,0,32,35.63a4.88,4.88,0,0,0-.75.12,4.51,4.51,0,0,0-1.42.56,4.73,4.73,0,0,0,1.42.55A4.88,4.88,0,0,0,32,37a6,6,0,0,0,.11.74,4.33,4.33,0,0,0,.56,1.42,4.33,4.33,0,0,0,.56-1.42,6,6,0,0,0,.12-.74,4.75,4.75,0,0,0,.74-.12,4.63,4.63,0,0,0,1.42-.55,4.42,4.42,0,0,0-1.42-.56A6.33,6.33,0,0,0,33.39,35.63Z"/><path d="M33.39,21.62q0-.37-.12-.75a4.37,4.37,0,0,0-.56-1.41,4.58,4.58,0,0,0-.55,1.41,4.88,4.88,0,0,0-.12.75,4.88,4.88,0,0,0-.75.12,4.73,4.73,0,0,0-1.42.55,4.51,4.51,0,0,0,1.42.56A4.88,4.88,0,0,0,32,23a6,6,0,0,0,.11.74,4.33,4.33,0,0,0,.56,1.42,4.33,4.33,0,0,0,.56-1.42,6,6,0,0,0,.12-.74,6.33,6.33,0,0,0,.74-.12,4.42,4.42,0,0,0,1.42-.56,4.63,4.63,0,0,0-1.42-.55A4.75,4.75,0,0,0,33.39,21.62Z"/><path d="M78.25,37a5.46,5.46,0,0,0,.67,2.16,4.33,4.33,0,0,0,.56-1.42A4.57,4.57,0,0,0,79.6,37a5.46,5.46,0,0,0,2.16-.67,4.33,4.33,0,0,0-1.42-.56,4.57,4.57,0,0,0-.74-.12,6,6,0,0,0-.12-.74,4.33,4.33,0,0,0-.56-1.42,5.46,5.46,0,0,0-.67,2.16,6,6,0,0,0-.74.12,4.33,4.33,0,0,0-1.42.56,5.46,5.46,0,0,0,2.16.67Z"/><path d="M67.38,35.63a5.46,5.46,0,0,0-.67-2.16,4.33,4.33,0,0,0-.56,1.42c-.05.24-.09.49-.12.74a6.33,6.33,0,0,0-.74.12,4.33,4.33,0,0,0-1.42.56A5.46,5.46,0,0,0,66,37a4.57,4.57,0,0,0,.12.74,4.33,4.33,0,0,0,.56,1.42,4.57,4.57,0,0,0,.56-1.42,6,6,0,0,0,.11-.74,4.88,4.88,0,0,0,.75-.12,4.58,4.58,0,0,0,1.41-.55,4.37,4.37,0,0,0-1.41-.56A4.88,4.88,0,0,0,67.38,35.63Z"/><path d="M67.38,21.62a4.88,4.88,0,0,0-.12-.75,4.58,4.58,0,0,0-.55-1.41,4.37,4.37,0,0,0-.56,1.41q-.08.38-.12.75a4.75,4.75,0,0,0-.74.12,4.54,4.54,0,0,0-1.42.55,4.33,4.33,0,0,0,1.42.56A6,6,0,0,0,66,23a4.57,4.57,0,0,0,.12.74,4.33,4.33,0,0,0,.56,1.42,4.57,4.57,0,0,0,.56-1.42,6,6,0,0,0,.11-.74,4.88,4.88,0,0,0,.75-.12,4.37,4.37,0,0,0,1.41-.56,4.58,4.58,0,0,0-1.41-.55A4.88,4.88,0,0,0,67.38,21.62Z"/><path d="M41.24,54.31c.72-.56,1.12-1.25.89-1.54s-1-.09-1.72.46-1.12,1.25-.9,1.54S40.51,54.86,41.24,54.31Z"/></svg>