<svg id="Layer_1" data-name="Layer 1" xmlns="http://www.w3.org/2000/svg" viewBox="0 0 100 100"><defs><style>.cls-1{fill:#1d1d1b;}</style></defs><path class="cls-1" d="M42.09,21.72a3.75,3.75,0,1,0,6-2.95,11.54,11.54,0,0,1,1.55.11,22.77,22.77,0,0,1,3.74.88c1.25.4,2.49.85,3.76,1.33a12.48,12.48,0,0,0-3.34-2.36,12.8,12.8,0,0,0-4-1.26,8.32,8.32,0,0,0-4.24.45L45.5,18A3.75,3.75,0,0,0,42.09,21.72ZM45.84,24a2.32,2.32,0,1,1,2.32-2.32A2.32,2.32,0,0,1,45.84,24Z"/><path class="cls-1" d="M54.16,22.73a3.74,3.74,0,0,0-2.3,6.69,11.54,11.54,0,0,1-1.55-.11,22.77,22.77,0,0,1-3.74-.88c-1.25-.39-2.49-.85-3.76-1.33a13.46,13.46,0,0,0,7.31,3.62,8.32,8.32,0,0,0,4.24-.45l.14-.07a3.74,3.74,0,0,0-.34-7.47Zm0,1.43a2.32,2.32,0,1,1-2.32,2.31A2.32,2.32,0,0,1,54.16,24.16Z"/><path class="cls-1" d="M77,76.7l.33-.32,0,0a39.33,39.33,0,0,0,3.27-3.79h0l.52-.74a38.46,38.46,0,0,0,4.13-7.31l.36-.87c.18-.47.36-.95.52-1.43.36-1,.67-2,.94-3.06.16-.61.3-1.22.43-1.83l.18-.89h0a37.34,37.34,0,0,0,.52-4.1c0-.31,0-.6.06-.87,0-.63,0-1.29,0-1.95a38.85,38.85,0,0,0-.43-5.73,38.28,38.28,0,0,0-75.7,0,39,39,0,0,0-.43,5.73c0,.66,0,1.32,0,1.94,0,.28,0,.57.06.88a37.34,37.34,0,0,0,.52,4.1h0l.18.89a38.91,38.91,0,0,0,2.25,7.19c.14.32.28.64.43,1,.22.48.45,1,.69,1.42s.43.82.66,1.23c.09.17.19.34.29.51s.32.55.49.82c.49.81,1,1.6,1.57,2.37h0l.52.74h0a39.33,39.33,0,0,0,3.27,3.79c.12.11.23.23.34.34a38.45,38.45,0,0,0,5.57,4.57A38,38,0,0,0,50,87.8h1.09A38.05,38.05,0,0,0,77,76.7ZM62.37,84A7.9,7.9,0,0,1,74,77.35,36.56,36.56,0,0,1,62.37,84ZM83.53,64.84l-.14.28-.27.58c-.06.11-.11.22-.17.34s-.17.34-.26.52-.13.23-.19.34l-.27.5-.2.35c-.09.17-.19.33-.29.5l-.19.33-.33.52-.18.29-.42.64-.11.16v0A7.89,7.89,0,0,1,85.87,58c-.06.26-.12.53-.19.79l-.06.22c-.06.2-.11.4-.17.61l-.09.3-.15.52c0,.11-.07.22-.11.33l-.15.48-.12.34c0,.16-.11.32-.17.49l-.12.31c-.06.18-.13.36-.2.53l-.1.27-.33.79C83.79,64.26,83.66,64.55,83.53,64.84ZM61.11,24.1A11.11,11.11,0,1,1,50,13,11.12,11.12,0,0,1,61.11,24.1ZM19.5,70.21v0L19.38,70,19,69.39l-.18-.29-.33-.52-.19-.33c-.1-.17-.2-.33-.29-.5l-.2-.34-.27-.51c-.06-.11-.12-.23-.19-.34L17.05,66l-.17-.33-.27-.58-.14-.28c-.13-.29-.26-.58-.38-.87l-.33-.79c0-.09-.07-.17-.1-.26s-.14-.36-.2-.54l-.12-.31c-.06-.16-.12-.33-.17-.5a3,3,0,0,1-.11-.32l-.17-.5c0-.11-.07-.21-.1-.32l-.15-.52-.09-.3c-.06-.2-.11-.41-.17-.61l-.06-.22c-.07-.26-.13-.53-.19-.79A7.89,7.89,0,0,1,19.5,70.21ZM31.17,81A36.09,36.09,0,0,1,26,77.35,7.9,7.9,0,0,1,37.63,84,36.4,36.4,0,0,1,31.17,81Zm19.88,5.37H50A36.66,36.66,0,0,1,40.07,85a1.41,1.41,0,0,1-1-1.27,9.4,9.4,0,0,0-1.81-5,9.29,9.29,0,0,0-11.58-2.85,1.39,1.39,0,0,1-1.6-.24h0l-.33-.33c-.77-.79-1.51-1.61-2.21-2.46a2.6,2.6,0,0,1-.27-2.83,9.37,9.37,0,0,0,1-4.27,9.26,9.26,0,0,0-6.88-9,2.58,2.58,0,0,1-1.88-2.15c-.12-.8-.2-1.6-.26-2.4,0-.3,0-.58-.05-.85,0-.6,0-1.23,0-1.87A37.47,37.47,0,0,1,13.56,44,37.09,37.09,0,0,1,41.73,13.63a.43.43,0,0,1,.37.75,12.53,12.53,0,1,0,15.81,0,.43.43,0,0,1,.36-.75A37.09,37.09,0,0,1,86.44,44a37.47,37.47,0,0,1,.41,5.52c0,.64,0,1.27,0,1.88,0,.26,0,.54,0,.84-.06.8-.14,1.6-.26,2.4a2.58,2.58,0,0,1-1.88,2.15,9.26,9.26,0,0,0-6.88,9,9.37,9.37,0,0,0,1,4.27,2.6,2.6,0,0,1-.27,2.83c-.7.85-1.44,1.67-2.21,2.46h0l-.31.32h0a1.39,1.39,0,0,1-1.6.24,9.29,9.29,0,0,0-11.58,2.85A9.4,9.4,0,0,0,61,83.74a1.42,1.42,0,0,1-1,1.28A37.33,37.33,0,0,1,51.05,86.36Z"/><path class="cls-1" d="M24.27,82.87,22.71,81.6a1,1,0,0,0-1.65.18L17.2,86.53a1,1,0,0,0,.15,1.66l1.57,1.27a1,1,0,0,0,1.66-.18l1.63-2L20.91,87l-1,1.24a.54.54,0,0,1-.83.11l-.67-.55a.52.52,0,0,1-.06-.82l3.42-4.2a.51.51,0,0,1,.81-.12l.68.55a.53.53,0,0,1,.06.83l-1.22,1.51,1.3.24,1.05-1.29A1,1,0,0,0,24.27,82.87Z"/><path class="cls-1" d="M32.3,87.94l-4.57,6.52-.66.46,1.77.77V95l.62-.93,1.8.79L31,95.89l-.55.51,1.79.78-.11-.79,1.7-7.78Zm-.81,6L30,93.23l2.64-4Z"/><polygon class="cls-1" points="45.3 92.11 44.62 97.17 43.78 91.91 44.01 91.25 41.78 90.95 42.06 91.67 41.1 98.74 40.64 99.36 42.47 99.61 42.2 98.89 42.99 93.05 44.15 99.84 45.34 100 46.39 92.26 46.85 91.64 45.03 91.39 45.3 92.11"/><path class="cls-1" d="M58.8,95.57l-1.06.78L58,97.94a.52.52,0,0,1-.48.68l-.86.12c-.39.06-.59-.15-.64-.52l-.76-5.36c0-.37.08-.62.47-.68l.86-.12a.53.53,0,0,1,.65.52l.27,1.92,1.07-.78-.23-1.65c-.12-.8-.51-1.13-1.34-1l-2,.28c-.83.12-1.1.54-1,1.34l.86,6.06c.12.8.5,1.13,1.32,1l2-.28c.83-.12,1.11-.54,1-1.35Z"/><polygon class="cls-1" points="70.66 94.89 69.22 95.52 68.09 92.92 69.38 92.36 70.15 92.36 69.52 90.92 69 91.49 67.71 92.05 66.58 89.44 68.03 88.81 69.38 88.92 68.76 87.48 64.78 89.21 65.38 89.69 68.21 96.23 68.15 97 72.14 95.27 71.51 93.84 70.66 94.89"/><path class="cls-1" d="M80.47,85c.38-.47.32-1-.15-1.53l-1.38-1.71a1,1,0,0,0-1.66-.19l-2.75,2.23.71.3,4.49,5.54.15.76,1.5-1.21-.72-.3-2-2.41.35-.29a.81.81,0,0,1,1.15,0l2,1.42.3.63L84.07,87l-.84-.19Zm-1.4,0-1,.77-1.78-2.2,1-.77a.66.66,0,0,1,1,.15l.8,1A.67.67,0,0,1,79.07,85Z"/><polygon class="cls-1" points="22.93 15.09 23 15.65 24.15 14.82 23.64 14.57 22.3 12.73 23.47 11.88 24.81 13.72 24.89 14.28 26.03 13.45 25.51 13.2 22.42 8.97 22.35 8.4 21.21 9.24 21.72 9.48 23.06 11.33 21.89 12.18 20.55 10.33 20.47 9.77 19.32 10.61 19.84 10.85 22.93 15.09"/><path class="cls-1" d="M28.64,10.85a.74.74,0,0,0,1.16.39l1.34-.68a.75.75,0,0,0,.38-1.17l-2-4A.75.75,0,0,0,28.32,5L27,5.67a.74.74,0,0,0-.37,1.17Zm-1-4.76.57-.29a.39.39,0,0,1,.58.21l1.8,3.55a.38.38,0,0,1-.18.58l-.57.3a.39.39,0,0,1-.57-.22L27.51,6.67A.37.37,0,0,1,27.67,6.09Z"/><path class="cls-1" d="M35.26,8.27l-.11.56L36.5,8.4,36.1,8l-.69-2.17.31-.1c.38-.12.57,0,.79.32l1,1.51,0,.51,1.41-.44-.53-.36-1.4-2c.38-.22.47-.57.31-1.09l-.49-1.54c-.18-.57-.49-.76-1.08-.57l-2.48.78.4.4Zm.17-5.36a.49.49,0,0,1,.68.38l.28.89a.49.49,0,0,1-.33.71l-.86.27-.63-2Z"/><path class="cls-1" d="M41.86,6.1c.09.59.37.83,1,.74l1.49-.22a.76.76,0,0,0,.73-1L44.4,1.18a.76.76,0,0,0-1-.74L41.92.66c-.61.09-.81.4-.72,1Zm.59-4.82.63-.1a.39.39,0,0,1,.48.38l.59,3.94a.39.39,0,0,1-.35.5l-.64.09c-.28,0-.43-.1-.47-.38l-.58-3.93A.37.37,0,0,1,42.45,1.28Z"/><path class="cls-1" d="M49.63,6.24l1.51,0c.61,0,.87-.27.87-.86L52,4a.85.85,0,0,0-.46-.8L50.12,2.4a.6.6,0,0,1-.37-.67v-.6a.39.39,0,0,1,.42-.44h.56c.29,0,.41.18.41.46v.66l.85.47L52,.91c0-.6-.24-.88-.85-.89l-1.4,0c-.62,0-.86.26-.87.86l0,1.27a.84.84,0,0,0,.44.8l1.47.82a.62.62,0,0,1,.37.67v.71c0,.28-.14.45-.43.44h-.66c-.28,0-.41-.17-.4-.45V4.27l-.85-.47,0,1.55C48.78,6,49,6.23,49.63,6.24Z"/><path class="cls-1" d="M56.29,6.7l1.46.24a.75.75,0,0,0,1-.72l.3-1.88-.92.32L58,5.82a.4.4,0,0,1-.49.38l-.63-.11c-.29,0-.38-.23-.34-.5l.64-3.93c0-.27.2-.42.48-.37l.63.1a.38.38,0,0,1,.34.51l-.23,1.41L59.27,3l.2-1.2a.75.75,0,0,0-.71-1L57.3.54c-.61-.1-.89.13-1,.72L55.59,5.7C55.49,6.29,55.69,6.6,56.29,6.7Z"/><path class="cls-1" d="M62.91,8.21l1.43.47a.74.74,0,0,0,1.09-.56l1.42-4.27a.75.75,0,0,0-.55-1.1l-1.43-.47c-.58-.2-.9,0-1.09.56L62.37,7.11A.74.74,0,0,0,62.91,8.21Zm.37-1.07,1.25-3.78a.38.38,0,0,1,.53-.29l.61.2a.38.38,0,0,1,.26.55L64.68,7.6a.39.39,0,0,1-.54.29l-.61-.2A.38.38,0,0,1,63.28,7.14Z"/><path class="cls-1" d="M69.62,10.39l1-2,1.27.66a.74.74,0,0,0,1.16-.38l.82-1.59a.74.74,0,0,0-.36-1.17L71.24,4.76v.56L68.84,10l-.47.32,1.26.65ZM72,5.89l.78.41a.49.49,0,0,1,.21.75L72.47,8a.5.5,0,0,1-.74.26L71,7.82Z"/><polygon class="cls-1" points="77.45 14.56 76.47 14.42 75.53 13.73 76.76 12.05 77.6 12.66 77.88 13.15 78.56 12.22 78.01 12.1 77.17 11.49 78.41 9.8 79.34 10.49 79.78 11.38 80.46 10.45 77.88 8.57 77.8 9.13 74.71 13.37 74.2 13.61 76.78 15.49 77.45 14.56"/><path class="cls-1" d="M83.42,16.17a.71.71,0,0,0-1,0,.7.7,0,0,0,0,1A45.52,45.52,0,0,1,95.79,49.53c0,.92,0,1.84-.08,2.73a45.51,45.51,0,0,1-8.19,23.52A46.68,46.68,0,0,1,84,80.17a.71.71,0,0,0,.53,1.19.72.72,0,0,0,.53-.24,47.88,47.88,0,0,0,3.6-4.52,47,47,0,0,0,8.44-24.26c.06-.92.09-1.87.09-2.81A46.9,46.9,0,0,0,83.42,16.17Z"/><path class="cls-1" d="M4.21,49.53A45.52,45.52,0,0,1,17.59,17.17a.7.7,0,0,0,0-1,.71.71,0,0,0-1,0,47.21,47.21,0,0,0-1.67,65,.72.72,0,0,0,.53.24A.71.71,0,0,0,16,80.17,45.72,45.72,0,0,1,4.21,49.53Z"/><path class="cls-1" d="M21.78,36a4.88,4.88,0,0,0-.75-.12,4.88,4.88,0,0,0-.12-.75,4.56,4.56,0,0,0-.56-1.43,4.56,4.56,0,0,0-.56,1.43q-.08.38-.12.75a4.75,4.75,0,0,0-.74.12,4.47,4.47,0,0,0-1.43.56,4.47,4.47,0,0,0,1.43.56c.24,0,.49.09.74.12a6.33,6.33,0,0,0,.12.74,4.47,4.47,0,0,0,.56,1.43A4.47,4.47,0,0,0,20.91,38,4.88,4.88,0,0,0,21,37.2a6.46,6.46,0,0,0,.75-.11,4.94,4.94,0,0,0,1.42-.56A4.42,4.42,0,0,0,21.78,36Z"/><path class="cls-1" d="M32,37.21a4.75,4.75,0,0,0,.12.74,4.47,4.47,0,0,0,.56,1.43A4.47,4.47,0,0,0,33.19,38a6.5,6.5,0,0,0,.12-.75,6,6,0,0,0,.74-.11,4.88,4.88,0,0,0,1.43-.56A4.38,4.38,0,0,0,34.05,36a4.57,4.57,0,0,0-.74-.12q0-.37-.12-.75a4.56,4.56,0,0,0-.56-1.43,4.56,4.56,0,0,0-.56,1.43q-.07.38-.12.75a4.88,4.88,0,0,0-.75.12,4.42,4.42,0,0,0-1.42.56,4.42,4.42,0,0,0,1.42.56Z"/><path class="cls-1" d="M32,23.13a4.75,4.75,0,0,0,.12.74,4.47,4.47,0,0,0,.56,1.43,4.47,4.47,0,0,0,.56-1.43,6.33,6.33,0,0,0,.12-.74c.25,0,.5-.07.74-.12a4.62,4.62,0,0,0,1.43-.56,4.38,4.38,0,0,0-1.43-.56,4.57,4.57,0,0,0-.74-.12q0-.37-.12-.75a4.42,4.42,0,0,0-.56-1.42A4.42,4.42,0,0,0,32.07,21q-.07.38-.12.75a4.88,4.88,0,0,0-.75.12,4.42,4.42,0,0,0-1.42.56A4.42,4.42,0,0,0,31.2,23Q31.58,23.08,32,23.13Z"/><path class="cls-1" d="M78.38,37.2q0,.38.12.75a4.47,4.47,0,0,0,.56,1.43A4.47,4.47,0,0,0,79.62,38a4.75,4.75,0,0,0,.12-.74l.75-.12a4.56,4.56,0,0,0,1.43-.56A4.56,4.56,0,0,0,80.49,36a4.88,4.88,0,0,0-.75-.12,4.88,4.88,0,0,0-.12-.75,4.56,4.56,0,0,0-.56-1.43,5.11,5.11,0,0,0-.56,1.43,6.46,6.46,0,0,0-.11.75,4.88,4.88,0,0,0-.75.12,4.47,4.47,0,0,0-1.43.56,5,5,0,0,0,1.43.56A6.29,6.29,0,0,0,78.38,37.2Z"/><path class="cls-1" d="M66.11,37.2a4.88,4.88,0,0,0,.12.75,4.47,4.47,0,0,0,.56,1.43A4.47,4.47,0,0,0,67.35,38c.05-.25.09-.49.12-.74.25,0,.49-.07.74-.12a4.47,4.47,0,0,0,1.43-.56A4.47,4.47,0,0,0,68.21,36a5,5,0,0,0-.74-.12q0-.37-.12-.75a4.82,4.82,0,0,0-.56-1.43,4.56,4.56,0,0,0-.56,1.43,4.88,4.88,0,0,0-.12.75,4.88,4.88,0,0,0-.75.12,4.42,4.42,0,0,0-1.42.56,4.94,4.94,0,0,0,1.42.56A6.46,6.46,0,0,0,66.11,37.2Z"/><path class="cls-1" d="M66.11,23.13a4.75,4.75,0,0,0,.12.74,4.47,4.47,0,0,0,.56,1.43,4.47,4.47,0,0,0,.56-1.43c.05-.25.09-.49.12-.74.25,0,.49-.07.74-.12a4.47,4.47,0,0,0,1.43-.56,4.47,4.47,0,0,0-1.43-.56,5,5,0,0,0-.74-.12q0-.37-.12-.75a4.66,4.66,0,0,0-.56-1.42A4.42,4.42,0,0,0,66.23,21a4.88,4.88,0,0,0-.12.75,4.88,4.88,0,0,0-.75.12,4.42,4.42,0,0,0-1.42.56,4.66,4.66,0,0,0,1.42.56Q65.74,23.08,66.11,23.13Z"/><path class="cls-1" d="M61.63,74.74a.74.74,0,0,0,.41-.89l-.6-2.14a2.06,2.06,0,0,0-.8-1.12l-2-1.38a2.09,2.09,0,0,0-1.18-.37H57a13,13,0,0,0,2.33-2.29h3.44a.63.63,0,0,1,.37.12L66.23,69a.64.64,0,0,1,.23.33l.72,2.73a.72.72,0,0,0,.69.53l.19,0a.71.71,0,0,0,.5-.88L67.84,69a2.09,2.09,0,0,0-.74-1.1L64,65.55a2.08,2.08,0,0,0-1.24-.42H61.51a.68.68,0,0,1-.6-1c.22-.4.41-.81.59-1.21h0l6.16-.49a.57.57,0,0,1,.47.16l4.1,3.79a.73.73,0,0,0,.48.19.71.71,0,0,0,.55-.26.73.73,0,0,0-.09-1l-4.07-3.77A2,2,0,0,0,67.59,61l-4.5.36a.68.68,0,0,1-.71-.87,19.49,19.49,0,0,0,.46-1.94.13.13,0,0,1,0-.06l8.89-1.82a.61.61,0,0,1,.44.07l3.94,2.37a.74.74,0,0,0,.37.1.71.71,0,0,0,.63-.38.73.73,0,0,0-.29-1l-3.91-2.35a2.09,2.09,0,0,0-1.47-.25l-8.88,1.82-.1-.15a1.09,1.09,0,0,1-.06-1.24c1.56-2.34,3-6.22-.7-10a.69.69,0,0,0-.13-.11,4.15,4.15,0,0,0-4.84-6.4h0l-.05,0-.07,0-.05,0-.06,0,0,.06,0,0,0,.06,0,.06,0,.06s0,.05,0,.07a.64.64,0,0,0,0,.07v.14a.13.13,0,0,0,0,.06.24.24,0,0,0,0,.08.11.11,0,0,0,0,.05l.83,2.27-2.31.12h0l-.09,0-.06,0s-.05,0-.07,0a.09.09,0,0,0-.05,0l-.07,0,0,0a.12.12,0,0,0,0,.05l0,0,0,.06s0,0,0,.06,0,0,0,.06a.31.31,0,0,0,0,.08.14.14,0,0,0,0,.06v.1s0,0,0,0h0l.05.31a4.19,4.19,0,0,0,3.95,3.64,4.08,4.08,0,0,0,2.42-.67.94.94,0,0,0,.12.18c2.9,3,2.09,6,.51,8.27a1.08,1.08,0,0,1-1.39.34l-5.68-3a3.23,3.23,0,0,0-1.52-.38H47.39a3.23,3.23,0,0,0-1.52.38l-5.68,3A1.08,1.08,0,0,1,38.8,55c-1.58-2.29-2.39-5.3.51-8.27a.94.94,0,0,0,.12-.18,4.1,4.1,0,0,0,2.27.68,4.16,4.16,0,0,0,4.15-4s0,0,0-.08v-.06s0,0,0-.08,0,0,0-.06l0-.07,0,0,0-.06a.1.1,0,0,0,0,0l-.06-.06,0,0-.07,0-.05,0s0,0-.08,0l0,0-.09,0h0l-2.31-.12.83-2.27a.11.11,0,0,0,0-.05.24.24,0,0,0,0-.08.13.13,0,0,0,0-.06v-.08a.13.13,0,0,0,0-.06.15.15,0,0,0,0-.07.19.19,0,0,0,0-.07.14.14,0,0,0,0-.06l0-.06,0-.06,0,0,0-.06-.06,0-.05,0-.07,0-.05,0h0a4.15,4.15,0,0,0-4.84,6.4.69.69,0,0,0-.13.11c-3.7,3.79-2.26,7.67-.71,10a1.07,1.07,0,0,1,0,1.24l-.1.15-8.88-1.82a2.09,2.09,0,0,0-1.47.25l-3.94,2.36a.71.71,0,0,0-.24,1,.7.7,0,0,0,.61.35.68.68,0,0,0,.36-.1l3.95-2.37a.61.61,0,0,1,.44-.07l8.89,1.82a.13.13,0,0,1,0,.06,19.49,19.49,0,0,0,.46,1.94.68.68,0,0,1-.71.87L32.41,61a2,2,0,0,0-1.55.54l-4.1,3.79a.72.72,0,0,0,0,1,.74.74,0,0,0,.53.23.75.75,0,0,0,.48-.19l4.09-3.79a.6.6,0,0,1,.48-.16l6.16.49h0c.18.4.37.81.59,1.21a.68.68,0,0,1-.6,1H37.23a2.08,2.08,0,0,0-1.24.42L32.9,67.9a2.09,2.09,0,0,0-.74,1.1l-.72,2.7a.74.74,0,0,0,.43.88.58.58,0,0,0,.26,0,.72.72,0,0,0,.69-.53l.72-2.73a.64.64,0,0,1,.23-.33l3.09-2.36a.63.63,0,0,1,.37-.12h3.44A13,13,0,0,0,43,68.84h-.5a2.09,2.09,0,0,0-1.18.37l-2,1.38a2.06,2.06,0,0,0-.8,1.12L38,73.85a.74.74,0,0,0,.41.89.65.65,0,0,0,.27.05.7.7,0,0,0,.68-.52l.62-2.17a.55.55,0,0,1,.24-.34l2-1.38a.66.66,0,0,1,.36-.11h2.89a13.63,13.63,0,0,0,4.55,1.14h.12a13.63,13.63,0,0,0,4.55-1.14H57.5a.66.66,0,0,1,.36.11l2,1.38a.55.55,0,0,1,.24.34l.62,2.17a.7.7,0,0,0,.68.52A.65.65,0,0,0,61.63,74.74Zm-3.33-29a2.72,2.72,0,0,1-2.59-1.89l1.63-.08a1.32,1.32,0,0,0,1-.6A1.36,1.36,0,0,0,58.53,42l-.61-1.66a2.34,2.34,0,0,1,.38,0,2.73,2.73,0,1,1,0,5.45ZM41.7,40.3a2.34,2.34,0,0,1,.38,0L41.47,42a1.36,1.36,0,0,0,.14,1.19,1.32,1.32,0,0,0,1,.6l1.63.08A2.73,2.73,0,1,1,41.7,40.3Zm-3.13,18a.66.66,0,0,1,.33-.71l.65-.34h0l7-3.69a1.78,1.78,0,0,1,.85-.21h5.22a1.78,1.78,0,0,1,.85.21l7,3.69h0l.65.34a.66.66,0,0,1,.33.71C60.84,61.56,58.53,69.23,50,70,41.47,69.23,39.16,61.56,38.57,58.29Z"/><path class="cls-1" d="M51.87,68a.8.8,0,0,0,.36-.09,15.65,15.65,0,0,0,6.3-6.49.71.71,0,1,0-1.27-.64,14.27,14.27,0,0,1-5.75,5.89A.71.71,0,0,0,51.87,68Z"/><path class="cls-1" d="M53,56.47l3.37,2a.69.69,0,0,0,.37.1.72.72,0,0,0,.36-1.33l-3.37-2A.72.72,0,0,0,53,56.47Z"/><path class="cls-1" d="M48.92,66.66a14.06,14.06,0,0,1-6.35-7.26l4.91-2.93a.72.72,0,1,0-.73-1.23l-5.9,3.52.18.55a15.28,15.28,0,0,0,7.18,8.58.64.64,0,0,0,.35.1.71.71,0,0,0,.36-1.33Z"/></svg>