<svg id="Layer_1" data-name="Layer 1" xmlns="http://www.w3.org/2000/svg" viewBox="0 0 100 100"><path d="M44.17,17.51a1.08,1.08,0,0,1,.74.2,1.29,1.29,0,0,1,.31,1v9.39a.72.72,0,0,0,.64.73.71.71,0,0,0,.78-.7V18.7c0-.07,0-.14,0-.21.71-.34,2.33-.93,3.15-.52a1,1,0,0,1,.51.79v9A10.63,10.63,0,0,1,48.51,30a.72.72,0,0,0,0,1,.71.71,0,0,0,.52.23.68.68,0,0,0,.48-.19,7.91,7.91,0,0,0,.72-.75.41.41,0,0,1,.63,0,3.19,3.19,0,1,0,2.63-5,3.25,3.25,0,0,0-1.25.26.35.35,0,0,1-.48-.32V18.58a2.4,2.4,0,0,0-1.29-1.88c-1.35-.68-3.29,0-4.18.41a1.81,1.81,0,0,0-.4-.47A2.48,2.48,0,0,0,44,16.1a.73.73,0,0,0-.61.81A.72.72,0,0,0,44.17,17.51Zm9.27,9.29a1.77,1.77,0,1,1-1.77,1.77,1.7,1.7,0,0,1,.08-.51l.24-.5A1.76,1.76,0,0,1,53.44,26.8Z"/><path d="M71.23,80.69a38,38,0,0,0,5.53-4.53l.3-.31,0,0,.58-.6a38.56,38.56,0,0,0,3.2-3.88,37.78,37.78,0,0,0,2.56-4.09c.57-1,1.08-2.11,1.53-3.17s.79-2,1.12-3a36.18,36.18,0,0,0,1.12-4.18c.25-1.2.44-2.42.57-3.61,0-.46.09-.91.12-1.34s0-.6,0-.87c0-.63,0-1.28,0-1.94a38.51,38.51,0,0,0-.42-5.69c-.12-.77-.26-1.54-.42-2.29a37.68,37.68,0,0,0-2.66-8,40.42,40.42,0,0,0-2.4-4.38,38,38,0,0,0-66.6,4.39,37.41,37.41,0,0,0-2.66,8c-.16.75-.3,1.52-.42,2.29A38.51,38.51,0,0,0,12,49.17c0,.66,0,1.31.05,1.93,0,.28,0,.57,0,.88s.07.88.12,1.34c.13,1.19.32,2.41.57,3.61a36.18,36.18,0,0,0,1.12,4.18c.33,1,.7,2,1.12,3s1,2.13,1.53,3.17a37.78,37.78,0,0,0,2.56,4.09,38.56,38.56,0,0,0,3.2,3.88l.58.6v0l.33.32A37.83,37.83,0,0,0,50,87.17h1.08a37.73,37.73,0,0,0,15.7-3.88A38.77,38.77,0,0,0,71.23,80.69ZM61,23.92a11,11,0,1,1-11-11A11,11,0,0,1,61,23.92ZM51,85.74H50a36.16,36.16,0,0,1-19.89-5.88.47.47,0,0,1-.2-.49,5.65,5.65,0,0,1,.84-1.9,8.14,8.14,0,0,1,1.82-1.84A8.3,8.3,0,0,0,30.23,77,6.1,6.1,0,0,0,29,78.35a16.8,16.8,0,0,1,.25-2.73,17,17,0,0,1,1-3.51,23.32,23.32,0,0,1,4-6.27,27,27,0,0,0-2.54,2.79,19.83,19.83,0,0,0-2.09,3.18,17.35,17.35,0,0,0-1.42,3.58c-.07.22-.12.45-.17.68,0,0,0,0,0,0a8.61,8.61,0,0,0-1.5-2.27,8.16,8.16,0,0,1,.82,2.47,7,7,0,0,1,.05.79.46.46,0,0,1-.76.34c-.84-.69-1.66-1.43-2.44-2.21l-.31-.31h0c-.19-.19-.38-.38-.56-.58l-.78-.86a.45.45,0,0,1-.08-.47l0-.06a5.61,5.61,0,0,1,1.24-2.09,8,8,0,0,1,2.09-1.53,8.35,8.35,0,0,0-2.53,1,6.37,6.37,0,0,0-.94.7q.06-.9.21-1.8a17,17,0,0,1,1-3.51,23.32,23.32,0,0,1,4-6.27,28,28,0,0,0-2.54,2.79A19.83,19.83,0,0,0,23,65.3a17.35,17.35,0,0,0-1.42,3.58c0,.17-.09.33-.13.5,0-.17-.06-.33-.1-.49a8.69,8.69,0,0,0-1.13-2.47A7.93,7.93,0,0,1,20.62,69a5.44,5.44,0,0,1,0,.57l-.85.2c-.7-1-1.35-2.1-1.94-3.18l-.35-.68a.44.44,0,0,1,0-.37.87.87,0,0,0,.05-.28h0c0-.18,0-.37,0-.55A5.48,5.48,0,0,1,19,63a8.14,8.14,0,0,1,2.32-1.16,8.41,8.41,0,0,0-2.66.54,5.7,5.7,0,0,0-1.07.55c0-.43.09-.87.17-1.3a16.94,16.94,0,0,1,1-3.51,23.6,23.6,0,0,1,4-6.27,28.23,28.23,0,0,0-2.55,2.79,21.28,21.28,0,0,0-2.09,3.18,17.22,17.22,0,0,0-1.21,2.9,8.52,8.52,0,0,0-.69-2.6,8,8,0,0,1,0,2.59h0a.46.46,0,0,1-.89.06l0-.1a33.64,33.64,0,0,1-1.08-4,34.93,34.93,0,0,1-.55-3.48q-.08-.66-.12-1.29c0-.3,0-.57,0-.83,0-.61-.05-1.23-.05-1.87a37,37,0,0,1,.41-5.48c.11-.74.25-1.48.4-2.21a36.69,36.69,0,0,1,2.57-7.68,36,36,0,0,1,2.31-4.22A36.38,36.38,0,0,1,43.88,13.1a12.44,12.44,0,1,0,12.24,0A36.38,36.38,0,0,1,80.9,29.58a36,36,0,0,1,2.31,4.22,36.58,36.58,0,0,1,2.57,7.69c.15.72.29,1.46.4,2.2a37,37,0,0,1,.41,5.48c0,.64,0,1.26,0,1.87,0,.27,0,.54-.05.83s-.07.86-.12,1.3c-.12,1.15-.31,2.31-.55,3.47a33.64,33.64,0,0,1-1.08,4l0,.09a.46.46,0,0,1-.89,0h0a8,8,0,0,1,0-2.59,8.52,8.52,0,0,0-.69,2.6,17.22,17.22,0,0,0-1.21-2.9,21.28,21.28,0,0,0-2.09-3.18,28.23,28.23,0,0,0-2.55-2.79,23.6,23.6,0,0,1,4,6.27,16.94,16.94,0,0,1,1,3.51c.08.43.13.87.17,1.3a5.7,5.7,0,0,0-1.07-.55,8.41,8.41,0,0,0-2.66-.54A8.14,8.14,0,0,1,81,63a5.48,5.48,0,0,1,1.49,1.7c0,.18,0,.37,0,.55h0v.07a.72.72,0,0,0,0,.21.44.44,0,0,1,0,.37l-.35.68c-.59,1.08-1.24,2.15-1.94,3.18l-.85-.2a5.44,5.44,0,0,1,0-.57,7.93,7.93,0,0,1,.42-2.56,8.69,8.69,0,0,0-1.13,2.47c0,.16-.07.32-.1.49,0-.17-.08-.33-.13-.5A17.35,17.35,0,0,0,77,65.3a19.83,19.83,0,0,0-2.09-3.18,28,28,0,0,0-2.54-2.79,23.32,23.32,0,0,1,4,6.27,17,17,0,0,1,1,3.51q.15.9.21,1.8a6.37,6.37,0,0,0-.94-.7,8.35,8.35,0,0,0-2.53-1,8,8,0,0,1,2.09,1.53,5.61,5.61,0,0,1,1.24,2.09l.08.17.09.1c-.33.38-.66.76-1,1.12l-.56.58,0,0-.28.29c-.78.77-1.6,1.51-2.44,2.2a.46.46,0,0,1-.76-.34,7,7,0,0,1,.05-.79,8.16,8.16,0,0,1,.82-2.47A8.61,8.61,0,0,0,71.94,76s0,0,0,0c0-.23-.1-.46-.17-.68a17.35,17.35,0,0,0-1.42-3.58,19.83,19.83,0,0,0-2.09-3.18,27,27,0,0,0-2.54-2.79,23.32,23.32,0,0,1,4,6.27,17,17,0,0,1,1,3.51A16.8,16.8,0,0,1,71,78.35,6.33,6.33,0,0,0,69.78,77a8.49,8.49,0,0,0-2.35-1.37,8.14,8.14,0,0,1,1.82,1.84,5.65,5.65,0,0,1,.84,1.9.47.47,0,0,1-.2.49A36.26,36.26,0,0,1,51,85.74Z"/><path d="M20.52,85.25l1.1.23.91-1.07A.86.86,0,0,0,22.42,83l-1.3-1.11a.85.85,0,0,0-1.4.13L16.36,86a.86.86,0,0,0,.1,1.41l1.3,1.1a.86.86,0,0,0,1.41-.12l1.42-1.66-1.1-.24-.87,1a.45.45,0,0,1-.7.08l-.57-.48a.45.45,0,0,1,0-.7l3-3.49a.45.45,0,0,1,.7-.09l.56.48a.45.45,0,0,1,0,.71Z"/><path d="M27.53,86.71l-4.46,5.06-.6.32,1.42.82.06-.63.61-.72L26,92.4l-.31.88-.51.37,1.43.83,0-.67,2.17-6.39Zm-1.24,4.94-1.23-.71,2.6-3.08Z"/><path d="M36.27,90.73l-2.79-1,.09.65-2,5.69-.48.43,1.54.55-.1-.64.86-2.4,1.55.55c.66.24,1,0,1.26-.62L36.86,92A.85.85,0,0,0,36.27,90.73Zm-.5,1.36-.4,1.11a.56.56,0,0,1-.8.41l-1-.34.84-2.35.95.34A.57.57,0,0,1,35.77,92.09Z"/><path d="M44.05,92.44l-3-.47.22.62-.94,6-.4.52,1.62.26-.22-.62.41-2.6.38.06c.44.07.59.28.64.74L43,99l-.23.55,1.67.26-.36-.63-.43-2.77c.52,0,.79-.34.88-1l.29-1.84C45,92.9,44.75,92.55,44.05,92.44Zm-.25,1.42-.17,1.07a.56.56,0,0,1-.71.55l-1-.16L42.27,93l1,.16C43.72,93.18,43.86,93.46,43.8,93.86Z"/><polygon points="50.56 92.81 48.92 92.8 49.23 93.38 49.2 99.42 48.88 99.99 50.52 100 50.21 99.42 50.25 93.38 50.56 92.81"/><path d="M58.55,96.07l-.9.67.19,1.34a.44.44,0,0,1-.41.57l-.73.11c-.32,0-.49-.13-.54-.44l-.64-4.54c0-.32.07-.53.4-.58l.73-.1c.32,0,.5.13.55.44l.23,1.63.9-.67-.2-1.39c-.09-.68-.42-1-1.12-.86l-1.69.24c-.7.1-.93.45-.84,1.13l.73,5.13c.09.68.41,1,1.11.86L58,99.37a.86.86,0,0,0,.85-1.13Z"/><path d="M66,91a.86.86,0,0,0-1.26-.64l-1.65.56c-.67.22-.83.61-.61,1.27l1.65,4.9c.22.66.58.87,1.25.64l1.65-.55a.86.86,0,0,0,.62-1.27Zm.3,5.59-.7.24a.44.44,0,0,1-.61-.34l-1.46-4.34c-.11-.31,0-.54.28-.64l.7-.24a.45.45,0,0,1,.62.34L66.63,96A.44.44,0,0,1,66.34,96.59Z"/><path d="M74.39,90.18c.38-.35.4-.76.09-1.31l-.91-1.61a.86.86,0,0,0-1.36-.4L69.6,88.34l.55.35,3,5.26v.65l1.43-.8L74,93.45l-1.3-2.29L73,91a.69.69,0,0,1,1,.18l1.47,1.47.16.57,1.48-.84-.68-.27ZM73.22,90l-.9.51-1.18-2.09.91-.51a.57.57,0,0,1,.86.27l.53.94A.57.57,0,0,1,73.22,90Z"/><polygon points="79.89 81.03 78.7 82.04 79.31 82.28 82.11 85.58 78.32 83.12 78.04 82.61 76.58 83.84 77.2 84.07 81.11 88.68 81.24 89.32 82.43 88.31 81.82 88.07 78.59 84.27 83.52 87.38 84.3 86.72 80.02 81.68 79.89 81.03"/><polygon points="23.12 14.98 23.2 15.54 24.34 14.71 23.83 14.47 22.5 12.64 23.66 11.8 24.99 13.62 25.07 14.18 26.2 13.35 25.69 13.11 22.62 8.9 22.55 8.34 21.41 9.17 21.92 9.41 23.25 11.25 22.09 12.09 20.76 10.26 20.68 9.7 19.54 10.53 20.05 10.78 23.12 14.98"/><path d="M28.79,10.77a.74.74,0,0,0,1.15.39l1.34-.68a.74.74,0,0,0,.37-1.16l-2-4A.75.75,0,0,0,28.48,5l-1.34.68a.74.74,0,0,0-.36,1.16Zm-1-4.72.57-.29A.38.38,0,0,1,29,6l1.78,3.52a.38.38,0,0,1-.17.58l-.57.29c-.25.13-.43,0-.56-.21L27.67,6.63A.38.38,0,0,1,27.83,6.05Z"/><path d="M35.36,8.21l-.1.55,1.34-.42L36.2,8l-.69-2.17.31-.09A.58.58,0,0,1,36.6,6l1,1.49,0,.51L39,7.57l-.53-.35-1.39-2c.38-.22.47-.56.31-1.08l-.49-1.53a.74.74,0,0,0-1.07-.57l-2.47.78.41.4Zm.17-5.32a.49.49,0,0,1,.68.38l.28.88a.5.5,0,0,1-.33.71l-.86.27-.62-2Z"/><path d="M41.92,6.05c.09.59.37.83,1,.74l1.48-.22c.61-.09.81-.4.72-1l-.65-4.41c-.09-.59-.38-.82-1-.73L42,.66c-.61.09-.8.39-.71,1Zm.58-4.78.63-.1a.39.39,0,0,1,.48.38l.58,3.91a.39.39,0,0,1-.35.5l-.63.09c-.28,0-.43-.11-.47-.38l-.58-3.9C42.12,1.49,42.22,1.31,42.5,1.27Z"/><path d="M49.63,6.2l1.5,0c.61,0,.86-.26.87-.85L52,4a.82.82,0,0,0-.45-.79l-1.45-.82a.59.59,0,0,1-.37-.66V1.13c0-.28.14-.45.42-.44h.56c.28,0,.4.17.4.45v.66l.84.47L52,.9c0-.59-.23-.87-.84-.88L49.76,0c-.61,0-.86.26-.87.85l0,1.26a.86.86,0,0,0,.44.8l1.46.81a.61.61,0,0,1,.37.67V5.1c0,.27-.14.44-.43.43h-.65c-.28,0-.41-.17-.4-.45V4.24l-.84-.46,0,1.54C48.79,5.91,49,6.19,49.63,6.2Z"/><path d="M56.25,6.65l1.45.24c.6.1.89-.13,1-.72L59,4.31l-.91.32-.19,1.15c0,.27-.2.42-.48.37l-.63-.1a.38.38,0,0,1-.33-.5l.63-3.9c0-.27.19-.42.47-.37l.63.1a.38.38,0,0,1,.34.5l-.22,1.4L59.21,3l.19-1.19a.74.74,0,0,0-.71-1L57.24.54c-.6-.1-.88.13-1,.72l-.71,4.4C55.45,6.25,55.65,6.56,56.25,6.65Z"/><path d="M62.81,8.15l1.42.47a.74.74,0,0,0,1.09-.56l1.41-4.23a.75.75,0,0,0-.54-1.1l-1.43-.47c-.58-.19-.89,0-1.08.56l-1.4,4.24A.74.74,0,0,0,62.81,8.15Zm.37-1.07,1.25-3.74c.08-.27.25-.39.52-.3l.61.2a.39.39,0,0,1,.25.56L64.57,7.54a.38.38,0,0,1-.53.29l-.61-.2C63.16,7.54,63.1,7.35,63.18,7.08Z"/><path d="M69.48,10.31l1-2L71.75,9a.74.74,0,0,0,1.16-.38l.81-1.57a.73.73,0,0,0-.35-1.16L71.09,4.72v.56L68.71,9.91l-.47.32,1.25.65Zm2.31-4.46.77.4a.49.49,0,0,1,.22.75l-.47.9a.49.49,0,0,1-.73.26l-.78-.4Z"/><polygon points="77.26 14.46 76.28 14.32 75.35 13.64 76.57 11.96 77.4 12.57 77.68 13.06 78.36 12.13 77.81 12.01 76.98 11.4 78.2 9.73 79.13 10.41 79.57 11.3 80.24 10.38 77.68 8.51 77.6 9.06 74.53 13.27 74.03 13.51 76.58 15.38 77.26 14.46"/><path d="M83.18,16.05a.71.71,0,0,0-1,1A45.19,45.19,0,0,1,95.46,49.17c0,.92,0,1.83-.08,2.71a45.13,45.13,0,0,1-8.13,23.36,44.4,44.4,0,0,1-3.47,4.35.72.72,0,0,0,0,1,.74.74,0,0,0,.48.18.69.69,0,0,0,.52-.24A46.7,46.7,0,0,0,96.8,52c0-.92.08-1.86.08-2.8A46.59,46.59,0,0,0,83.18,16.05Z"/><path d="M16.22,79.6a45.48,45.48,0,0,1,1.6-62.55.71.71,0,0,0-1-1,46.87,46.87,0,0,0-1.65,64.49.69.69,0,0,0,.52.24.74.74,0,0,0,.48-.18A.71.71,0,0,0,16.22,79.6Z"/><path d="M73.59,30.16c0,.17,0,.34.08.51a3.2,3.2,0,0,0,.38,1,2.75,2.75,0,0,0,.38-1,3,3,0,0,0,.08-.51,4.5,4.5,0,0,0,.51-.08,3.36,3.36,0,0,0,1-.38,3.1,3.1,0,0,0-1-.38,4.5,4.5,0,0,0-.51-.08,3,3,0,0,0-.08-.51,2.75,2.75,0,0,0-.38-1,3.2,3.2,0,0,0-.38,1c0,.17-.06.34-.08.51a4.33,4.33,0,0,0-.5.08,3.26,3.26,0,0,0-1,.38,3.26,3.26,0,0,0,1,.38A4.33,4.33,0,0,0,73.59,30.16Z"/><path d="M65.27,30.16a4.5,4.5,0,0,0,.08.51,3.2,3.2,0,0,0,.38,1,3,3,0,0,0,.38-1,3,3,0,0,0,.08-.51,4.5,4.5,0,0,0,.51-.08,3.2,3.2,0,0,0,1-.38,3,3,0,0,0-1-.38,4.5,4.5,0,0,0-.51-.08,4.5,4.5,0,0,0-.08-.51,3.2,3.2,0,0,0-.38-1,3.2,3.2,0,0,0-.38,1,4.5,4.5,0,0,0-.08.51,4.5,4.5,0,0,0-.51.08,3.2,3.2,0,0,0-1,.38,3.2,3.2,0,0,0,1,.38A4.5,4.5,0,0,0,65.27,30.16Z"/><path d="M65.27,20.62a4.71,4.71,0,0,0,.08.5,3.26,3.26,0,0,0,.38,1,3,3,0,0,0,.38-1,2.89,2.89,0,0,0,.08-.5l.51-.08a3.2,3.2,0,0,0,1-.38,2.75,2.75,0,0,0-1-.38,4.54,4.54,0,0,0-.51-.09,4.71,4.71,0,0,0-.08-.5,3.26,3.26,0,0,0-.38-1,3.26,3.26,0,0,0-.38,1,4.5,4.5,0,0,0-.08.51,3,3,0,0,0-.51.08,2.75,2.75,0,0,0-1,.38,2.93,2.93,0,0,0,1,.37A4.54,4.54,0,0,0,65.27,20.62Z"/><path d="M26,31.63a3.2,3.2,0,0,0,.38-1c0-.17.06-.34.08-.51a4.33,4.33,0,0,0,.5-.08,3.26,3.26,0,0,0,1-.38,3.26,3.26,0,0,0-1-.38,4.71,4.71,0,0,0-.5-.08c0-.17-.05-.34-.08-.51a3.2,3.2,0,0,0-.38-1,2.75,2.75,0,0,0-.38,1,3,3,0,0,0-.08.51,4.5,4.5,0,0,0-.51.08,3.1,3.1,0,0,0-1,.38,3.36,3.36,0,0,0,1,.38,4.71,4.71,0,0,0,.5.08,4.54,4.54,0,0,0,.09.51A2.75,2.75,0,0,0,26,31.63Z"/><path d="M33.81,30.16a3,3,0,0,0,.08.51,3,3,0,0,0,.38,1,3.2,3.2,0,0,0,.38-1,4.5,4.5,0,0,0,.08-.51,4.5,4.5,0,0,0,.51-.08,3.2,3.2,0,0,0,1-.38,3.2,3.2,0,0,0-1-.38,4.5,4.5,0,0,0-.51-.08,4.5,4.5,0,0,0-.08-.51,3.2,3.2,0,0,0-.38-1,3.2,3.2,0,0,0-.38,1,4.5,4.5,0,0,0-.08.51,4.5,4.5,0,0,0-.51.08,3,3,0,0,0-1,.38,3.2,3.2,0,0,0,1,.38A4.5,4.5,0,0,0,33.81,30.16Z"/><path d="M33.81,20.62a2.89,2.89,0,0,0,.08.5,3,3,0,0,0,.38,1,3.26,3.26,0,0,0,.38-1,4.71,4.71,0,0,0,.08-.5,4.54,4.54,0,0,0,.51-.09,2.93,2.93,0,0,0,1-.37,2.75,2.75,0,0,0-1-.38,3,3,0,0,0-.51-.08,4.5,4.5,0,0,0-.08-.51,3.26,3.26,0,0,0-.38-1,3.26,3.26,0,0,0-.38,1,4.71,4.71,0,0,0-.08.5,4.54,4.54,0,0,0-.51.09,2.75,2.75,0,0,0-1,.38,3.2,3.2,0,0,0,1,.38Z"/><path d="M69,54.15a1.29,1.29,0,0,0,.6-1.28,1.31,1.31,0,0,0-.94-1.07l-9.2-2.58-.29-.65,0,0,0-.09c.54-1.15,3.35-6.15,13-10.33l1.93-.83-2-.51a17.39,17.39,0,0,0-6.45,0,27.68,27.68,0,0,0-14.2,7.44,9.27,9.27,0,0,1-1.28,0H48.57a27.64,27.64,0,0,0-14.15-7.39,17.37,17.37,0,0,0-6.45,0l-2,.51,1.93.83c9.67,4.18,12.49,9.16,13,10.32a.91.91,0,0,0-.07.14l-.29.65-9.25,2.6a1.3,1.3,0,0,0-.38,2.33L38.06,59a10.7,10.7,0,0,0,1,5.39c.6,1.16,1.2,2.1,1.77,3a14.61,14.61,0,0,1,2.85,8.12c.22,3.43,1.33,6,3.13,7.12a3.84,3.84,0,0,0,2.09.63A3.64,3.64,0,0,0,50,83.09a3.64,3.64,0,0,0,1.12.18,3.84,3.84,0,0,0,2.09-.63c1.8-1.16,2.91-3.69,3.13-7.12a14.61,14.61,0,0,1,2.85-8.12c.57-.9,1.17-1.84,1.77-3a10.94,10.94,0,0,0,1-5.76Zm-6.66-.09,4.52-.22-5.11,3.23c-.09-.61-.2-1.21-.33-1.79A1,1,0,0,1,62.34,54.06Zm3.45-1.59-5.05.25c0-.13-.08-.26-.13-.39a.81.81,0,0,1,1-1Zm-.05-14.28a19.39,19.39,0,0,1,3.47-.28c-5.76,2.87-8.75,5.94-10.22,8a1,1,0,0,1-1.57.07,4.8,4.8,0,0,0-3.8-1.83c.65-.55,1.3-1.05,1.94-1.51l0,.07,1.62,1.67a.68.68,0,0,0,.51.22.73.73,0,0,0,.47-.18.74.74,0,0,0,0-1l-1.48-1.53c.69-.45,1.36-.84,2-1.19l1.35,1.49a.69.69,0,0,0,.53.24.69.69,0,0,0,.46-.18.75.75,0,0,0,0-1L60.08,40a24.41,24.41,0,0,1,3-1.15l.69,1a.7.7,0,0,0,.58.3.69.69,0,0,0,.43-.14.74.74,0,0,0,.14-1l-.39-.56C65,38.34,65.35,38.26,65.74,38.19Zm-34.95-.28a19.39,19.39,0,0,1,3.47.28c.35.06.72.14,1.11.23L35,39a.74.74,0,0,0,.13,1,.72.72,0,0,0,.44.14.7.7,0,0,0,.58-.3l.71-1a23,23,0,0,1,3,1.14l-1.1,1.21a.74.74,0,0,0,0,1,.69.69,0,0,0,.46.18.69.69,0,0,0,.53-.24l1.39-1.54c.66.35,1.34.74,2,1.18l-1.53,1.59a.74.74,0,0,0,0,1,.69.69,0,0,0,.47.18.68.68,0,0,0,.51-.22l1.62-1.67a.51.51,0,0,0,.09-.13c.69.48,1.38,1,2.08,1.61H46A5.17,5.17,0,0,0,42.53,46,1,1,0,0,1,41,45.86C39.51,43.83,36.53,40.77,30.79,37.91Zm8.47,14.81-5-.25,4.18-1.17a.81.81,0,0,1,1,1C39.34,52.46,39.3,52.59,39.26,52.72ZM33,53.83l4.71.23a1,1,0,0,1,.92,1.21c-.15.7-.28,1.41-.37,2.13Zm26.76,9.91c-.58,1.11-1.16,2-1.72,2.9a16,16,0,0,0-3.07,8.79c-.18,2.93-1.08,5.12-2.48,6a2.31,2.31,0,0,1-2.17.25.74.74,0,0,0-.25,0h0a.75.75,0,0,0-.26,0,2.31,2.31,0,0,1-2.17-.25c-1.4-.89-2.3-3.08-2.48-6A16,16,0,0,0,42,66.64c-.56-.88-1.14-1.79-1.72-2.9-1.89-3.63-.2-10.12,1.83-14.58,1.58-3.47,3.79-3.57,3.88-3.57h4a14.87,14.87,0,0,0,2.41,0c2.07-.13,3.43-.22,5.5,3.59C59.91,53.64,61.6,60.12,59.71,63.74Z"/><path d="M55.27,63.3c.24.33,1.21,0,2.18-.69s1.54-1.55,1.3-1.88-1.22,0-2.18.69S55,63,55.27,63.3Z"/><path d="M43.43,61.42c-1-.71-1.93-1-2.18-.69s.34,1.17,1.3,1.88,1.94,1,2.18.69S44.39,62.13,43.43,61.42Z"/><path d="M46.66,47.8a5.16,5.16,0,0,0-3.11,2,6.06,6.06,0,0,0,0,7.32,5.25,5.25,0,0,0,3.11,2,8.19,8.19,0,0,1-2.18-2.6,6.77,6.77,0,0,1-.74-3.06,6.62,6.62,0,0,1,.75-3.06A7.92,7.92,0,0,1,46.66,47.8Z"/><path d="M56.45,57.12a6.06,6.06,0,0,0,0-7.32,5.16,5.16,0,0,0-3.11-2,8.08,8.08,0,0,1,2.18,2.6,6.73,6.73,0,0,1,.74,3.06,6.65,6.65,0,0,1-.75,3.06,8.13,8.13,0,0,1-2.17,2.6A5.25,5.25,0,0,0,56.45,57.12Z"/></svg>