<svg id="Layer_1" data-name="Layer 1" xmlns="http://www.w3.org/2000/svg" viewBox="0 0 100 100"><defs><style>.cls-1{fill:#1d1d1b;}</style></defs><path class="cls-1" d="M46.14,30.6A3.84,3.84,0,0,0,48,23.39c.19-.36.37-.7.52-1h0A10,10,0,0,0,49.24,20a2.31,2.31,0,0,1,.8-1.44A2.51,2.51,0,0,1,51.48,18a1.91,1.91,0,0,1,1.69.84,1.88,1.88,0,0,1,.2,1.75c-1.36,3.5-1.24,6.3-.84,7.24a2.87,2.87,0,0,0,2.54,1.86,2.94,2.94,0,0,0,.51-.05c.54-.13,2.29-.81,2.1-4.36a.7.7,0,1,0-1.4.08c.11,1.95-.45,2.78-1,2.91a1.42,1.42,0,0,1-1.45-1c-.16-.38-.52-2.68.85-6.19a3.31,3.31,0,0,0-3.08-4.5h-.2a3.86,3.86,0,0,0-2.22.85,3.67,3.67,0,0,0-1.3,2.28A10,10,0,0,1,46.61,23l-.47,0a3.84,3.84,0,0,0,0,7.67Zm0-6.28a2.44,2.44,0,1,1-2.43,2.44A2.44,2.44,0,0,1,46.14,24.32Z"/><path class="cls-1" d="M85.61,60.29a36.81,36.81,0,0,0,1.1-4.13,34,34,0,0,0,.56-3.55c0-.45.09-.9.12-1.33s0-.59,0-.85c0-.62,0-1.27,0-1.92a38.8,38.8,0,0,0-.41-5.61c-.12-.76-.26-1.52-.42-2.26a37.48,37.48,0,0,0-5-12.21,37.51,37.51,0,0,0-63.34,0,37.48,37.48,0,0,0-5,12.21c-.16.74-.3,1.5-.42,2.26a38.8,38.8,0,0,0-.41,5.61c0,.65,0,1.3.05,1.91,0,.27,0,.55,0,.86s.07.87.12,1.32a33.73,33.73,0,0,0,.56,3.56,36.81,36.81,0,0,0,1.1,4.13c.32,1,.69,2,1.1,2.92s1,2.1,1.52,3.13a37.23,37.23,0,0,0,2.52,4,36.53,36.53,0,0,0,3.16,3.83l.57.6.34.33a36.88,36.88,0,0,0,5.45,4.48,36.32,36.32,0,0,0,4.39,2.55l.61.29h0A37.07,37.07,0,0,0,50,86h1.07a37,37,0,0,0,15.48-3.83A35.69,35.69,0,0,0,71,79.61a37.45,37.45,0,0,0,5.45-4.47l.32-.33h0l.57-.6a36.53,36.53,0,0,0,3.16-3.83,37.23,37.23,0,0,0,2.52-4c.56-1,1.07-2.08,1.52-3.13S85.29,61.26,85.61,60.29ZM60.88,23.6A10.88,10.88,0,1,1,50,12.72,10.89,10.89,0,0,1,60.88,23.6ZM30.14,56.44a17.87,17.87,0,0,1-7-4.79,22,22,0,0,0,11-3.4c2.38-1.57,4.36-2.08,5.88-1.53a4.26,4.26,0,0,1,2.33,2.57.64.64,0,0,0,.2.31l-.37.31h0a1.34,1.34,0,0,1-1.43.23,19.38,19.38,0,0,0-5.95-1.75.7.7,0,0,0-.72.48,5.63,5.63,0,0,0-.21,1.63,15,15,0,0,1-3.6,6Zm-1.61-7.16-3-2.18c-1.82-1.33-1-3.88.16-6.6l0-.1a4.73,4.73,0,0,0,1.4,1.67c1.58,1.18,4,1.49,7.07.91,7.32-1.34,10.15,2.3,11.16,4.45a.76.76,0,0,1-.52,1.06,4.57,4.57,0,0,0-1.16.4,5.62,5.62,0,0,0-3.18-3.47c-2-.73-4.35-.17-7.14,1.66a19.15,19.15,0,0,1-4.79,2.24ZM51,45a1.13,1.13,0,0,1-2,0,23.53,23.53,0,0,0-4.24-5.83l-.6-.53a14.74,14.74,0,0,1,11.4.24l-.32.29A23.28,23.28,0,0,0,51,45Zm-7.21-4.82A25.78,25.78,0,0,1,49.24,49a.71.71,0,0,0,.47.78.57.57,0,0,0,.22,0H50a.57.57,0,0,0,.22,0,.71.71,0,0,0,.47-.78,25.62,25.62,0,0,1,5.47-8.79,8,8,0,0,1,9.58-1.11l4.49,2.63A11,11,0,0,1,66,41.61c-5.89-1.08-9.19.86-10.92,2.68a9.63,9.63,0,0,0-2.37,4.31s0,0,0,0a5.19,5.19,0,0,0-2,1.29.71.71,0,0,0-.06.91.7.7,0,0,0,1.08,0c.23-.25,2.36-2.41,5.16.06a14.17,14.17,0,0,1,4.17,7.4,12.3,12.3,0,0,1-2.94,10.75.73.73,0,0,0-.16.45,11.22,11.22,0,0,1-.07,1.28.69.69,0,0,0,0,.47c-.15,1.14-.44,2.13-.8,2.31a4.1,4.1,0,0,0-1,.69c-.35.32-.54.49-2.11.2-1.06-.2-1.87-.39-2.46-.54a1.19,1.19,0,0,1-.88-1.14V71.14a1.12,1.12,0,0,1,.35-.81l1.37-1.27a.73.73,0,0,0,.08-1,.7.7,0,0,0-1-.06l-.74.69a1.11,1.11,0,0,1-1.5,0L48.44,68a.71.71,0,0,0-1,.06.74.74,0,0,0,.09,1l1.37,1.27a1.12,1.12,0,0,1,.35.81v1.72A1.2,1.2,0,0,1,48.34,74c-.57.14-1.33.32-2.31.5-1.57.29-1.76.12-2.11-.2a4.1,4.1,0,0,0-1-.69c-.38-.19-.68-1.27-.82-2.5,0,0,0-.06,0-.09A12.21,12.21,0,0,1,42,69.56a.73.73,0,0,0-.16-.45,12.3,12.3,0,0,1-2.94-10.75A14.17,14.17,0,0,1,43.09,51c2.8-2.47,4.93-.31,5.16-.06a.7.7,0,1,0,1-.95,4.93,4.93,0,0,0-2-1.31v0a9.63,9.63,0,0,0-2.37-4.31c-1.73-1.82-5-3.76-10.92-2.68a11,11,0,0,1-4.25.09l4.49-2.63A8,8,0,0,1,43.77,40.18ZM68.09,63.9a17.56,17.56,0,0,0-5.07-4,1,1,0,0,0-.33-.06,11.2,11.2,0,0,0-.25-1.74.59.59,0,0,0,0-.13,1.41,1.41,0,0,1,.52-1.43l.45-.36a.62.62,0,0,0,.2.15s3.88,2,7.43,9.15c1,2.1,2.29,3.21,3.7,3.29a3.27,3.27,0,0,0,1.94-.55,6.32,6.32,0,0,1-4.35,4A18.7,18.7,0,0,0,68.09,63.9ZM65,81.37a31.78,31.78,0,0,1-3,1.2.8.8,0,0,1-1.06-.87A18.83,18.83,0,0,0,59.3,71.1c.05-.5.07-.95.07-1.29a15.28,15.28,0,0,0,1.37-1.93.87.87,0,0,1,1.49,0C63.84,70.53,66.24,75.7,65,81.37ZM56,84.11a.79.79,0,0,1-.92-.84,15.88,15.88,0,0,0-.27-4.3.78.78,0,0,0-.09-.21,12.1,12.1,0,0,0,1-.83,3.09,3.09,0,0,0,1.07-2.39l.23-.19a2.4,2.4,0,0,1,.66-.48,2.46,2.46,0,0,0,1.09-1.35,17.59,17.59,0,0,1,.39,9.92C58.13,83.71,57.07,83.93,56,84.11Zm-5.86-5.52a1.13,1.13,0,0,0-.3,0c-2,.35-3.1-.3-4.63-1.7a1.79,1.79,0,0,1-.55-.84h.11a8,8,0,0,0,1.5-.17,30.84,30.84,0,0,0,3.17-.73,2.05,2.05,0,0,1,1.1,0,30.84,30.84,0,0,0,3.17.73,8,8,0,0,0,1.5.17h.11a1.79,1.79,0,0,1-.55.84C53.25,78.29,52.11,78.94,50.15,78.59ZM44,84.11c-1.07-.18-2.12-.41-3.16-.68a17.62,17.62,0,0,1,.42-10,2.49,2.49,0,0,0,1.11,1.41,2.4,2.4,0,0,1,.66.48l.23.19a3.09,3.09,0,0,0,1.07,2.39,11.47,11.47,0,0,0,1,.81.8.8,0,0,0-.1.23,15.83,15.83,0,0,0-.27,4.29A.8.8,0,0,1,44,84.11Zm-9-2.76c-1.28-5.69,1.16-10.87,2.76-13.52a.87.87,0,0,1,1.49,0,15.74,15.74,0,0,0,1.39,2c0,.32,0,.75.06,1.22A18.85,18.85,0,0,0,39,81.69a.79.79,0,0,1-1.06.86Q36.46,82,35,81.35Zm.24-30.64v-.15a3.67,3.67,0,0,1,0-.7,20,20,0,0,1,5.32,1.75,16,16,0,0,0-2.32,4.07A6.33,6.33,0,0,1,35.23,50.71Zm29.52.13v0a6.39,6.39,0,0,1-3,4.81,16,16,0,0,0-2.32-4.07,20,20,0,0,1,5.32-1.75,4.15,4.15,0,0,1,0,.55A.7.7,0,0,0,64.75,50.84ZM71.63,63.6c-3.2-5.87-6.45-8-7.25-8.45a7.21,7.21,0,0,0,1.26-2,13.5,13.5,0,0,0,4.73,5.68c1.36.86,4.52.75,6.45.58C75.53,61.12,73.36,63.55,71.63,63.6Zm-1.92-7.1a14.85,14.85,0,0,1-3.56-5.87,5.66,5.66,0,0,0-.21-1.76.7.7,0,0,0-.72-.48,19.38,19.38,0,0,0-5.95,1.75,1.34,1.34,0,0,1-1.43-.23h0c-.13-.12-.26-.22-.39-.32a.69.69,0,0,0,.18-.31,4.21,4.21,0,0,1,2.32-2.55c1.52-.56,3.5,0,5.89,1.52a21.85,21.85,0,0,0,10.94,3.4,17.76,17.76,0,0,1-7,4.79Zm1.68-7.18a19.15,19.15,0,0,1-4.79-2.24c-2.79-1.83-5.19-2.39-7.15-1.66a5.56,5.56,0,0,0-3.16,3.45,5.11,5.11,0,0,0-1.16-.39.76.76,0,0,1-.53-1.06c1-2.15,3.85-5.78,11.16-4.44,3.11.57,5.49.27,7.07-.91a4.84,4.84,0,0,0,1.4-1.67l0,.1c1.12,2.72,2,5.27.16,6.6l-3,2.18S71.4,49.31,71.39,49.32Zm-37,3.75a7.32,7.32,0,0,0,1.25,2.07c-.74.42-4,2.52-7.27,8.46-1.73-.05-3.9-2.49-5.2-4.23,1.94.17,5.1.28,6.46-.58A13.78,13.78,0,0,0,34.35,53.07ZM28.93,65.46c3.55-7.12,7.39-9.12,7.44-9.15a.62.62,0,0,0,.22-.17l.47.38A1.41,1.41,0,0,1,37.58,58a.59.59,0,0,0,0,.13,12.5,12.5,0,0,0-.26,1.74.76.76,0,0,0-.36.06,17.56,17.56,0,0,0-5.07,4,18.6,18.6,0,0,0-4.22,8.27,6.32,6.32,0,0,1-4.35-4,3.25,3.25,0,0,0,1.94.55C26.64,68.67,27.89,67.56,28.93,65.46Zm-.39,12.08A17.6,17.6,0,0,1,36,62.06a.86.86,0,0,1,1.35.6A13.7,13.7,0,0,0,38,65.09h0c-.24.29-5.17,6.34-4.68,14a.8.8,0,0,1-1.19.75c-.76-.44-1.51-.91-2.24-1.4C29.4,78.16,29,77.85,28.54,77.54Zm22.49,7H50a35.07,35.07,0,0,1-3.56-.18,13.93,13.93,0,0,1,0-4.91,5.18,5.18,0,0,0,2.37.56A6.94,6.94,0,0,0,50,80a6.94,6.94,0,0,0,1.17.1,5.12,5.12,0,0,0,2.33-.54,13.89,13.89,0,0,1,0,4.9Q52.27,84.56,51,84.59Zm19.14-6.14c-.74.5-1.51,1-2.28,1.42a.79.79,0,0,1-1.19-.74c.49-7.55-4.29-13.55-4.66-14a12.79,12.79,0,0,0,.57-2.44A.87.87,0,0,1,64,62.09a17.42,17.42,0,0,1,3.11,2.79,17.73,17.73,0,0,1,4.34,12.68h0C71,77.87,70.59,78.17,70.17,78.45Zm13-15.79a33.31,33.31,0,0,1-1.46,3,35.46,35.46,0,0,1-5.47,7.57c-.18.2-.36.39-.55.58h0l-.31.31c-.44.44-.9.87-1.36,1.28a.8.8,0,0,1-1.32-.53c0-.46-.1-.91-.17-1.34a8,8,0,0,0,5.9-7.4.69.69,0,0,0-.58-.68.72.72,0,0,0-.71.32c-.32.47-1.33,1.63-2.38,1.56S72.87,66,72.31,64.91c3.16-.69,6.17-5.43,6.55-6a.7.7,0,0,0-.7-1.06c-2.13.3-5.93.51-7-.2l-.18-.12a19,19,0,0,0,7-5.08A1.43,1.43,0,0,0,78.53,51c-.08-.3-.37-.8-1.39-.78a19.37,19.37,0,0,1-4-.48l2.13-1.55c2.86-2.09,1.26-5.95.31-8.27A11.74,11.74,0,0,1,75,38.42a.84.84,0,0,0-1.65.1A3.44,3.44,0,0,1,72,40.94l-.21.14a.61.61,0,0,0-.24-.24l-5.07-3a9.46,9.46,0,0,0-9.69.09c-5.72-3.12-11.52-1.35-14.07-.26a9.45,9.45,0,0,0-9.24.17l-5.07,3a.72.72,0,0,0-.25.24l-.2-.14a3.47,3.47,0,0,1-1.34-2.38.87.87,0,0,0-.7-.78.85.85,0,0,0-1,.64A11.74,11.74,0,0,1,24.4,40c-.95,2.32-2.55,6.18.31,8.27l2.13,1.55a18.63,18.63,0,0,1-4,.48c-1,0-1.3.48-1.38.78A1.41,1.41,0,0,0,22,52.41a19,19,0,0,0,7,5.08l-.18.12c-1.11.71-4.91.5-7,.2a.73.73,0,0,0-.68.31.7.7,0,0,0,0,.75c.38.61,3.39,5.35,6.55,6-.56,1.1-1.43,2.38-2.49,2.44s-2.09-1.12-2.39-1.58a.7.7,0,0,0-1.29.38,8,8,0,0,0,5.9,7.4c-.06.42-.12.86-.16,1.3a.8.8,0,0,1-1.33.53c-.44-.4-.88-.82-1.31-1.24-.11-.11-.22-.21-.32-.32s-.37-.38-.55-.58a35.46,35.46,0,0,1-5.47-7.57c-.54-1-1-2-1.46-3s-.75-1.87-1.06-2.81a36.74,36.74,0,0,1-1.06-4,33.92,33.92,0,0,1-.54-3.43c0-.43-.09-.86-.12-1.27s0-.56-.05-.83c0-.59,0-1.21,0-1.84a36,36,0,0,1,.41-5.4c.11-.74.24-1.47.39-2.18a36.11,36.11,0,0,1,2.53-7.58,37.32,37.32,0,0,1,2.28-4.17,36,36,0,0,1,20.61-15.4.89.89,0,0,1,.9,1.46,12.28,12.28,0,1,0,18,0,.9.9,0,0,1,.9-1.47,36,36,0,0,1,20.61,15.4,37.32,37.32,0,0,1,2.28,4.17,36.11,36.11,0,0,1,2.53,7.58c.15.71.28,1.44.39,2.18a36,36,0,0,1,.41,5.4c0,.63,0,1.25,0,1.85,0,.26,0,.53,0,.82s-.07.84-.12,1.27a33.92,33.92,0,0,1-.54,3.43,36.74,36.74,0,0,1-1.06,4C84,60.79,83.61,61.73,83.22,62.66Z"/><polygon class="cls-1" points="27.2 82.34 22.17 90.71 21.26 91.25 26.1 94.16 27.2 92.32 25.33 92.21 23.75 91.26 28.61 83.19 29.51 82.65 27.25 81.29 27.2 82.34"/><polygon class="cls-1" points="46.57 89.19 46.35 98.95 45.83 99.87 51.77 100 51.82 97.86 50.16 98.69 48 98.64 48.09 94.75 50.02 94.8 50.97 95.25 51.02 93.09 50.04 93.5 48.12 93.46 48.2 89.58 50.36 89.62 51.99 90.52 52.03 88.38 46.09 88.25 46.57 89.19"/><path class="cls-1" d="M73.19,83a1.39,1.39,0,0,0-2.2-.61l-2.44,1.39A1.38,1.38,0,0,0,68,86l4.15,7.27a1.38,1.38,0,0,0,2.19.62l2.44-1.4a1.39,1.39,0,0,0,.59-2.21Zm2.23,8.77-1,.59A.71.71,0,0,1,73.31,92l-3.68-6.43a.71.71,0,0,1,.25-1.1l1-.59a.73.73,0,0,1,1.09.33l3.68,6.43A.72.72,0,0,1,75.42,91.76Z"/><polygon class="cls-1" points="23.48 14.78 23.56 15.33 24.68 14.51 24.18 14.27 22.87 12.47 24.01 11.64 25.32 13.44 25.4 13.99 26.52 13.17 26.01 12.93 22.99 8.78 22.92 8.23 21.79 9.05 22.29 9.29 23.61 11.1 22.47 11.93 21.15 10.12 21.07 9.57 19.95 10.39 20.45 10.63 23.48 14.78"/><path class="cls-1" d="M29.08,10.63a.72.72,0,0,0,1.13.38l1.32-.67A.73.73,0,0,0,31.9,9.2l-2-3.93a.73.73,0,0,0-1.14-.38l-1.32.67a.72.72,0,0,0-.36,1.14ZM28.13,6l.56-.29a.38.38,0,0,1,.56.21L31,9.36a.38.38,0,0,1-.17.58l-.56.28c-.25.13-.43,0-.55-.21L28,6.54A.37.37,0,0,1,28.13,6Z"/><path class="cls-1" d="M35.56,8.1l-.1.55,1.32-.42-.4-.39-.67-2.13.3-.1c.37-.12.56,0,.77.31l1,1.48,0,.51,1.37-.44-.51-.35L37.27,5.18c.38-.22.47-.56.31-1.06L37.1,2.61c-.18-.56-.49-.75-1.06-.57l-2.43.78.4.38Zm.17-5.25a.48.48,0,0,1,.67.37l.27.88a.48.48,0,0,1-.33.69l-.84.27-.61-1.94Z"/><path class="cls-1" d="M42,6c.09.58.36.82,1,.73l1.46-.22a.73.73,0,0,0,.71-1l-.65-4.36a.73.73,0,0,0-1-.72L42.09.65c-.6.09-.79.39-.71,1Zm.57-4.72.62-.09a.38.38,0,0,1,.47.37l.58,3.85a.39.39,0,0,1-.35.5L43.3,6c-.27,0-.42-.1-.46-.37l-.57-3.86C42.23,1.47,42.32,1.29,42.6,1.25Z"/><path class="cls-1" d="M49.64,6.12l1.47,0c.61,0,.85-.26.86-.84l0-1.37a.82.82,0,0,0-.45-.77l-1.43-.81a.59.59,0,0,1-.37-.65V1.11c0-.27.14-.43.42-.43h.55c.28,0,.4.17.39.44v.66l.83.46L52,.89c0-.58-.23-.86-.84-.87L49.76,0c-.6,0-.84.26-.85.84l0,1.24a.82.82,0,0,0,.43.79l1.44.8a.6.6,0,0,1,.36.66V5a.38.38,0,0,1-.41.43h-.65a.38.38,0,0,1-.4-.44l0-.83-.83-.45,0,1.52C48.8,5.83,49,6.11,49.64,6.12Z"/><path class="cls-1" d="M56.16,6.57l1.44.23a.73.73,0,0,0,1-.71l.3-1.84-.9.32L57.78,5.7a.38.38,0,0,1-.47.37L56.69,6c-.28,0-.37-.23-.33-.5L57,1.63c0-.27.19-.42.46-.37l.62.1a.39.39,0,0,1,.34.5l-.23,1.38.9-.32.2-1.18a.74.74,0,0,0-.7-1L57.15.53c-.6-.1-.87.13-1,.71l-.71,4.35C55.38,6.16,55.57,6.47,56.16,6.57Z"/><path class="cls-1" d="M62.64,8,64,8.5A.74.74,0,0,0,65.12,8L66.5,3.78A.73.73,0,0,0,66,2.7l-1.4-.47c-.58-.19-.88,0-1.07.55L62.12,7C61.93,7.52,62.07,7.85,62.64,8ZM63,7l1.22-3.7c.09-.26.26-.38.52-.29l.6.2a.37.37,0,0,1,.25.54l-1.22,3.7a.39.39,0,0,1-.53.29l-.6-.2A.37.37,0,0,1,63,7Z"/><path class="cls-1" d="M69.22,10.17l1-1.92,1.24.64a.73.73,0,0,0,1.14-.37L73.4,7a.73.73,0,0,0-.35-1.15L70.81,4.66v.55L68.46,9.78l-.46.31,1.23.64Zm2.28-4.4.76.4a.48.48,0,0,1,.21.74L72,7.8a.48.48,0,0,1-.72.25l-.76-.39Z"/><polygon class="cls-1" points="76.89 14.27 75.93 14.12 75.01 13.45 76.22 11.8 77.03 12.4 77.31 12.88 77.98 11.97 77.44 11.85 76.62 11.25 77.83 9.6 78.74 10.27 79.17 11.15 79.84 10.24 77.31 8.39 77.23 8.94 74.2 13.09 73.7 13.33 76.23 15.18 76.89 14.27"/><path class="cls-1" d="M82.73,15.84a.69.69,0,0,0-1,0,.7.7,0,0,0,0,1A44.55,44.55,0,0,1,94.85,48.51c0,.9,0,1.8-.08,2.68a44.24,44.24,0,0,1-2.21,11.52,44.77,44.77,0,0,1-5.81,11.53,45.61,45.61,0,0,1-3.42,4.29.7.7,0,0,0,.52,1.17.71.71,0,0,0,.52-.23A50.4,50.4,0,0,0,87.9,75a45.93,45.93,0,0,0,8.27-23.77c0-.9.08-1.83.08-2.76A45.92,45.92,0,0,0,82.73,15.84Z"/><path class="cls-1" d="M5.15,48.51A44.55,44.55,0,0,1,18.26,16.82a.7.7,0,0,0,0-1,.69.69,0,0,0-1,0,46.26,46.26,0,0,0-1.64,63.63.71.71,0,0,0,.52.23.7.7,0,0,0,.52-1.17A44.74,44.74,0,0,1,5.15,48.51Z"/><path class="cls-1" d="M76.85,31.48a3.5,3.5,0,0,0-.09-.55,3.32,3.32,0,0,0-.41-1.06,3.6,3.6,0,0,0-.42,1.06,3.47,3.47,0,0,0-.08.55,5.43,5.43,0,0,0-.56.09,3.6,3.6,0,0,0-1.06.42,3.32,3.32,0,0,0,1.06.41,5.25,5.25,0,0,0,.55.09,5.43,5.43,0,0,0,.09.56,3.71,3.71,0,0,0,.42,1.06,3.71,3.71,0,0,0,.42-1.06,3.6,3.6,0,0,0,.08-.56,2.72,2.72,0,0,0,.56-.09A3.41,3.41,0,0,0,78.47,32a3.44,3.44,0,0,0-1.06-.42A5.43,5.43,0,0,0,76.85,31.48Z"/><path class="cls-1" d="M67.74,31.48a5.25,5.25,0,0,0-.09-.55,3.6,3.6,0,0,0-.42-1.06,3.32,3.32,0,0,0-.41,1.06,5.25,5.25,0,0,0-.09.55,5.43,5.43,0,0,0-.56.09,3.71,3.71,0,0,0-1.06.42,3.41,3.41,0,0,0,1.06.41,5.43,5.43,0,0,0,.56.09,3.63,3.63,0,0,0,.09.56,3.41,3.41,0,0,0,.41,1.06,3.44,3.44,0,0,0,.42-1.06,5.43,5.43,0,0,0,.09-.56,3.5,3.5,0,0,0,.55-.09A3.32,3.32,0,0,0,69.35,32a3.35,3.35,0,0,0-1.06-.42A5.25,5.25,0,0,0,67.74,31.48Z"/><path class="cls-1" d="M67.74,21a5.43,5.43,0,0,0-.09-.56,3.55,3.55,0,0,0-.42-1,3.27,3.27,0,0,0-.41,1,5.43,5.43,0,0,0-.09.56,5.43,5.43,0,0,0-.56.09,3.41,3.41,0,0,0-1.06.41,3.44,3.44,0,0,0,1.06.42,5.43,5.43,0,0,0,.56.09,3.5,3.5,0,0,0,.09.55,3.32,3.32,0,0,0,.41,1.06,3.35,3.35,0,0,0,.42-1.06,5.25,5.25,0,0,0,.09-.55,5.25,5.25,0,0,0,.55-.09,3.13,3.13,0,0,0,1.06-.42,3.32,3.32,0,0,0-1.06-.41A3.5,3.5,0,0,0,67.74,21Z"/><path class="cls-1" d="M24.15,31.48a3.47,3.47,0,0,0-.08-.55,3.6,3.6,0,0,0-.42-1.06,3.32,3.32,0,0,0-.41,1.06,3.5,3.5,0,0,0-.09.55,5.43,5.43,0,0,0-.56.09,3.44,3.44,0,0,0-1.06.42,3.41,3.41,0,0,0,1.06.41,2.72,2.72,0,0,0,.56.09,3.6,3.6,0,0,0,.08.56,3.71,3.71,0,0,0,.42,1.06,3.71,3.71,0,0,0,.42-1.06,5.43,5.43,0,0,0,.09-.56,5.25,5.25,0,0,0,.55-.09A3.32,3.32,0,0,0,25.77,32a3.6,3.6,0,0,0-1.06-.42A5.43,5.43,0,0,0,24.15,31.48Z"/><path class="cls-1" d="M33.27,31.48a5.25,5.25,0,0,0-.09-.55,3.32,3.32,0,0,0-.41-1.06,3.6,3.6,0,0,0-.42,1.06,5.25,5.25,0,0,0-.09.55,5.25,5.25,0,0,0-.55.09,3.35,3.35,0,0,0-1.06.42,3.32,3.32,0,0,0,1.06.41,3.5,3.5,0,0,0,.55.09,5.43,5.43,0,0,0,.09.56,3.21,3.21,0,0,0,.42,1.06,3.41,3.41,0,0,0,.41-1.06,3.63,3.63,0,0,0,.09-.56,5.43,5.43,0,0,0,.56-.09A3.41,3.41,0,0,0,34.89,32a3.71,3.71,0,0,0-1.06-.42A5.43,5.43,0,0,0,33.27,31.48Z"/><path class="cls-1" d="M33.27,21a5.43,5.43,0,0,0-.09-.56,3.27,3.27,0,0,0-.41-1,3.55,3.55,0,0,0-.42,1,5.43,5.43,0,0,0-.09.56,3.5,3.5,0,0,0-.55.09,3.32,3.32,0,0,0-1.06.41,3.13,3.13,0,0,0,1.06.42,5.25,5.25,0,0,0,.55.09,5.25,5.25,0,0,0,.09.55,3.13,3.13,0,0,0,.42,1.06,3.32,3.32,0,0,0,.41-1.06,3.5,3.5,0,0,0,.09-.55,5.43,5.43,0,0,0,.56-.09,3.44,3.44,0,0,0,1.06-.42,3.41,3.41,0,0,0-1.06-.41A5.43,5.43,0,0,0,33.27,21Z"/><path class="cls-1" d="M47.26,61.12a8.33,8.33,0,0,0-.58-1.25c-.12-.2-.24-.4-.38-.59a4.23,4.23,0,0,0-.32-.42h0c-1.34-1.61-5.1-1.07-5.1-1.07a10.59,10.59,0,0,0,2.55,1.78,3.34,3.34,0,0,0,1.9-.38l0,0h0a6.2,6.2,0,0,1,.45.44c.14.16.28.33.41.5a6,6,0,0,1,.69,1.1,5.33,5.33,0,0,1,.45,1.23l.07.32,0,.33,0,.17v.5l0-.33,0-.17V62.8l0-.34A6.29,6.29,0,0,0,47.26,61.12Z"/><path class="cls-1" d="M52.43,63.31l0,.17,0,.33v-.5l0-.17,0-.33.07-.32a5.33,5.33,0,0,1,.45-1.23,6,6,0,0,1,.69-1.1c.13-.17.27-.34.41-.5a6.2,6.2,0,0,1,.45-.44h0l0,0h0a3.34,3.34,0,0,0,1.9.38,10.59,10.59,0,0,0,2.55-1.78s-3.76-.54-5.1,1.07h0a4.23,4.23,0,0,0-.32.42c-.14.19-.26.39-.38.59a8.33,8.33,0,0,0-.58,1.25,5.74,5.74,0,0,0-.29,1.34l0,.34v.51Z"/></svg>