<svg id="Layer_1" data-name="Layer 1" xmlns="http://www.w3.org/2000/svg" viewBox="0 0 100 100"><path d="M42,25.91a.71.71,0,0,0,0,1.42h5.94a.16.16,0,0,0,.09,0h0l.11-.05,0,0,.08-.06,0,0,.07-.08h0a.47.47,0,0,0,.05-.1h0a.24.24,0,0,0,0-.08.14.14,0,0,0,0-.06.13.13,0,0,0,0-.06s0-.05,0-.08h0a.11.11,0,0,0,0-.05v-.08a.14.14,0,0,1,0-.06.64.64,0,0,0,0-.07l0-.06,0-.06s0,0-.05,0a.21.21,0,0,0,0-.06l0-.05-.05,0-.07,0,0,0a4.75,4.75,0,1,1,4,0l0,0-.07,0,0,0-.05.05,0,.05,0,.06,0,.06,0,.06s0,.05,0,.07,0,0,0,.06a.19.19,0,0,1,0,.08v.05h0a.19.19,0,0,0,0,.08.13.13,0,0,0,0,.06s0,0,0,.06l0,.08h0l0,0a.25.25,0,0,0,0,.07l0,0s0,0,.05.05l.06.05.05,0,.06,0,.06,0,.07,0,.06,0H58a.71.71,0,1,0,0-1.42H54.53a6.17,6.17,0,1,0-8.94,0Z"/><path d="M58,29.24H42a.72.72,0,0,0,0,1.43H58a.72.72,0,0,0,0-1.43Z"/><path d="M88.24,49.58A38.25,38.25,0,0,0,23,22.6,38.2,38.2,0,0,0,77,76.57,37.89,37.89,0,0,0,88.24,49.58ZM61.1,24.23A11.1,11.1,0,1,1,50,13.16,11.09,11.09,0,0,1,61.1,24.23ZM36.19,82.31H63.81a.64.64,0,0,1,.25,1.23,36.94,36.94,0,0,1-28.12,0A.64.64,0,0,1,36.19,82.31Zm31-1.42H32.86A7,7,0,0,1,28.8,79.6,36.69,36.69,0,0,1,41.17,13.92a.57.57,0,0,1,.51,1,12.52,12.52,0,1,0,16.63,0,.57.57,0,0,1,.52-1A36.7,36.7,0,0,1,71.2,79.6,7,7,0,0,1,67.14,80.89Z"/><polygon points="22.95 15.25 23.03 15.81 24.17 14.98 23.66 14.73 22.32 12.9 23.49 12.05 24.83 13.88 24.91 14.45 26.05 13.61 25.54 13.37 22.45 9.15 22.38 8.58 21.23 9.41 21.74 9.66 23.09 11.5 21.92 12.35 20.58 10.51 20.5 9.95 19.35 10.78 19.86 11.03 22.95 15.25"/><path d="M28.66,11a.74.74,0,0,0,1.16.39l1.34-.68a.74.74,0,0,0,.38-1.16l-2-4a.75.75,0,0,0-1.17-.39L27,5.86A.74.74,0,0,0,26.63,7Zm-1-4.74L28.26,6a.39.39,0,0,1,.58.21l1.79,3.54a.38.38,0,0,1-.17.58l-.57.29a.39.39,0,0,1-.57-.21L27.53,6.86A.38.38,0,0,1,27.69,6.28Z"/><path d="M35.27,8.45l-.1.56,1.35-.43-.41-.39L35.42,6l.32-.09c.37-.12.56,0,.78.32l1,1.5,0,.51L39,7.81l-.53-.36-1.4-2c.39-.22.47-.57.31-1.09l-.49-1.53c-.18-.57-.49-.76-1.08-.57l-2.48.78.41.4Zm.17-5.34a.48.48,0,0,1,.68.38l.29.89c.1.34,0,.59-.34.7l-.86.27-.63-2Z"/><path d="M41.87,6.29c.09.59.37.82,1,.73l1.49-.22a.75.75,0,0,0,.72-1L44.4,1.38c-.09-.59-.37-.83-1-.74L41.93.87c-.61.09-.81.39-.72,1Zm.58-4.81.64-.09a.38.38,0,0,1,.48.37l.58,3.93a.39.39,0,0,1-.35.5l-.63.09c-.28,0-.43-.1-.47-.38L42.11,2C42.07,1.71,42.17,1.52,42.45,1.48Z"/><path d="M49.63,6.43l1.5,0c.62,0,.87-.26.88-.85l0-1.39a.84.84,0,0,0-.46-.79L50.12,2.6a.6.6,0,0,1-.37-.67V1.34c0-.28.14-.45.42-.44h.56c.29,0,.41.17.41.45V2l.84.46,0-1.38c0-.59-.24-.87-.85-.88l-1.4,0c-.62,0-.86.26-.87.85l0,1.27a.84.84,0,0,0,.44.8l1.46.81a.62.62,0,0,1,.38.67v.72c0,.27-.15.44-.43.43h-.66c-.28,0-.41-.17-.4-.45V4.47L48.81,4l0,1.55C48.78,6.14,49,6.42,49.63,6.43Z"/><path d="M56.29,6.89l1.46.24a.75.75,0,0,0,1-.73l.31-1.87-.92.32L57.94,6a.39.39,0,0,1-.49.37l-.63-.1a.37.37,0,0,1-.33-.5l.63-3.92c.05-.27.2-.42.48-.37l.63.1a.39.39,0,0,1,.35.51l-.23,1.4.92-.32L59.46,2a.74.74,0,0,0-.71-1L57.29.74c-.61-.09-.89.14-1,.73l-.72,4.42C55.49,6.48,55.68,6.79,56.29,6.89Z"/><path d="M62.89,8.39l1.43.47a.75.75,0,0,0,1.1-.56l1.41-4.25A.74.74,0,0,0,66.29,3l-1.43-.47c-.59-.2-.9,0-1.09.56L62.36,7.29A.74.74,0,0,0,62.89,8.39Zm.38-1.07,1.25-3.76a.38.38,0,0,1,.53-.3l.61.2a.39.39,0,0,1,.25.56L64.66,7.78a.38.38,0,0,1-.53.29l-.61-.2A.38.38,0,0,1,63.27,7.32Z"/><path d="M69.61,10.56l1-2,1.27.66a.74.74,0,0,0,1.16-.38l.82-1.58a.74.74,0,0,0-.36-1.17L71.23,5v.56l-2.41,4.65-.46.32,1.25.65Zm2.32-4.48.78.4a.5.5,0,0,1,.21.76l-.47.9a.49.49,0,0,1-.74.26L70.94,8Z"/><polygon points="77.43 14.73 76.44 14.58 75.51 13.9 76.74 12.22 77.57 12.83 77.86 13.32 78.54 12.39 77.98 12.27 77.15 11.66 78.38 9.98 79.31 10.66 79.75 11.55 80.43 10.63 77.86 8.75 77.78 9.31 74.69 13.53 74.18 13.78 76.75 15.65 77.43 14.73"/><polygon points="22.97 83.09 18.88 88.53 18.21 88.84 21.36 91.2 22.25 90 20.97 89.79 19.94 89.02 23.89 83.78 24.55 83.47 23.08 82.37 22.97 83.09"/><polygon points="34.27 89.62 31.87 95.98 31.32 96.47 33.04 97.12 32.94 96.39 35.34 90.03 35.9 89.54 34.17 88.89 34.27 89.62"/><path d="M48.45,91.91l-3.35-.2.31.67L45,99.16l-.39.63L48,100c.8,0,1.14-.3,1.18-1.07l.12-1.9c0-.7-.22-1.06-.83-1.18.58-.07.85-.39.89-1.07l.11-1.67C49.54,92.34,49.25,92,48.45,91.91Zm-.34,6.46c0,.46-.25.72-.74.69L46.16,99l.17-2.83,1.21.08a.64.64,0,0,1,.65.78Zm.24-4.83-.06,1.12c0,.45-.26.73-.73.7l-1.18-.07.16-2.6,1.18.07C48.19,92.79,48.38,93.08,48.35,93.54Z"/><path d="M64.3,94.18c.51-.28.64-.73.44-1.4l-.58-2c-.22-.75-.62-1-1.39-.78l-3.25.93.52.53L61.93,98l-.15.72,1.77-.51L63,97.66l-.82-2.84.41-.12a.77.77,0,0,1,1,.44l1.24,2,0,.67,1.84-.53-.67-.48Zm-1.22-.55L62,94l-.75-2.58L62.33,91a.63.63,0,0,1,.87.52l.34,1.16A.64.64,0,0,1,63.08,93.63Z"/><path d="M75.46,83.47l-1.3.94,3.16,6.91.05.76L78.86,91l-.61-.35-.46-1,1.52-1.09.77.73.14.69,1.52-1.09-.7-.29Zm1.92,5.42-2-4.09L78.67,88Z"/><path d="M83.39,16.32a.73.73,0,0,0-1,0,.71.71,0,0,0,0,1,45.59,45.59,0,0,1,0,64.51.71.71,0,0,0,0,1,.74.74,0,0,0,.5.2.73.73,0,0,0,.51-.21,47,47,0,0,0,0-66.52Z"/><path d="M4.25,49.58A45.31,45.31,0,0,1,17.62,17.33a.71.71,0,0,0,0-1,.73.73,0,0,0-1,0,47,47,0,0,0,0,66.52.71.71,0,0,0,.51.21.74.74,0,0,0,.5-.2.71.71,0,0,0,0-1A45.33,45.33,0,0,1,4.25,49.58Z"/><path d="M67,46.22a17.73,17.73,0,0,0,5.86,2,.58.58,0,0,1,.48.77l-4.79,13a.7.7,0,0,0,.29.84.71.71,0,0,0,.4.11H79.6a.69.69,0,0,0,.4-.11.7.7,0,0,0,.29-.84L75.41,48.72a.57.57,0,0,1,.38-.75l.25-.09a4,4,0,0,0,2.29-2,.73.73,0,0,0-.4-.93.72.72,0,0,0-.93.4,2.56,2.56,0,0,1-1.52,1.25c-1.24.44-3.6.53-7.8-1.61a16,16,0,0,0-12.35-.72A23.24,23.24,0,0,0,52,45.64a.86.86,0,0,1-1.26-.76V43.12h.88a.3.3,0,0,0,.26-.45l-1.59-2.74a.3.3,0,0,0-.52,0l-1.59,2.74a.3.3,0,0,0,.26.45h.88v1.76a.86.86,0,0,1-1.26.76,23.24,23.24,0,0,0-3.36-1.4A16,16,0,0,0,32.32,45c-4.2,2.14-6.56,2-7.8,1.61A2.57,2.57,0,0,1,23,45.32a.72.72,0,0,0-1.33.53,4,4,0,0,0,2.29,2l.25.09a.57.57,0,0,1,.38.75L19.71,61.94a.7.7,0,0,0,.29.84.69.69,0,0,0,.4.11H30.73a.71.71,0,0,0,.69-1L26.63,49a.58.58,0,0,1,.48-.77,17.73,17.73,0,0,0,5.86-2c6.93-3.53,14,.34,15.92,1.55a.86.86,0,0,1,.4.73V77.25H36.65a.73.73,0,0,0-.74.64.71.71,0,0,0,.71.78H63.35a.73.73,0,0,0,.74-.64.71.71,0,0,0-.71-.78H50.71V48.5a.86.86,0,0,1,.4-.73C53,46.56,60.1,42.69,67,46.22Zm3.24,15.25L74.44,50.2,78.6,61.47Zm-48.87,0L25.56,50.2l4.17,11.27Z"/><path d="M30.75,63.72H20.38a.71.71,0,0,0-.71.72v1.48a5.9,5.9,0,0,0,11.79,0V64.44A.71.71,0,0,0,30.75,63.72ZM30,65.92a4.48,4.48,0,0,1-8.95,0v-.77h9Z"/><path d="M79.62,63.72H69.25a.71.71,0,0,0-.71.72v1.48a5.9,5.9,0,0,0,11.79,0V64.44A.71.71,0,0,0,79.62,63.72Zm-.71,2.2a4.48,4.48,0,0,1-9,0v-.77h9Z"/><path d="M19.82,38.05a4.51,4.51,0,0,0,.56,1.42,4.51,4.51,0,0,0,.56-1.42c0-.08,0-.16,0-.24a.71.71,0,0,1,.58-.58l.23,0a4.47,4.47,0,0,0,1.43-.56,4.68,4.68,0,0,0-1.43-.55l-.23,0a.74.74,0,0,1-.59-.58,2,2,0,0,0,0-.24,4.42,4.42,0,0,0-.56-1.42,4.42,4.42,0,0,0-.56,1.42c0,.08,0,.16-.05.23a.72.72,0,0,1-.58.59l-.24,0a4.94,4.94,0,0,0-1.42.56,4.42,4.42,0,0,0,1.42.56l.24,0a.74.74,0,0,1,.58.58C19.79,37.89,19.8,38,19.82,38.05Z"/><path d="M31.45,37.23a.75.75,0,0,1,.59.58c0,.08,0,.16,0,.24a5.05,5.05,0,0,0,.56,1.42,4.8,4.8,0,0,0,.57-1.42c0-.08,0-.16,0-.24a.72.72,0,0,1,.59-.58l.23,0a4.42,4.42,0,0,0,1.42-.56,4.63,4.63,0,0,0-1.42-.55l-.23,0a.72.72,0,0,1-.59-.58,2,2,0,0,0,0-.24,4.42,4.42,0,0,0-.56-1.42,4.63,4.63,0,0,0-.55,1.42c0,.08,0,.16-.05.23a.74.74,0,0,1-.58.59l-.24,0a4.94,4.94,0,0,0-1.42.56,4.42,4.42,0,0,0,1.42.56Z"/><path d="M31.45,23.19a.75.75,0,0,1,.59.59c0,.07,0,.15,0,.23a4.94,4.94,0,0,0,.56,1.42A4.7,4.7,0,0,0,33.21,24c0-.08,0-.16,0-.24a.74.74,0,0,1,.59-.58l.23-.05a4.63,4.63,0,0,0,1.42-.55A4.42,4.42,0,0,0,34.07,22L33.84,22a.72.72,0,0,1-.59-.58,1.55,1.55,0,0,0,0-.23,4.47,4.47,0,0,0-.56-1.43,4.68,4.68,0,0,0-.55,1.43,1.55,1.55,0,0,0-.05.23.72.72,0,0,1-.58.58l-.24.05a4.42,4.42,0,0,0-1.42.56,4.42,4.42,0,0,0,1.42.56Z"/><path d="M80.46,36.06l-.23,0a.75.75,0,0,1-.59-.59c0-.07,0-.15,0-.23A4.66,4.66,0,0,0,79,33.78a4.42,4.42,0,0,0-.56,1.42c0,.08,0,.16,0,.24a.72.72,0,0,1-.58.58l-.24,0a4.63,4.63,0,0,0-1.42.55,4.42,4.42,0,0,0,1.42.56l.23,0a.72.72,0,0,1,.59.58,2,2,0,0,0,0,.24A4.51,4.51,0,0,0,79,39.47a4.51,4.51,0,0,0,.56-1.42c0-.08,0-.16.05-.24a.72.72,0,0,1,.58-.58l.23,0a4.47,4.47,0,0,0,1.43-.56A5,5,0,0,0,80.46,36.06Z"/><path d="M65.58,37.23a.71.71,0,0,1,.58.58c0,.08,0,.16,0,.24a4.51,4.51,0,0,0,.56,1.42,4.51,4.51,0,0,0,.56-1.42,2,2,0,0,0,0-.24.74.74,0,0,1,.58-.58l.24,0a4.42,4.42,0,0,0,1.42-.56,4.94,4.94,0,0,0-1.42-.56L68,36a.72.72,0,0,1-.58-.59c0-.07,0-.15,0-.23a4.42,4.42,0,0,0-.56-1.42,4.42,4.42,0,0,0-.56,1.42c0,.08,0,.16,0,.24a.74.74,0,0,1-.59.58l-.23,0a4.68,4.68,0,0,0-1.43.55,4.47,4.47,0,0,0,1.43.56Z"/><path d="M65.58,23.19a.72.72,0,0,1,.58.58c0,.08,0,.16,0,.24a4.42,4.42,0,0,0,.56,1.42A4.42,4.42,0,0,0,67.33,24c0-.08,0-.16,0-.23a.74.74,0,0,1,.58-.59l.24,0a4.42,4.42,0,0,0,1.42-.56A4.42,4.42,0,0,0,68.2,22L68,22a.71.71,0,0,1-.58-.58c0-.08,0-.16,0-.23a4.47,4.47,0,0,0-.56-1.43,4.47,4.47,0,0,0-.56,1.43c0,.07,0,.15,0,.23a.74.74,0,0,1-.59.58l-.23.05a4.47,4.47,0,0,0-1.43.56,4.68,4.68,0,0,0,1.43.55Z"/></svg>