<svg id="Layer_1" data-name="Layer 1" xmlns="http://www.w3.org/2000/svg" viewBox="0 0 100 100"><path d="M44.73,24.19h1.8a16.68,16.68,0,0,1-2.07,7,.71.71,0,0,0,.3,1,.8.8,0,0,0,.33.08.71.71,0,0,0,.63-.38,18.05,18.05,0,0,0,2.21-7.64h3.68a17.91,17.91,0,0,0,2.21,7.64.7.7,0,0,0,.63.38.72.72,0,0,0,.32-.08.71.71,0,0,0,.3-1,16.81,16.81,0,0,1-2.06-7h2.26a.71.71,0,1,0,0-1.42H53a12.78,12.78,0,0,1,2-5.93.72.72,0,0,0-.23-1,.71.71,0,0,0-1,.23,14.18,14.18,0,0,0-2.22,6.68H47.91a14,14,0,0,0-2.22-6.68.7.7,0,0,0-1-.23.71.71,0,0,0-.22,1,12.78,12.78,0,0,1,2,5.93H44.73a.71.71,0,0,0,0,1.42Z"/><path d="M25.05,83.14l-2.87-2.25-.14.79-4.57,5.83-.74.33,1.58,1.23.14-.79,1.93-2.46L22,87.07a1.05,1.05,0,0,0,1.72-.23l1.56-2A1.05,1.05,0,0,0,25.05,83.14Zm-1.12,1.38L23,85.67a.7.7,0,0,1-1.09.16l-1-.76,1.89-2.41,1,.76A.69.69,0,0,1,23.93,84.52Z"/><polygon points="31.8 88.15 28.75 94.91 28.12 95.39 29.95 96.22 29.89 95.42 32.94 88.66 33.57 88.17 31.74 87.35 31.8 88.15"/><path d="M43.31,90.8l-2-.35c-.85-.16-1.26.16-1.41,1l-.32,1.76a1.17,1.17,0,0,0,.42,1.22l1.86,1.48a.87.87,0,0,1,.36,1l-.18,1a.55.55,0,0,1-.7.52l-.91-.17a.55.55,0,0,1-.46-.73l.21-1.16-1.07-.85-.4,2.15c-.15.83.11,1.28,1,1.44l2.09.38a1.06,1.06,0,0,0,1.43-1l.36-1.94a1.18,1.18,0,0,0-.46-1.21l-1.84-1.49a.84.84,0,0,1-.36-1L41.1,92a.55.55,0,0,1,.7-.51l.78.15c.39.07.52.34.45.72l-.17.93,1.08.85.35-1.92A1.06,1.06,0,0,0,43.31,90.8Z"/><path d="M57.1,95.75,56,96.52l.17,1.66a.55.55,0,0,1-.53.69l-.9.09c-.4,0-.6-.18-.64-.57l-.58-5.59c0-.39.11-.65.51-.69l.91-.09c.4,0,.61.18.65.57l.21,2,1.13-.77-.17-1.72c-.09-.84-.48-1.2-1.34-1.11l-2.09.22c-.86.09-1.16.51-1.07,1.35l.65,6.32c.08.84.46,1.2,1.33,1.11l2.08-.22c.86-.09,1.17-.51,1.09-1.35Z"/><polygon points="69.75 95.31 68.23 95.93 67.12 93.2 68.47 92.65 69.28 92.68 68.66 91.16 68.11 91.74 66.75 92.29 65.64 89.55 67.16 88.94 68.56 89.08 67.95 87.57 63.77 89.27 64.39 89.78 67.17 96.64 67.09 97.44 71.27 95.74 70.66 94.24 69.75 95.31"/><path d="M81.27,85.33a1.18,1.18,0,0,0-1.21-.46l-2.34.4a.86.86,0,0,1-1-.4l-.52-.67a.55.55,0,0,1,.07-.86l.63-.49a.53.53,0,0,1,.84.14l.59.74,1.35-.24L78.47,82a1.06,1.06,0,0,0-1.73-.21L75.19,83A1,1,0,0,0,75,84.68l1.11,1.41a1.19,1.19,0,0,0,1.2.48l2.33-.41a.86.86,0,0,1,1,.41l.63.79a.55.55,0,0,1-.08.86l-.73.58a.55.55,0,0,1-.85-.14l-.73-.93L77.54,88,78.9,89.7a1,1,0,0,0,1.71.22l1.68-1.32a1,1,0,0,0,.19-1.72Z"/><polygon points="23.06 15.02 23.14 15.58 24.27 14.74 23.77 14.5 22.43 12.67 23.59 11.82 24.93 13.65 25.01 14.21 26.15 13.38 25.63 13.14 22.55 8.92 22.48 8.36 21.34 9.19 21.85 9.44 23.19 11.27 22.03 12.12 20.69 10.28 20.61 9.72 19.47 10.56 19.98 10.8 23.06 15.02"/><path d="M28.74,10.8a.75.75,0,0,0,1.16.39l1.34-.68a.75.75,0,0,0,.37-1.17l-2-4A.74.74,0,0,0,28.43,5l-1.34.67a.74.74,0,0,0-.37,1.17Zm-1-4.74.57-.29a.38.38,0,0,1,.57.21l1.79,3.53a.4.4,0,0,1-.17.59l-.57.28a.38.38,0,0,1-.57-.21L27.61,6.64A.38.38,0,0,1,27.78,6.06Z"/><path d="M35.33,8.23l-.11.55,1.35-.42-.4-.4L35.48,5.8l.31-.1a.59.59,0,0,1,.78.32l1,1.5,0,.51L39,7.59l-.52-.35-1.4-2c.39-.23.47-.57.31-1.09l-.49-1.53c-.18-.57-.49-.76-1.07-.57l-2.47.78.4.39Zm.17-5.34a.5.5,0,0,1,.68.39l.28.88a.5.5,0,0,1-.34.71l-.85.27-.63-2Z"/><path d="M41.9,6.07c.09.59.37.82,1,.73l1.49-.22a.74.74,0,0,0,.72-1l-.66-4.43c-.08-.59-.37-.82-1-.73L42,.66c-.61.09-.8.4-.71,1Zm.58-4.8.63-.09a.38.38,0,0,1,.48.37l.58,3.92a.38.38,0,0,1-.34.5l-.64.1c-.28,0-.42-.11-.46-.38l-.59-3.92C42.1,1.5,42.2,1.31,42.48,1.27Z"/><path d="M49.63,6.21l1.5,0c.61,0,.87-.26.88-.86L52,4a.83.83,0,0,0-.46-.79l-1.45-.82a.6.6,0,0,1-.37-.67V1.13a.39.39,0,0,1,.42-.44h.56c.28,0,.41.18.4.45v.67l.85.46L52,.91c0-.6-.24-.88-.85-.89L49.76,0c-.62,0-.86.26-.87.86l0,1.26a.83.83,0,0,0,.44.79l1.46.82a.61.61,0,0,1,.37.67v.71a.39.39,0,0,1-.42.44h-.66a.38.38,0,0,1-.4-.45V4.25l-.84-.47,0,1.55C48.78,5.92,49,6.2,49.63,6.21Z"/><path d="M56.26,6.67l1.46.24a.75.75,0,0,0,1-.72L59,4.32l-.91.32L57.91,5.8a.4.4,0,0,1-.49.37l-.63-.11c-.28,0-.37-.23-.33-.5l.64-3.91c0-.27.19-.42.47-.37l.63.1a.39.39,0,0,1,.34.51l-.23,1.4L59.23,3l.2-1.2a.75.75,0,0,0-.72-1L57.26.54c-.6-.1-.88.13-1,.72l-.72,4.41C55.47,6.26,55.66,6.57,56.26,6.67Z"/><path d="M62.84,8.17l1.43.47a.75.75,0,0,0,1.09-.56l1.41-4.24a.75.75,0,0,0-.55-1.1L64.8,2.27c-.58-.2-.9,0-1.08.56L62.31,7.07A.74.74,0,0,0,62.84,8.17Zm.38-1.07,1.24-3.76A.38.38,0,0,1,65,3.05l.6.2a.38.38,0,0,1,.26.55L64.61,7.56a.39.39,0,0,1-.54.29l-.61-.2A.38.38,0,0,1,63.22,7.1Z"/><path d="M69.53,10.34l1-2L71.8,9A.74.74,0,0,0,73,8.65l.82-1.57a.75.75,0,0,0-.36-1.17L71.14,4.73V5.3l-2.4,4.63-.47.32,1.26.65Zm2.32-4.47.77.4a.49.49,0,0,1,.21.75l-.47.9a.49.49,0,0,1-.73.26l-.78-.4Z"/><polygon points="77.32 14.49 76.34 14.35 75.41 13.67 76.64 11.99 77.47 12.6 77.75 13.09 78.43 12.16 77.88 12.04 77.04 11.43 78.27 9.75 79.2 10.44 79.64 11.33 80.31 10.4 77.75 8.53 77.67 9.09 74.59 13.3 74.08 13.54 76.65 15.42 77.32 14.49"/><path d="M83.26,16.09a.71.71,0,0,0-1,0,.7.7,0,0,0,0,1,45.27,45.27,0,0,1,13.32,32.2c0,.91,0,1.83-.08,2.72a45.21,45.21,0,0,1-2.25,11.7,45.29,45.29,0,0,1-9.38,16.07.71.71,0,0,0,0,1,.7.7,0,0,0,.48.19.71.71,0,0,0,.53-.24,46.86,46.86,0,0,0,9.67-16.57,46.8,46.8,0,0,0,2.32-12.07c0-.92.08-1.86.08-2.8A46.7,46.7,0,0,0,83.26,16.09Z"/><path d="M4.43,49.29a45.27,45.27,0,0,1,13.32-32.2.7.7,0,0,0,0-1,.71.71,0,0,0-1,0,47,47,0,0,0-1.66,64.64.71.71,0,0,0,.53.24.7.7,0,0,0,.48-.19.71.71,0,0,0,.05-1A45.44,45.44,0,0,1,4.43,49.29Z"/><path d="M73.65,30.23a3,3,0,0,0,.08.51,3.1,3.1,0,0,0,.38,1,3.1,3.1,0,0,0,.38-1,3,3,0,0,0,.08-.51,4.5,4.5,0,0,0,.51-.08,3.1,3.1,0,0,0,1-.38,3.1,3.1,0,0,0-1-.38,3,3,0,0,0-.51-.08,4.5,4.5,0,0,0-.08-.51,3.26,3.26,0,0,0-.38-1,3.26,3.26,0,0,0-.38,1,4.5,4.5,0,0,0-.08.51,4.5,4.5,0,0,0-.51.08,3.36,3.36,0,0,0-1,.38,3.36,3.36,0,0,0,1,.38A4.5,4.5,0,0,0,73.65,30.23Z"/><path d="M65.31,30.23a3,3,0,0,0,.08.51,2.87,2.87,0,0,0,.38,1,3.36,3.36,0,0,0,.38-1,4.5,4.5,0,0,0,.08-.51,4.5,4.5,0,0,0,.51-.08,3.1,3.1,0,0,0,1-.38,3.1,3.1,0,0,0-1-.38,3,3,0,0,0-.51-.08,4.5,4.5,0,0,0-.08-.51,3.26,3.26,0,0,0-.38-1,3.59,3.59,0,0,0-.46,1.48,4.5,4.5,0,0,0-.51.08,3.26,3.26,0,0,0-1,.38,3.26,3.26,0,0,0,1,.38A4.5,4.5,0,0,0,65.31,30.23Z"/><path d="M65.31,20.66a3,3,0,0,0,.08.51,2.8,2.8,0,0,0,.38,1,3.26,3.26,0,0,0,.38-1,4.5,4.5,0,0,0,.08-.51,3,3,0,0,0,.51-.08,2.87,2.87,0,0,0,1-.38,3.36,3.36,0,0,0-1-.38,4.5,4.5,0,0,0-.51-.08,4.5,4.5,0,0,0-.08-.51,3.36,3.36,0,0,0-.38-1,3.1,3.1,0,0,0-.38,1,3,3,0,0,0-.08.51l-.51.08a3.26,3.26,0,0,0-1,.38,2.8,2.8,0,0,0,1,.38A3,3,0,0,0,65.31,20.66Z"/><path d="M25.43,30.23a3,3,0,0,0,.08.51,3.1,3.1,0,0,0,.38,1,3.1,3.1,0,0,0,.38-1,3,3,0,0,0,.08-.51,4.5,4.5,0,0,0,.51-.08,3.36,3.36,0,0,0,1-.38,3.36,3.36,0,0,0-1-.38,4.5,4.5,0,0,0-.51-.08,4.5,4.5,0,0,0-.08-.51,3.26,3.26,0,0,0-.38-1,3.26,3.26,0,0,0-.38,1,4.5,4.5,0,0,0-.08.51,3.59,3.59,0,0,0-1.48.46,3,3,0,0,0,1,.38A4.5,4.5,0,0,0,25.43,30.23Z"/><path d="M33.77,30.23a4.5,4.5,0,0,0,.08.51,3.36,3.36,0,0,0,.38,1,2.87,2.87,0,0,0,.38-1,3,3,0,0,0,.08-.51,4.5,4.5,0,0,0,.51-.08,3.26,3.26,0,0,0,1-.38,3.26,3.26,0,0,0-1-.38,4.5,4.5,0,0,0-.51-.08,3.59,3.59,0,0,0-.46-1.48,3.26,3.26,0,0,0-.38,1,4.5,4.5,0,0,0-.08.51,3,3,0,0,0-.51.08,3.1,3.1,0,0,0-1,.38,3.1,3.1,0,0,0,1,.38A4.5,4.5,0,0,0,33.77,30.23Z"/><path d="M33.77,20.66a4.5,4.5,0,0,0,.08.51,3.26,3.26,0,0,0,.38,1,2.8,2.8,0,0,0,.38-1,3,3,0,0,0,.08-.51,3,3,0,0,0,.51-.08,2.8,2.8,0,0,0,1-.38,3.26,3.26,0,0,0-1-.38l-.51-.08a3,3,0,0,0-.08-.51,3.1,3.1,0,0,0-.38-1,3.36,3.36,0,0,0-.38,1,4.5,4.5,0,0,0-.08.51,4.5,4.5,0,0,0-.51.08,3.36,3.36,0,0,0-1,.38,2.87,2.87,0,0,0,1,.38A3,3,0,0,0,33.77,20.66Z"/><path d="M75.63,54a1.61,1.61,0,0,1,0-1.86l4.58-6.35A.71.71,0,0,0,79.08,45l-5,6.87,0,0a.1.1,0,0,0,0,0,13.42,13.42,0,0,0-10.58-5.27h-.11a13.44,13.44,0,0,0-11.21,6h0a.71.71,0,0,0,0,.78h0A13.43,13.43,0,0,0,59.78,59h0a13.27,13.27,0,0,0,3.57.51h.11a13.42,13.42,0,0,0,10.59-5.15h0v0l4.85,7a.71.71,0,0,0,.59.3.66.66,0,0,0,.4-.13.71.71,0,0,0,.18-1ZM53.88,52.56a12,12,0,0,1,6.19-4.17,8.31,8.31,0,0,1-.37,9.06,12.09,12.09,0,0,1-5.83-4.17A.59.59,0,0,1,53.88,52.56Zm9.61,5.5h-.1a11.33,11.33,0,0,1-2.26-.23,9.6,9.6,0,0,0,.37-9.76,13,13,0,0,1,1.87-.14h.1A12,12,0,0,1,73,52.73h0a.6.6,0,0,1,0,.68l0,.06A12,12,0,0,1,63.49,58.06Z"/><path d="M82,46a.7.7,0,0,0-1,.13c-3.6,4.66-3.59,9.32,0,13.86a.72.72,0,0,0,1,.12.71.71,0,0,0,.12-1c-3.19-4-3.19-8,0-12.11A.71.71,0,0,0,82,46Z"/><path d="M36.63,46.51h-.11a13.42,13.42,0,0,0-10.58,5.27.1.1,0,0,0,0,0l0,0-5-6.87a.71.71,0,1,0-1.15.83l4.58,6.35a1.61,1.61,0,0,1,0,1.86l-4.49,6.42a.71.71,0,0,0,.18,1,.66.66,0,0,0,.4.13.71.71,0,0,0,.59-.3l4.85-7v0h0a13.42,13.42,0,0,0,10.59,5.15h.11A13.27,13.27,0,0,0,40.19,59h0a13.43,13.43,0,0,0,7.63-5.66h0a.71.71,0,0,0,0-.78h0A13.44,13.44,0,0,0,36.63,46.51Zm0,11.55h-.1a12,12,0,0,1-9.46-4.59L27,53.41a.6.6,0,0,1,0-.68h0a12,12,0,0,1,9.53-4.8h.1a13,13,0,0,1,1.87.14,9.6,9.6,0,0,0,.37,9.76A11.33,11.33,0,0,1,36.61,58.06Zm3.69-.61a8.31,8.31,0,0,1-.37-9.06,12,12,0,0,1,6.19,4.17.59.59,0,0,1,0,.72A12,12,0,0,1,40.3,57.45Z"/><path d="M19,46.15a.71.71,0,1,0-1.12.87c3.19,4.13,3.19,8.09,0,12.11a.71.71,0,0,0,.56,1.15A.71.71,0,0,0,19,60C22.54,55.47,22.55,50.81,19,46.15Z"/><path d="M57.78,51.69a.85.85,0,1,0,.85.85A.85.85,0,0,0,57.78,51.69Z"/><path d="M42.22,51.69a.85.85,0,1,0,.85.85A.85.85,0,0,0,42.22,51.69Z"/><path d="M87.69,43.64c-.12-.77-.26-1.55-.42-2.3-.12-.53-.24-1.06-.38-1.58a.29.29,0,0,0,0-.09,37.65,37.65,0,0,0-2.28-6.33,38.09,38.09,0,0,0-71.42,6.33.29.29,0,0,0,0,.09c-.14.52-.27,1.05-.38,1.58-.16.75-.3,1.53-.42,2.3a38.64,38.64,0,0,0-.42,5.7c0,.66,0,1.32.05,1.94,0,.27,0,.56,0,.87s.07.89.12,1.35c.13,1.2.32,2.41.57,3.62a40.92,40.92,0,0,0,1.12,4.19c.33,1,.71,2,1.12,3s1,2.14,1.54,3.18a38.5,38.5,0,0,0,2.56,4.1c.15.2.3.39.44.59l.06.07a38.57,38.57,0,0,0,2.71,3.23l.58.6.34.35a38.74,38.74,0,0,0,5.29,4.37h0l.24.17a39,39,0,0,0,4.47,2.59A37.69,37.69,0,0,0,50,87.43h1.09A37.88,37.88,0,0,0,71.3,80.94l.24-.16,0,0a38.65,38.65,0,0,0,5.28-4.37l.33-.33v0c.2-.19.39-.4.58-.6a37.44,37.44,0,0,0,2.7-3.2h0l.09-.12c.14-.19.28-.37.41-.56a38.59,38.59,0,0,0,2.57-4.1c.56-1,1.08-2.11,1.54-3.18s.79-2,1.11-3a38.53,38.53,0,0,0,1.13-4.19,35.68,35.68,0,0,0,.56-3.62c.05-.46.1-.91.13-1.34s0-.6,0-.87c0-.63,0-1.29,0-1.95A38.64,38.64,0,0,0,87.69,43.64ZM50,13A11.06,11.06,0,1,1,39,24,11.07,11.07,0,0,1,50,13ZM68.1,81.25c-.62.36-1.25.69-1.89,1A36.27,36.27,0,0,1,51.06,86H50a36.25,36.25,0,0,1-16.2-3.76c-.63-.31-1.26-.64-1.88-1a1,1,0,0,1,.45-1.79h0c1.9,0,2.82,1,3.89,2.09s2.41,2.53,4.91,2.53,3.78-1.35,4.91-2.53,2-2.09,3.88-2.09,2.82,1,3.89,2.09,2.41,2.53,4.91,2.53,3.78-1.35,4.91-2.53,2-2.09,3.89-2.09h0A1,1,0,0,1,68.1,81.25Zm8.64-6.79h0l-.56.58v0l-.32.31a37.58,37.58,0,0,1-3.22,2.84,2.62,2.62,0,0,1-2.68.3A5.51,5.51,0,0,0,67.61,78c-2.51,0-3.79,1.34-4.92,2.53s-2,2.09-3.88,2.09-2.82-1-3.88-2.09S52.52,78,50,78s-3.78,1.34-4.91,2.53-2,2.09-3.88,2.09-2.82-1-3.88-2.09S34.93,78,32.42,78a5.62,5.62,0,0,0-2.32.47,2.59,2.59,0,0,1-2.68-.29,36.25,36.25,0,0,1-3.23-2.84l-.32-.33-.56-.58h0a.33.33,0,0,1,.25-.55h.08c2.5,0,3.78-1.35,4.91-2.53s2-2.09,3.88-2.09,2.82,1,3.89,2.09,2.41,2.53,4.91,2.53,3.78-1.35,4.91-2.53,2-2.09,3.88-2.09,2.82,1,3.89,2.09,2.41,2.53,4.91,2.53,3.78-1.35,4.91-2.53,2-2.09,3.89-2.09,2.81,1,3.88,2.09,2.41,2.53,4.91,2.53h.09A.33.33,0,0,1,76.74,74.46Zm9.9-23.24c0,.26,0,.53,0,.83s-.07.86-.12,1.3c-.12,1.15-.3,2.32-.54,3.48a35.66,35.66,0,0,1-1.09,4c-.31,1-.67,1.91-1.07,2.85s-.94,2.06-1.48,3.07a38.24,38.24,0,0,1-2.47,3.94c-.08.12-.17.23-.26.35a2.65,2.65,0,0,1-.4.42,4.05,4.05,0,0,1-2.76,1c-1.89,0-2.82-1-3.88-2.09s-2.41-2.53-4.91-2.53-3.79,1.34-4.92,2.53-2,2.09-3.88,2.09-2.82-1-3.88-2.09S52.52,67.87,50,67.87s-3.78,1.34-4.91,2.53-2,2.09-3.88,2.09-2.82-1-3.88-2.09-2.41-2.53-4.92-2.53-3.78,1.34-4.91,2.53-2,2.09-3.88,2.09a4,4,0,0,1-2.74-1,2.33,2.33,0,0,1-.41-.42l-.26-.36a35.09,35.09,0,0,1-2.47-3.94c-.55-1-1-2-1.48-3.06s-.76-1.91-1.08-2.86a37.87,37.87,0,0,1-1.08-4c-.24-1.16-.42-2.33-.55-3.49,0-.44-.08-.87-.11-1.29s0-.57-.06-.84c0-.6,0-1.23,0-1.87a36.21,36.21,0,0,1,.34-5h0a36.89,36.89,0,0,1,2.1-8.21h0q.43-1.11.93-2.19A36.92,36.92,0,0,1,19,29.7,36.55,36.55,0,0,1,40.31,14a.81.81,0,0,1,.79,1.35,12.47,12.47,0,1,0,17.84,0A.81.81,0,0,1,59.73,14,36.5,36.5,0,0,1,81,29.7a37,37,0,0,1,2.32,4.24c.33.71.63,1.44.92,2.17h0c0,.09.07.19.1.28q.51,1.34.9,2.7h0c.16.56.31,1.14.46,1.74a.19.19,0,0,1,0,.08c.06.24.12.48.17.73.15.72.29,1.47.4,2.21a37.16,37.16,0,0,1,.41,5.49C86.69,50,86.67,50.61,86.64,51.22Z"/></svg>