<svg id="Layer_1" data-name="Layer 1" xmlns="http://www.w3.org/2000/svg" viewBox="0 0 100 100"><defs><style>.cls-1{fill:#1d1d1b;}</style></defs><path class="cls-1" d="M43.27,18a1,1,0,0,1,.72.2,1.28,1.28,0,0,1,.31,1v9.34a.71.71,0,0,0,1.42,0V19.2c0-.11,0-.23,0-.33a2.64,2.64,0,0,1,1.86-.46q.33.15.42.84v9.29a.71.71,0,0,0,1.42,0V19.11c0-.15,0-.3-.08-.44a2.13,2.13,0,0,1,1.51-.3c.28.12.39.54.44.88v9.28A3,3,0,0,0,52,30.8a2,2,0,0,0,1.45.59h.06a2.36,2.36,0,0,0,2.11-1.53,15.15,15.15,0,0,0,.79-3l1.12.18-1.36-3.59-2.43,3,1.27.21a14.66,14.66,0,0,1-.71,2.71,1,1,0,0,1-.83.62A.65.65,0,0,1,53,29.8a1.75,1.75,0,0,1-.32-1.23V19.11a2.33,2.33,0,0,0-1.28-2,3.39,3.39,0,0,0-2.78.36,1.86,1.86,0,0,0-.49-.32,3.59,3.59,0,0,0-2.91.39,2.66,2.66,0,0,0-.32-.35,2.5,2.5,0,0,0-1.85-.53.72.72,0,0,0-.6.81A.7.7,0,0,0,43.27,18Z"/><path class="cls-1" d="M23.67,82.69l-1.4-1.16a1,1,0,0,0-1.57.17L19.65,83a1.11,1.11,0,0,0-.2,1.17l.83,2a.8.8,0,0,1-.17,1l-.59.72a.5.5,0,0,1-.78.1l-.66-.55a.49.49,0,0,1,0-.78l.69-.84-.49-1.16L17,86.17a1,1,0,0,0,.13,1.58L18.61,89a1,1,0,0,0,1.58-.16l1.15-1.39a1.07,1.07,0,0,0,.17-1.17l-.81-2a.77.77,0,0,1,.16-1l.5-.6a.5.5,0,0,1,.78-.1l.56.46a.5.5,0,0,1,.05.79l-.55.67.48,1.16,1.14-1.39A1,1,0,0,0,23.67,82.69Z"/><path class="cls-1" d="M32.32,88.15l-1.73-.83a1,1,0,0,0-1.49.53l-2.54,5.24a1,1,0,0,0,.51,1.5l1.72.84a1,1,0,0,0,1.5-.53l1.07-2.22-1.25.06-.67,1.37a.51.51,0,0,1-.74.29L28,94a.49.49,0,0,1-.22-.75L30,88.65a.49.49,0,0,1,.73-.29l.75.36a.51.51,0,0,1,.24.76l-.81,1.66,1.26-.06.69-1.42A1,1,0,0,0,32.32,88.15Z"/><path class="cls-1" d="M42.14,91.25l-1.91-.4c-.78-.17-1.16.12-1.32.88l-1.2,5.69c-.16.76.07,1.18.85,1.34l1.91.4a1,1,0,0,0,1.33-.87l1.2-5.7C43.16,91.83,42.92,91.41,42.14,91.25Zm-.33,1.43-1.06,5a.51.51,0,0,1-.65.46L39.29,98a.49.49,0,0,1-.4-.67l1.06-5a.5.5,0,0,1,.64-.46l.81.17A.5.5,0,0,1,41.81,92.68Z"/><path class="cls-1" d="M53.09,96.22c.57-.15.79-.55.77-1.25l-.08-2.09c0-.77-.36-1.12-1.16-1.09l-3.37.13.37.63.27,6.79-.33.66,1.84-.07L51,99.3l-.11-3h.42c.51,0,.71.18.87.67l.72,2.22-.13.66,1.9-.08-.53-.62Zm-1-.82-1.17,0-.1-2.69,1.16,0c.49,0,.71.25.72.71l.05,1.21C52.73,95.09,52.53,95.38,52.05,95.4Z"/><path class="cls-1" d="M64.38,90.74A1,1,0,0,0,63,90l-3.2.92.51.53,1.89,6.52-.15.72,1.76-.51-.51-.53-.8-2.75,1.78-.51c.76-.22,1-.65.75-1.4Zm-1,3L62.26,94l-.78-2.7L62.56,91a.64.64,0,0,1,.88.52l.37,1.27A.64.64,0,0,1,63.35,93.71Z"/><polygon class="cls-1" points="70.57 87.43 70.58 86.69 68.95 87.55 69.56 87.96 72.71 93.97 72.71 94.71 74.33 93.85 73.73 93.44 70.57 87.43"/><path class="cls-1" d="M79.18,81.82a1,1,0,0,0-1.58-.17l-1.51,1.23a1,1,0,0,0-.15,1.58L79.62,89a1,1,0,0,0,1.58.18l1.51-1.24a1,1,0,0,0,.15-1.58Zm2.53,5.76-.65.53a.49.49,0,0,1-.77-.11L77,84a.49.49,0,0,1,0-.78l.64-.52a.5.5,0,0,1,.79.1l3.25,4A.5.5,0,0,1,81.71,87.58Z"/><polygon class="cls-1" points="23.04 15.03 23.12 15.59 24.26 14.76 23.75 14.51 22.41 12.68 23.58 11.83 24.91 13.66 24.99 14.22 26.13 13.39 25.61 13.15 22.54 8.93 22.47 8.37 21.32 9.2 21.83 9.44 23.17 11.28 22.01 12.13 20.67 10.29 20.59 9.73 19.45 10.56 19.96 10.81 23.04 15.03"/><path class="cls-1" d="M28.73,10.8a.74.74,0,0,0,1.15.39l1.34-.67a.75.75,0,0,0,.38-1.17l-2-4A.74.74,0,0,0,28.41,5l-1.34.68a.74.74,0,0,0-.36,1.16Zm-1-4.73.57-.29a.39.39,0,0,1,.58.2L30.7,9.52a.39.39,0,0,1-.17.58l-.58.29a.37.37,0,0,1-.56-.21L27.6,6.65A.38.38,0,0,1,27.76,6.07Z"/><path class="cls-1" d="M35.32,8.24l-.11.55,1.35-.43L36.16,8,35.47,5.8l.31-.1a.59.59,0,0,1,.78.32l1,1.51,0,.51L39,7.6l-.52-.36-1.4-2c.39-.23.47-.57.31-1.09l-.49-1.53c-.18-.57-.49-.76-1.07-.57l-2.48.78.41.4Zm.17-5.34c.36-.12.57,0,.68.38l.28.89a.48.48,0,0,1-.34.7l-.85.27-.63-2Z"/><path class="cls-1" d="M41.9,6.07c.09.59.36.83,1,.74l1.48-.22a.75.75,0,0,0,.73-1l-.66-4.43c-.09-.59-.37-.82-1-.73L42,.66c-.6.09-.8.4-.71,1Zm.58-4.8.63-.09a.39.39,0,0,1,.48.38l.58,3.91a.4.4,0,0,1-.35.51l-.63.09c-.28,0-.43-.11-.47-.38l-.58-3.92C42.1,1.5,42.2,1.31,42.48,1.27Z"/><path class="cls-1" d="M49.63,6.22l1.5,0c.61,0,.87-.26.88-.86L52,4a.83.83,0,0,0-.46-.79l-1.45-.82a.6.6,0,0,1-.37-.67V1.13a.39.39,0,0,1,.42-.44h.56c.29,0,.41.18.4.45v.67l.85.46L52,.91c0-.6-.24-.88-.85-.89L49.76,0c-.62,0-.86.26-.87.86l0,1.26a.84.84,0,0,0,.44.8l1.46.81a.61.61,0,0,1,.37.67v.71a.39.39,0,0,1-.42.44h-.66c-.28,0-.41-.18-.4-.45V4.25l-.84-.46,0,1.54C48.78,5.93,49,6.21,49.63,6.22Z"/><path class="cls-1" d="M56.27,6.67l1.45.24a.74.74,0,0,0,1-.72L59,4.32l-.92.32L57.91,5.8a.38.38,0,0,1-.48.37l-.63-.1a.38.38,0,0,1-.33-.51l.63-3.91c0-.27.2-.42.48-.37l.63.1a.4.4,0,0,1,.34.51l-.23,1.4L59.24,3l.19-1.2a.74.74,0,0,0-.71-1L57.27.54c-.61-.1-.89.13-1,.72l-.71,4.42C55.47,6.27,55.66,6.58,56.27,6.67Z"/><path class="cls-1" d="M62.85,8.17l1.43.47a.74.74,0,0,0,1.09-.55l1.41-4.25c.18-.57,0-.91-.55-1.1l-1.42-.47a.74.74,0,0,0-1.08.56L62.32,7.08A.73.73,0,0,0,62.85,8.17Zm.37-1.06,1.25-3.76c.09-.27.26-.39.53-.3l.61.2a.39.39,0,0,1,.25.56L64.62,7.57a.39.39,0,0,1-.54.29l-.61-.2A.39.39,0,0,1,63.22,7.11Z"/><path class="cls-1" d="M69.54,10.34l1-1.95L71.82,9A.74.74,0,0,0,73,8.66l.81-1.58a.73.73,0,0,0-.35-1.16L71.16,4.74V5.3l-2.4,4.64-.46.32,1.25.65Zm2.32-4.47.77.4a.49.49,0,0,1,.21.75l-.47.91a.49.49,0,0,1-.73.26l-.77-.4Z"/><polygon class="cls-1" points="77.34 14.51 76.36 14.36 75.43 13.68 76.65 12 77.48 12.61 77.76 13.1 78.45 12.16 77.89 12.05 77.06 11.44 78.29 9.76 79.22 10.44 79.66 11.33 80.33 10.41 77.77 8.53 77.69 9.09 74.61 13.31 74.1 13.55 76.67 15.43 77.34 14.51"/><path class="cls-1" d="M83.28,16.1a.71.71,0,0,0-1,1A45.29,45.29,0,0,1,95.6,49.32c0,.92,0,1.83-.08,2.72A45.37,45.37,0,0,1,83.88,79.83a.71.71,0,0,0,.06,1,.69.69,0,0,0,.47.18.72.72,0,0,0,.53-.23,48.82,48.82,0,0,0,3.59-4.5,47.44,47.44,0,0,0,6.09-12.08,46.87,46.87,0,0,0,2.32-12.09c0-.91.08-1.86.08-2.8A46.72,46.72,0,0,0,83.28,16.1Z"/><path class="cls-1" d="M4.4,49.32A45.29,45.29,0,0,1,17.73,17.1a.71.71,0,1,0-1-1,47,47,0,0,0-1.66,64.69.72.72,0,0,0,.53.23.69.69,0,0,0,.47-.18.7.7,0,0,0,.06-1A45.5,45.5,0,0,1,4.4,49.32Z"/><path class="cls-1" d="M17.64,36.37a4.33,4.33,0,0,0,1.42.56,4.57,4.57,0,0,0,.74.12,4.57,4.57,0,0,0,.12.74,4.33,4.33,0,0,0,.56,1.42,5.46,5.46,0,0,0,.67-2.16,4.88,4.88,0,0,0,.75-.12,4.51,4.51,0,0,0,1.42-.56,4.73,4.73,0,0,0-1.42-.55,4.88,4.88,0,0,0-.75-.12A4.88,4.88,0,0,0,21,35a4.73,4.73,0,0,0-.55-1.42A4.51,4.51,0,0,0,19.92,35a6.5,6.5,0,0,0-.12.75,5.46,5.46,0,0,0-2.16.67Z"/><path class="cls-1" d="M32,37.05c0,.25.07.5.12.74a4.33,4.33,0,0,0,.56,1.42,4.33,4.33,0,0,0,.56-1.42,6,6,0,0,0,.12-.74,4.75,4.75,0,0,0,.74-.12,4.42,4.42,0,0,0,1.42-.56,4.63,4.63,0,0,0-1.42-.55,4.75,4.75,0,0,0-.74-.12q0-.37-.12-.75a4.51,4.51,0,0,0-.56-1.42A4.77,4.77,0,0,0,32.14,35a6.46,6.46,0,0,0-.11.75,4.88,4.88,0,0,0-.75.12,4.63,4.63,0,0,0-1.42.55,4.42,4.42,0,0,0,1.42.56A5,5,0,0,0,32,37.05Z"/><path class="cls-1" d="M32,23c0,.25.07.5.12.74a4.33,4.33,0,0,0,.56,1.42,4.33,4.33,0,0,0,.56-1.42,6,6,0,0,0,.12-.74,6.33,6.33,0,0,0,.74-.12,4.42,4.42,0,0,0,1.42-.56,4.63,4.63,0,0,0-1.42-.55,4.75,4.75,0,0,0-.74-.12q0-.37-.12-.75a4.51,4.51,0,0,0-.56-1.42,4.77,4.77,0,0,0-.56,1.42,6.46,6.46,0,0,0-.11.75,4.88,4.88,0,0,0-.75.12,4.63,4.63,0,0,0-1.42.55,4.42,4.42,0,0,0,1.42.56A5,5,0,0,0,32,23Z"/><path class="cls-1" d="M78.27,37.05a6,6,0,0,0,.11.74,4.57,4.57,0,0,0,.56,1.42,4.33,4.33,0,0,0,.56-1.42,4.57,4.57,0,0,0,.12-.74,4.57,4.57,0,0,0,.74-.12,4.33,4.33,0,0,0,1.42-.56,4.54,4.54,0,0,0-1.42-.55,4.75,4.75,0,0,0-.74-.12q0-.37-.12-.75a4.51,4.51,0,0,0-.56-1.42A4.73,4.73,0,0,0,78.39,35a4.88,4.88,0,0,0-.12.75,4.88,4.88,0,0,0-.75.12,4.73,4.73,0,0,0-1.42.55,4.51,4.51,0,0,0,1.42.56A4.88,4.88,0,0,0,78.27,37.05Z"/><path class="cls-1" d="M66,37.05a4.57,4.57,0,0,0,.12.74,4.33,4.33,0,0,0,.56,1.42,4.33,4.33,0,0,0,.56-1.42,6,6,0,0,0,.11-.74,4.88,4.88,0,0,0,.75-.12,4.51,4.51,0,0,0,1.42-.56,4.73,4.73,0,0,0-1.42-.55,4.88,4.88,0,0,0-.75-.12,4.88,4.88,0,0,0-.12-.75,4.73,4.73,0,0,0-.55-1.42A4.51,4.51,0,0,0,66.16,35q-.07.38-.12.75a4.75,4.75,0,0,0-.74.12,4.54,4.54,0,0,0-1.42.55,4.33,4.33,0,0,0,1.42.56A4.57,4.57,0,0,0,66,37.05Z"/><path class="cls-1" d="M66,23a4.57,4.57,0,0,0,.12.74,4.33,4.33,0,0,0,.56,1.42,4.33,4.33,0,0,0,.56-1.42,6,6,0,0,0,.11-.74,4.88,4.88,0,0,0,.75-.12,4.51,4.51,0,0,0,1.42-.56,4.73,4.73,0,0,0-1.42-.55,4.88,4.88,0,0,0-.75-.12,4.88,4.88,0,0,0-.12-.75,4.73,4.73,0,0,0-.55-1.42,4.51,4.51,0,0,0-.56,1.42q-.07.38-.12.75a4.75,4.75,0,0,0-.74.12,4.54,4.54,0,0,0-1.42.55,4.33,4.33,0,0,0,1.42.56A6,6,0,0,0,66,23Z"/><path class="cls-1" d="M88.11,48.6c0-.25,0-.5,0-.75a37.32,37.32,0,0,0-.4-4.24h0L87.6,43h0a38.12,38.12,0,0,0-75.18,0h0l-.09.6a38.88,38.88,0,0,0-.43,5.71c0,.42,0,.83,0,1.23h0v.1c0,.2,0,.41,0,.61s0,.56.06.87a36.86,36.86,0,0,0,.52,4.09h0l.19.88a37.4,37.4,0,0,0,2.24,7.16l.42.95c.22.48.45,1,.69,1.42s.43.82.65,1.22A38.27,38.27,0,0,0,19,71.54h0l.52.74h0A37.65,37.65,0,0,0,22.82,76l.5.52h0a38.71,38.71,0,0,0,5.37,4.39h0l.5.34h0A37.89,37.89,0,0,0,50,87.44h1.09a37.88,37.88,0,0,0,19.7-6.15h0l.51-.34a38.71,38.71,0,0,0,5.37-4.39h0l.5-.52a37.65,37.65,0,0,0,3.26-3.77h0l.53-.74a38.09,38.09,0,0,0,4.1-7.28l.36-.87a39.37,39.37,0,0,0,1.46-4.46c0-.12,0-.23.08-.34s.1-.38.14-.58.14-.61.2-.91l.19-.88h0A37,37,0,0,0,88,52.14c0-.32,0-.6.06-.87h0l0-.71h0c0-.4,0-.81,0-1.23C88.12,49.08,88.12,48.84,88.11,48.6ZM77.61,65.53a9.3,9.3,0,0,0,1.89,5.61c-.12.16-.23.32-.35.47l-.1.14c-.22.28-.44.56-.67.83a1,1,0,0,1-.13.16c-.23.28-.46.55-.7.82l-.1.11-.74.81,0,0A13.6,13.6,0,0,1,86.6,51.93V52A37.43,37.43,0,0,1,86,56.28,9.25,9.25,0,0,0,77.61,65.53Zm-2.56,10.6-.42.39-.23.21-.39.34-.26.22-.37.32-.28.22-.37.3-.28.22-.38.29-.28.21-.39.28-.29.21-.1.07a21.1,21.1,0,0,1,15.36-35v0l0,.23c0,.14,0,.28,0,.41l0,.27c0,.13,0,.26,0,.39a2.45,2.45,0,0,0,0,.27l0,.38a2.46,2.46,0,0,1,0,.28l0,.38c0,.09,0,.18,0,.27s0,.27,0,.4a2.26,2.26,0,0,1,0,.26c0,.15,0,.29,0,.44v.21c0,.22,0,.44,0,.66,0,.4,0,.8,0,1.19a15,15,0,0,0-11,25l-.45.43ZM61.06,24A11.06,11.06,0,1,1,50,12.94,11.08,11.08,0,0,1,61.06,24Zm-19-9.64a12.48,12.48,0,1,0,15.84,0,.44.44,0,0,1,.38-.77,37,37,0,0,1,27.35,27,2.16,2.16,0,0,1-1.82,2.64A22.51,22.51,0,0,0,68.39,78.35a2.17,2.17,0,0,1-.73,3.14A36.62,36.62,0,0,1,52.27,86a.2.2,0,0,1-.18-.31l0-.07,3-5.15-1.67-2.68,1-.55-3.7-3,.47,4.77.94-.51,1.27,2-2.57,4.41a.16.16,0,0,1-.13.08.16.16,0,0,1-.14-.07l-3.21-4.52a.44.44,0,0,1,0-.4l3.15-8a1.79,1.79,0,0,0,.13-.68v-5l4.49,1-.71,5.82L56,67,56,66.7l-.35-.13-4.83-1.72-.08,0h-.12V61.44l.72-1.15h.06l6.15-.38,3,4.19L58,59.41l-.08-.14h-.2l-5.5-.34.25-.39a9.82,9.82,0,0,0,.66-1.24l1.14-2.58h.14l6.4-.37H61l.08-.14,3-5.17-3.41,4.63-5.83-.34a8.77,8.77,0,0,0,.32-1.83c.05-.84.09-1.87.05-2.81l3.23-.12h.36l.15-.28,4.67-8.78.08-.16-.12-.11-4.36-4.09,3.93,4.27-5,8-3.05-.11c0-.09,0-.17,0-.25A5.69,5.69,0,0,0,53,44.31h0l.73-.83.33-.38-.2-.3L51.37,39.1l1.28,3.72-.62.41a.75.75,0,0,0-.14.12.41.41,0,0,0-.07.11,15.68,15.68,0,0,0-1.53-1h0l-.08,0-.05,0-.07,0h-.2l-.08,0h0l-.06,0-.07,0h0a14.8,14.8,0,0,0-1.46.9.77.77,0,0,0-.18-.18l-.62-.41,1.28-3.72-2.46,3.69-.2.3.33.38.7.79A5.77,5.77,0,0,0,44.87,47a1.84,1.84,0,0,0,0,.25l-3,.11-5-8,3.93-4.27-4.36,4.09-.12.11.08.16,4.67,8.78.15.28h.36l3.12.11c0,.95,0,2,0,2.82a8.27,8.27,0,0,0,.33,1.84l-5.73.33L35.92,49l3,5.17.08.14h.21l6.4.37h0l1.14,2.57a9.82,9.82,0,0,0,.66,1.24l.25.4-5.4.33h-.2l-.08.14-2.6,4.7,3-4.19,6.11.37.72,1.15v3.38a.29.29,0,0,0-.1,0l-4.83,1.72L44,66.7,44,67l1.52,6-.71-5.82,4.39-1v5a.45.45,0,0,1,0,.16l-3.15,8a1.83,1.83,0,0,0,.21,1.74l3.21,4.52h0a.2.2,0,0,1-.16.32,36.55,36.55,0,0,1-17-4.52,2.18,2.18,0,0,1-.72-3.14A22.51,22.51,0,0,0,16.17,43.22a2.16,2.16,0,0,1-1.82-2.64,37,37,0,0,1,27.36-27A.44.44,0,0,1,42.08,14.36Zm4.07,37a17,17,0,0,1,.1-4.07c.23-1,2.26-2.54,3.7-3.38,1.43.84,3.46,2.35,3.69,3.38a16.48,16.48,0,0,1,.1,4.07,6.86,6.86,0,0,1-.57,2.35l-1.32,3a8.24,8.24,0,0,1-.56,1.06L50,59.9l-1.34-2.13a8.24,8.24,0,0,1-.56-1.06l-1.32-3A6.88,6.88,0,0,1,46.15,51.4ZM28.88,79.33l-.27-.19-.4-.29-.28-.21-.38-.29-.28-.22-.38-.3-.27-.22-.37-.32L26,77.07l-.39-.34-.23-.21L25,76.13l-.2-.18-.44-.43a14.91,14.91,0,0,0,3.81-10,15,15,0,0,0-14.79-15c0-.39,0-.79,0-1.19,0-.22,0-.44,0-.66v-.21c0-.15,0-.29,0-.44a2,2,0,0,1,0-.25c0-.14,0-.27,0-.41s0-.18,0-.26l0-.4a2.11,2.11,0,0,1,0-.26l0-.4a2.28,2.28,0,0,0,0-.26c0-.14,0-.27,0-.41a1.94,1.94,0,0,1,0-.24l.06-.45c0-.06,0-.13,0-.2v0A21.1,21.1,0,0,1,29,79.41Zm-5.6-4.86c-.25-.26-.49-.52-.73-.79l-.1-.12c-.24-.27-.47-.54-.7-.82l-.13-.16c-.23-.27-.45-.55-.67-.83l-.1-.14c-.12-.16-.24-.31-.35-.47A9.29,9.29,0,0,0,14,56.28,37.43,37.43,0,0,1,13.4,52v-.1a13.6,13.6,0,0,1,9.91,22.58ZM19.61,69.9l-.1-.16c-.15-.21-.29-.42-.42-.64l-.18-.28-.33-.53L18.39,68c-.1-.17-.2-.34-.29-.51s-.13-.22-.19-.33-.19-.34-.28-.51l-.18-.34-.27-.52L17,65.43l-.28-.58-.13-.28c-.13-.29-.26-.58-.38-.87l-.33-.78-.09-.26-.21-.54c0-.1-.08-.2-.11-.3l-.18-.5c0-.11-.07-.22-.11-.32s-.11-.34-.16-.5-.07-.21-.1-.32-.11-.35-.16-.52l-.09-.3c0-.2-.11-.4-.16-.6l-.06-.22c-.07-.26-.13-.53-.19-.79a7.87,7.87,0,0,1,5.35,12.17Zm63.78-5.33c0,.09-.09.18-.13.28l-.28.58c0,.11-.11.22-.16.32l-.27.53-.18.34-.28.51c-.06.11-.12.22-.19.33l-.29.52a3.21,3.21,0,0,0-.19.31l-.33.54-.18.27-.42.65-.1.15,0,0a7.87,7.87,0,0,1,5.35-12.17c-.06.26-.12.53-.19.79a1.8,1.8,0,0,0,0,.19l-.18.63a2.45,2.45,0,0,1-.08.29c0,.18-.1.35-.16.53s-.06.21-.1.32L84.8,61c0,.11-.07.22-.11.33l-.18.49a2.83,2.83,0,0,1-.11.31c-.07.18-.13.36-.2.53l-.11.27c-.1.26-.21.52-.32.78S83.52,64.28,83.39,64.57Z"/></svg>