<svg id="Layer_1" data-name="Layer 1" xmlns="http://www.w3.org/2000/svg" viewBox="0 0 100 100"><path d="M52.54,20.2h0Z"/><path d="M47.47,20.2h0Z"/><path d="M42.74,17.58a1.66,1.66,0,0,1,.59.47s.07.1.11.15l.12.17a3.38,3.38,0,0,0,.27.36q.27.36.57.69a12.75,12.75,0,0,0,1.3,1.24,6.69,6.69,0,0,0,.78.54,4.3,4.3,0,0,0,.48.23l.11,0a5.82,5.82,0,0,0-1.45,3.94c0,2.89,1.91,5.24,4.27,5.24s4.27-2.35,4.27-5.24a5.8,5.8,0,0,0-1.41-3.89,2,2,0,0,0,.29-.08,4.3,4.3,0,0,0,.48-.23,6.69,6.69,0,0,0,.78-.54,11.75,11.75,0,0,0,1.3-1.24c.2-.22.39-.45.58-.68s.18-.24.26-.37l.12-.17c0-.05.07-.11.11-.15a1.66,1.66,0,0,1,.59-.47,1.11,1.11,0,0,1,.8,0,1.1,1.1,0,0,0-.85-.32,1.76,1.76,0,0,0-.91.35l-.19.15-.17.15-.31.28-.66.52a15.14,15.14,0,0,1-1.36,1,5.22,5.22,0,0,1-.68.38l-.31.12h-.1s0,0,0,0h-.12c-.81,0-1.61,0-2.41,0H48.8l-1.21,0h-.12s0,0,0,0h-.09a1.77,1.77,0,0,1-.31-.12,6.58,6.58,0,0,1-.68-.37c-.46-.29-.92-.62-1.36-1-.23-.17-.45-.34-.66-.52l-.32-.28-.17-.15-.18-.15a1.76,1.76,0,0,0-.91-.35,1.1,1.1,0,0,0-.85.32A1.11,1.11,0,0,1,42.74,17.58Zm7.15,4c1.57,0,2.85,1.71,2.85,3.82s-1.28,3.82-2.85,3.82S47,27.51,47,25.4,48.32,21.58,49.89,21.58Z"/><path d="M85,64.17A37.7,37.7,0,0,0,88,52.07c.07-.93.11-1.87.11-2.82a38.07,38.07,0,0,0-65-26.91A37.81,37.81,0,0,0,11.93,49.25c0,1,0,1.89.11,2.81A38.07,38.07,0,0,0,76.81,76.28,37.73,37.73,0,0,0,85,64.17Zm-2.53-1H63l-.42-.39c3.78-1.15,6.42-2.83,7.85-5a7.55,7.55,0,0,0,1.22-5.08H84.16a2,2,0,0,1,2,2.37,35.72,35.72,0,0,1-1.75,6.74A2.05,2.05,0,0,1,82.5,63.19Zm-23.16.4A4.31,4.31,0,0,0,58.85,65c-.1.63-.23,1.23-.37,1.78,0,.16-.08.32-.13.48l0,0h0C57.84,69,57,71,55.49,71.57a2,2,0,0,0-1.23,1.76,12.16,12.16,0,0,1-.3,2.32c-.46,1.94-1.32,3-2.57,3.3H48.61c-1.25-.25-2.11-1.36-2.57-3.3a12.15,12.15,0,0,1-.3-2.33,2,2,0,0,0-1.23-1.75c-2.1-.81-3-4.49-3.36-6.61a4.31,4.31,0,0,0-.49-1.37l-1.23.69a3.14,3.14,0,0,1,.32.92q.07.48.18,1l-.07-.11c-1.22.83-3.55.55-5.13.2l3-2.77a.84.84,0,0,1,1.12,0,2.92,2.92,0,0,1,.6.75l1.24-.69a4.07,4.07,0,0,0-.51-.72A6.52,6.52,0,0,0,42.54,60a.72.72,0,0,0-.2-.9.71.71,0,0,0-1.07.26A4.25,4.25,0,0,1,39,61.79a1,1,0,0,0-.29,0,4.49,4.49,0,0,0-.61-.23,20.71,20.71,0,0,1-3.39-1.29A5.17,5.17,0,0,0,36,58.55a.74.74,0,0,0-.2-.9.71.71,0,0,0-1.07.26,2.92,2.92,0,0,1-1.34,1.51h-.18c-2.8-1.84-4-4.3-3.4-7.26,0-.15.06-.3.1-.45a4.84,4.84,0,0,0,.22.6c1.78,4.05,8.41,4.33,12.2,4.14A5.16,5.16,0,0,0,45,55.5a12.3,12.3,0,0,1,4.24-1.15h1.46A12.3,12.3,0,0,1,55,55.5a5.16,5.16,0,0,0,2.66.94c3.79.19,10.42-.09,12.2-4.14a4.84,4.84,0,0,0,.22-.6c0,.14.07.29.1.45.57,3-.6,5.42-3.4,7.26H66.6a2.89,2.89,0,0,1-1.32-1.48.73.73,0,0,0-.89-.39.7.7,0,0,0-.4,1,5.18,5.18,0,0,0,1.28,1.71,20.6,20.6,0,0,1-3.41,1.3,3.66,3.66,0,0,0-.58.22,4.55,4.55,0,0,1-2.12-2.34.72.72,0,0,0-.89-.39.71.71,0,0,0-.4,1A6.68,6.68,0,0,0,60,62.66a4.37,4.37,0,0,0-.66.89l1.24.69h0a.84.84,0,0,1,1.29-.18l2.38,2.23a10.11,10.11,0,0,1-4.24.18q.14-.61.24-1.26a3.14,3.14,0,0,1,.32-.92ZM32.13,52.72H67.87c-2.23,2.4-7.71,2.43-10.17,2.3a3.75,3.75,0,0,1-1.93-.69c-1.45-1-4.58-1.36-4.93-1.39H49.16c-.35,0-3.48.39-4.93,1.39A3.75,3.75,0,0,1,42.3,55C39.84,55.15,34.36,55.12,32.13,52.72ZM61.05,24a11.05,11.05,0,1,1-11-11A11.07,11.07,0,0,1,61.05,24ZM13.35,49.25A36.72,36.72,0,0,1,40.57,13.84a.73.73,0,0,1,.7,1.24,12.46,12.46,0,1,0,17.45,0,.74.74,0,0,1,.72-1.23A36.71,36.71,0,0,1,86.65,49.25v0a2,2,0,0,1-2.05,2H71.41a11.36,11.36,0,0,0-1.57-3.54l-2.37-3.34,1.11,3.94a5.32,5.32,0,0,1,.1,2.94H31.32a5.32,5.32,0,0,1,.1-2.94l1.11-3.94-2.37,3.34a11.62,11.62,0,0,0-1.57,3.54H15.4a2,2,0,0,1-2.05-2Zm2.49,3.47H28.33a7.55,7.55,0,0,0,1.22,5.08c1.33,2,3.72,3.62,7.09,4.76l-.68.63H17.5a2.05,2.05,0,0,1-1.93-1.36,35.72,35.72,0,0,1-1.75-6.74A2,2,0,0,1,15.84,52.72Zm4.25,11.89H34.44L32,66.92l1.14.38A15.46,15.46,0,0,0,37.5,68a6.27,6.27,0,0,0,2.75-.55C40.9,69.84,42,72.13,44,72.9a.54.54,0,0,1,.33.48c0,.1,0,.21,0,.32A1.29,1.29,0,0,1,43,75.07H24.86a2,2,0,0,1-1.49-.64,36.61,36.61,0,0,1-5.05-6.74A2,2,0,0,1,20.09,64.61ZM50,85.9a36.37,36.37,0,0,1-19.54-5.63,2,2,0,0,1,1.09-3.78H44a1.13,1.13,0,0,1,1,.72,4.52,4.52,0,0,0,3.38,3.15h3.16A4.52,4.52,0,0,0,55,77.21a1.13,1.13,0,0,1,1-.72H68.45a2,2,0,0,1,1.09,3.78A36.37,36.37,0,0,1,50,85.9Zm7-10.83a1.29,1.29,0,0,1-1.29-1.37c0-.11,0-.22,0-.31A.54.54,0,0,1,56,72.9c1.6-.63,2.83-2.33,3.64-5.07a7.39,7.39,0,0,0,1.83.21,16,16,0,0,0,4.42-.74L67,66.92l-2.48-2.31H79.91a2,2,0,0,1,1.77,3.08,36.61,36.61,0,0,1-5.05,6.74,2,2,0,0,1-1.49.64Z"/><polygon points="20.23 81.49 21.68 81.69 21.98 81.93 17.43 87.39 16.7 87.69 18.21 88.95 18.37 88.18 22.92 82.72 23.22 82.97 23.66 84.36 24.73 83.07 21.3 80.2 20.23 81.49"/><path d="M31.28,87l-4.86,6.55-.69.44,1.79.85v-.77l.66-.92L30,94l-.29,1.11-.57.49L31,96.5l-.09-.81,2-7.92Zm-1,6.08-1.55-.73,2.82-4Z"/><path d="M44.27,91.73l-1,6.34a.54.54,0,0,1-.68.52l-.82-.13a.54.54,0,0,1-.48-.7l1-6.34.48-.63-2-.31.27.75L40,97.93c-.13.82.14,1.25,1,1.38l2,.32c.84.13,1.25-.19,1.38-1l1.06-6.69.47-.63L44,91Z"/><path d="M57.49,95.61c.59-.22.79-.67.69-1.42L57.89,92c-.1-.82-.49-1.16-1.34-1L53,91.38l.46.64.94,7.24-.28.74,2-.26-.46-.64L55.17,96l.45-.06c.55-.07.79.12,1,.63l1,2.32-.08.71,2-.27-.63-.61Zm-1.2-.78L55,95l-.37-2.87L55.91,92c.52-.07.78.2.84.69l.17,1.29A.69.69,0,0,1,56.29,94.83Z"/><path d="M69.47,87.49l.06-.78-1.77.79.62.48L71,93.84a.55.55,0,0,1-.29.81L70,95a.54.54,0,0,1-.78-.33l-2.62-5.87.06-.78-1.8.8.63.48,2.76,6.19a1,1,0,0,0,1.59.63l1.84-.82a1,1,0,0,0,.6-1.6Z"/><path d="M82.5,84.23a1.16,1.16,0,0,0-1.21-.41L79,84.29a.84.84,0,0,1-1-.36l-.54-.63a.54.54,0,0,1,.05-.85l.6-.51a.52.52,0,0,1,.83.11l.6.71,1.32-.29L79.62,81a1,1,0,0,0-1.7-.15l-1.49,1.26a1,1,0,0,0-.13,1.7l1.14,1.34a1.16,1.16,0,0,0,1.2.44l2.28-.49a.86.86,0,0,1,1,.37l.65.76a.55.55,0,0,1,0,.85l-.7.59a.54.54,0,0,1-.84-.1l-.75-.89L78.92,87l1.39,1.65a1,1,0,0,0,1.7.16l1.6-1.35a1,1,0,0,0,.14-1.71Z"/><polygon points="23.07 15.01 23.15 15.57 24.29 14.74 23.78 14.49 22.45 12.66 23.61 11.82 24.95 13.64 25.02 14.2 26.16 13.37 25.65 13.13 22.57 8.92 22.5 8.35 21.36 9.19 21.87 9.43 23.21 11.27 22.05 12.11 20.71 10.28 20.63 9.72 19.49 10.55 20 10.79 23.07 15.01"/><path d="M28.76,10.79a.73.73,0,0,0,1.15.39l1.34-.68a.74.74,0,0,0,.37-1.16l-2-4A.75.75,0,0,0,28.44,5l-1.34.68a.74.74,0,0,0-.36,1.16Zm-1-4.73.57-.29a.38.38,0,0,1,.57.21l1.79,3.53a.38.38,0,0,1-.17.58l-.57.29a.38.38,0,0,1-.56-.21L27.63,6.64A.38.38,0,0,1,27.79,6.06Z"/><path d="M35.34,8.22l-.11.56,1.35-.43L36.17,8l-.68-2.17.31-.1a.59.59,0,0,1,.78.33l1,1.5,0,.51L39,7.59l-.53-.36-1.39-2c.38-.22.47-.57.31-1.08L36.9,2.65c-.18-.57-.49-.76-1.07-.57l-2.47.78.4.39Zm.17-5.33a.5.5,0,0,1,.68.38l.28.89a.48.48,0,0,1-.34.7l-.85.27-.63-2Z"/><path d="M41.91,6.07c.09.58.36.82,1,.73l1.48-.22c.61-.09.81-.4.72-1l-.65-4.42c-.09-.59-.38-.82-1-.73L42,.66c-.61.09-.81.39-.72,1Zm.58-4.8.63-.09a.38.38,0,0,1,.48.37l.58,3.92a.39.39,0,0,1-.35.5l-.63.09c-.28,0-.43-.11-.47-.38l-.58-3.91C42.11,1.5,42.21,1.31,42.49,1.27Z"/><path d="M49.63,6.21l1.5,0c.61,0,.86-.26.87-.85L52,4a.82.82,0,0,0-.46-.78l-1.45-.83a.59.59,0,0,1-.37-.66V1.13a.39.39,0,0,1,.42-.44h.56c.28,0,.41.17.4.45v.66l.84.47L52,.91c0-.6-.24-.88-.85-.89L49.76,0c-.61,0-.86.26-.87.86l0,1.26a.83.83,0,0,0,.44.79l1.46.82a.6.6,0,0,1,.37.67v.71a.38.38,0,0,1-.42.43h-.66c-.28,0-.41-.17-.4-.45V4.25l-.84-.47,0,1.55C48.78,5.92,49,6.2,49.63,6.21Z"/><path d="M56.26,6.67l1.45.23a.74.74,0,0,0,1-.72L59,4.32l-.91.32L57.9,5.79a.38.38,0,0,1-.48.37l-.63-.1a.38.38,0,0,1-.33-.5l.63-3.91c0-.27.2-.42.48-.37l.63.1a.39.39,0,0,1,.34.51l-.23,1.4L59.22,3l.2-1.2c.09-.59-.11-.9-.71-1L57.26.54c-.61-.1-.89.13-1,.72l-.72,4.41C55.46,6.26,55.65,6.57,56.26,6.67Z"/><path d="M62.84,8.16l1.42.47a.75.75,0,0,0,1.09-.55l1.41-4.25a.75.75,0,0,0-.55-1.09l-1.42-.47a.73.73,0,0,0-1.08.55L62.3,7.07A.73.73,0,0,0,62.84,8.16Zm.37-1.06,1.24-3.76A.38.38,0,0,1,65,3.05l.6.2a.38.38,0,0,1,.26.55L64.6,7.56a.39.39,0,0,1-.54.29l-.61-.2A.38.38,0,0,1,63.21,7.1Z"/><path d="M69.52,10.33l1-1.95L71.79,9A.74.74,0,0,0,73,8.65l.81-1.58a.73.73,0,0,0-.35-1.16L71.13,4.73v.56l-2.4,4.64-.47.31,1.26.65Zm2.31-4.47.77.4a.49.49,0,0,1,.21.75l-.46.91a.5.5,0,0,1-.74.26l-.77-.4Z"/><polygon points="77.31 14.49 76.32 14.34 75.39 13.66 76.62 11.98 77.45 12.59 77.73 13.08 78.41 12.15 77.86 12.03 77.03 11.42 78.25 9.75 79.18 10.43 79.62 11.32 80.29 10.39 77.73 8.52 77.65 9.08 74.57 13.29 74.06 13.54 76.63 15.41 77.31 14.49"/><path d="M83.23,16.08a.71.71,0,0,0-1,1A45.25,45.25,0,0,1,95.54,49.25c0,.92,0,1.83-.08,2.72a45.29,45.29,0,0,1-8.15,23.4,45.75,45.75,0,0,1-3.47,4.36.71.71,0,0,0,0,1,.74.74,0,0,0,.48.18.68.68,0,0,0,.52-.23,45.75,45.75,0,0,0,3.58-4.49,46.68,46.68,0,0,0,8.41-24.13c.05-.92.08-1.86.08-2.81A46.65,46.65,0,0,0,83.23,16.08Z"/><path d="M4.46,49.25A45.25,45.25,0,0,1,17.77,17.08a.71.71,0,0,0-1-1,46.94,46.94,0,0,0-1.66,64.6.68.68,0,0,0,.52.23.74.74,0,0,0,.48-.18.71.71,0,0,0,.05-1A45.46,45.46,0,0,1,4.46,49.25Z"/><path d="M21.19,35.65a6.33,6.33,0,0,0-.12-.74,4.42,4.42,0,0,0-.56-1.42A4.63,4.63,0,0,0,20,34.91a6.33,6.33,0,0,0-.12.74,4.57,4.57,0,0,0-.74.12,4.33,4.33,0,0,0-1.42.56,5.46,5.46,0,0,0,2.16.67,5.46,5.46,0,0,0,.67,2.16,4.33,4.33,0,0,0,.56-1.42,4.57,4.57,0,0,0,.12-.74,5.46,5.46,0,0,0,2.16-.67,4.33,4.33,0,0,0-1.42-.56C21.68,35.72,21.44,35.68,21.19,35.65Z"/><path d="M32.05,37a5.46,5.46,0,0,0,.67,2.16,4.33,4.33,0,0,0,.56-1.42A4.57,4.57,0,0,0,33.4,37a4.57,4.57,0,0,0,.74-.12,4.63,4.63,0,0,0,1.42-.55,4.42,4.42,0,0,0-1.42-.56c-.25-.05-.49-.09-.74-.12a6.33,6.33,0,0,0-.12-.74,4.42,4.42,0,0,0-.56-1.42,4.63,4.63,0,0,0-.55,1.42,4.75,4.75,0,0,0-.12.74,4.57,4.57,0,0,0-.74.12,4.33,4.33,0,0,0-1.42.56,5.46,5.46,0,0,0,2.16.67Z"/><path d="M32.05,23a5.46,5.46,0,0,0,.67,2.16,4.33,4.33,0,0,0,.56-1.42A4.75,4.75,0,0,0,33.4,23a6,6,0,0,0,.74-.12,4.42,4.42,0,0,0,1.42-.56,4.63,4.63,0,0,0-1.42-.55,6.33,6.33,0,0,0-.74-.12,6,6,0,0,0-.12-.74,4.33,4.33,0,0,0-.56-1.42,5.46,5.46,0,0,0-.67,2.16,5.46,5.46,0,0,0-2.16.67,4.33,4.33,0,0,0,1.42.56A4.57,4.57,0,0,0,32.05,23Z"/><path d="M78.23,37a5.46,5.46,0,0,0,.67,2.16,4.33,4.33,0,0,0,.56-1.42,4.57,4.57,0,0,0,.12-.74,5.46,5.46,0,0,0,2.16-.67,4.33,4.33,0,0,0-1.42-.56,4.75,4.75,0,0,0-.74-.12,6.33,6.33,0,0,0-.12-.74,4.42,4.42,0,0,0-.56-1.42,4.63,4.63,0,0,0-.55,1.42,6.33,6.33,0,0,0-.12.74c-.25,0-.5.07-.74.12a4.33,4.33,0,0,0-1.42.56,5.46,5.46,0,0,0,2.16.67Z"/><path d="M66,37a5.46,5.46,0,0,0,.67,2.16,4.33,4.33,0,0,0,.56-1.42,4.57,4.57,0,0,0,.12-.74,5.46,5.46,0,0,0,2.16-.67,4.33,4.33,0,0,0-1.42-.56,4.57,4.57,0,0,0-.74-.12,6.33,6.33,0,0,0-.12-.74,4.42,4.42,0,0,0-.56-1.42,4.63,4.63,0,0,0-.55,1.42,6.33,6.33,0,0,0-.12.74c-.25,0-.5.07-.74.12a4.33,4.33,0,0,0-1.42.56A5.46,5.46,0,0,0,66,37Z"/><path d="M66,23a4.75,4.75,0,0,0,.12.74,4.54,4.54,0,0,0,.55,1.42,4.33,4.33,0,0,0,.56-1.42,4.57,4.57,0,0,0,.12-.74,4.57,4.57,0,0,0,.74-.12,4.33,4.33,0,0,0,1.42-.56,5.46,5.46,0,0,0-2.16-.67,6,6,0,0,0-.12-.74,4.33,4.33,0,0,0-.56-1.42,4.54,4.54,0,0,0-.55,1.42,6,6,0,0,0-.12.74,6,6,0,0,0-.74.12,4.54,4.54,0,0,0-1.42.55,4.33,4.33,0,0,0,1.42.56A6,6,0,0,0,66,23Z"/><path d="M57.14,63.94h-.8a3.23,3.23,0,0,0-.87.41c-.77.49-1.23,1.15-1,1.47s1,.18,1.76-.32,1.23-1.15,1-1.47A.28.28,0,0,0,57.14,63.94Z"/><path d="M44.19,64.35a3.23,3.23,0,0,0-.87-.41h-.8a.2.2,0,0,0-.09.09c-.21.32.25,1,1,1.47s1.56.64,1.77.32S45,64.84,44.19,64.35Z"/><path d="M47.65,76.33A.65.65,0,0,0,47,77a.66.66,0,0,0,.66.67.67.67,0,0,0,.67-.67A.66.66,0,0,0,47.65,76.33Z"/><path d="M52.42,76.33a.65.65,0,0,0-.66.66.66.66,0,1,0,1.32,0A.65.65,0,0,0,52.42,76.33Z"/></svg>